<svg aria-hidden="true" width="117" height="121" viewBox="0 0 117 121" fill="none" xmlns="http://www.w3.org/2000/svg">
<path d="M102.444 80.5339C102.761 82.5445 103.116 84.428 103.338 86.3539C103.827 90.8526 103.173 95.4018 101.439 99.5811C99.7287 104.003 96.7342 107.812 92.8408 110.517C88.767 113.426 83.7382 114.672 78.7776 114.004C75.1398 113.51 71.7061 112.032 68.8467 109.729C68.5504 109.496 68.2382 109.285 67.852 109.004C67.5769 109.343 67.3229 109.613 67.1166 109.914C64.7217 113.419 61.4155 116.204 57.5545 117.968C53.6935 119.732 49.4242 120.408 45.207 119.925C38.7309 119.173 33.1808 116.501 28.3185 112.253C21.5884 106.38 17.5621 98.978 15.8743 90.2586C15.2024 86.7984 15.1389 84.1741 15.4987 79.5604L13.9855 78.8726C8.69458 76.4441 4.5677 72.7775 2.02278 67.5025C-0.590915 62.0793 -0.717876 56.5451 1.91169 51.1007C3.95927 46.868 7.33483 43.9422 11.6099 42.0533C12.8321 41.5243 14.1442 41.1804 15.4193 40.7571L16.578 40.3709C16.4193 38.8947 16.25 37.5244 16.123 36.1382C15.6748 31.5987 16.937 27.0554 19.6626 23.3977C22.3398 19.6941 26.0116 17.3661 30.366 15.9904C33.307 15.084 36.3736 14.6518 39.4505 14.7101C42.0439 14.7122 44.628 15.0212 47.1488 15.6307C47.3339 15.6783 47.5244 15.6836 47.8259 15.7259C48.1275 15.2709 48.4503 14.8053 48.7571 14.3291C51.7695 9.49222 56.0423 5.56705 61.1167 2.97487C65.2473 0.850935 69.914 -0.00325522 74.5291 0.51989C78.4671 0.956931 82.1922 2.5327 85.2484 5.05421C89.8409 8.79487 92.4916 13.6889 93.6874 19.4084C94.4101 22.7092 94.5586 26.1098 94.1265 29.4611C94.0365 30.1119 94.0365 30.7785 93.9942 31.4452C95.5815 31.916 97.1159 32.3076 98.6079 32.8155C103.113 34.2554 107.191 36.7873 110.481 40.1856C113.858 43.6525 116.058 48.0956 116.766 52.8838C117.428 57.5692 116.678 62.3456 114.613 66.6031C112.183 71.7541 108.47 76.1942 103.83 79.4969L102.671 80.3541C102.597 80.3858 102.534 80.4599 102.444 80.5339ZM39.1172 18.3078C37.0447 18.2188 34.9702 18.4309 32.9586 18.9375C29.6412 19.7629 26.6095 21.1596 24.1492 23.5828C20.2181 27.4664 19.07 32.2758 19.7948 37.6037C20.051 38.9687 20.3903 40.3169 20.8107 41.6406C21.0753 42.6618 20.8901 43.1116 19.9695 43.4131C19.5112 43.5484 19.0421 43.6439 18.5674 43.6988C13.8902 44.3972 9.83211 46.2755 6.83218 50.0479C5.42401 51.7283 4.43039 53.7161 3.93136 55.851C3.43234 57.9859 3.4419 60.2081 3.95926 62.3386C4.70277 65.5293 6.30353 68.4564 8.58879 70.804C11.0662 73.3726 14.1102 75.3258 17.4774 76.5076C18.943 77.0367 19.1917 77.4388 19.1071 78.9732C19.033 80.2641 18.8584 81.5551 18.8319 82.8461C18.6884 87.8096 19.6668 92.7415 21.6943 97.2743C25.2762 105.211 30.7841 111.359 38.9585 114.782C43.0642 116.501 47.3551 117.142 51.7677 116.179C58.0215 114.819 62.5981 111.248 65.5557 105.597C66.4128 103.967 67.6721 103.793 69.0213 105.068C69.8412 105.877 70.7068 106.638 71.6138 107.348C73.464 108.786 75.6095 109.797 77.8965 110.307C80.1834 110.817 82.555 110.815 84.841 110.3C88.6928 109.491 91.7932 107.406 94.3646 104.48C97.4153 100.979 99.3078 96.6191 99.7825 91.9993C100.274 88.4645 99.9553 84.8642 98.8513 81.4704C98.6552 80.9763 98.6088 80.4355 98.718 79.9152C98.8271 79.3949 99.0869 78.9182 99.465 78.5446C99.8208 78.1502 100.218 77.7954 100.65 77.4864C102.945 75.902 105.043 74.0494 106.899 71.968C110.2 68.2168 112.512 63.9947 113.248 58.9578C114.195 52.2489 112.084 46.6141 107.333 41.9687C104.09 38.8571 100.09 36.6482 95.7296 35.5614C94.5233 35.244 93.3011 35.0324 92.0842 34.7308C90.4969 34.3604 90.0102 33.5667 90.2589 31.9213C90.5234 30.1224 90.751 28.3129 90.8779 26.5034C90.9934 24.4411 90.8152 22.3729 90.3489 20.3607C89.3224 15.5989 87.2378 11.3927 83.4707 8.14937C81.5471 6.42646 79.2556 5.16534 76.7709 4.46209C74.2861 3.75884 71.6736 3.63198 69.1324 4.09124C63.0267 5.05418 58.1961 8.32395 54.2386 12.9535C52.8315 14.5964 51.6058 16.3862 50.5825 18.292C50.3832 18.7608 50.0214 19.142 49.5636 19.3655C49.1059 19.589 48.5828 19.6399 48.0905 19.5089C47.8101 19.456 47.5614 19.366 47.2546 19.3025C44.6032 18.5856 41.8631 18.2507 39.1172 18.3078Z" fill="#2F4077"/>
<path d="M39.1173 18.3084C41.8456 18.2562 44.5675 18.5911 47.2018 19.3031C47.4822 19.3665 47.7308 19.4565 48.0377 19.5094C48.53 19.6405 49.0531 19.5896 49.5108 19.366C49.9686 19.1425 50.3304 18.7613 50.5298 18.2925C51.553 16.3867 52.7787 14.5969 54.1857 12.954C58.1433 8.30331 62.9739 5.05471 69.0796 4.09177C71.6208 3.63251 74.2333 3.75937 76.718 4.46262C79.2028 5.16587 81.4943 6.42699 83.4179 8.1499C87.1585 11.3932 89.2378 15.5941 90.296 20.3612C90.7624 22.3734 90.9405 24.4416 90.8251 26.5039C90.6981 28.3134 90.4707 30.1229 90.2061 31.9218C89.9574 33.5673 90.423 34.3609 92.0314 34.7313C93.2483 35.0117 94.4706 35.2603 95.6769 35.5619C100.037 36.6487 104.038 38.8576 107.28 41.9692C112.042 46.6146 114.158 52.2494 113.195 58.9583C112.481 63.9952 110.169 68.2173 106.846 71.9685C104.99 74.0499 102.892 75.9024 100.597 77.4869C100.165 77.7959 99.768 78.1506 99.4122 78.545C99.0341 78.9187 98.7743 79.3954 98.6652 79.9157C98.5561 80.436 98.6024 80.9768 98.7985 81.4709C99.9025 84.8647 100.221 88.4649 99.7297 91.9998C99.255 96.6196 97.3625 100.979 94.3118 104.481C91.7511 107.428 88.6506 109.513 84.7882 110.301C82.5023 110.816 80.1307 110.818 77.8437 110.307C75.5567 109.797 73.4112 108.787 71.561 107.349C70.654 106.639 69.7884 105.877 68.9685 105.068C67.5928 103.788 66.3601 103.962 65.5029 105.597C62.5453 111.259 57.9687 114.83 51.7149 116.179C47.3023 117.142 43.0114 116.502 38.9056 114.782C30.7312 111.359 25.2234 105.259 21.6415 97.2748C19.6139 92.742 18.6356 87.81 18.7791 82.8465C18.7791 81.5556 18.9802 80.2646 19.0543 78.9736C19.1389 77.4393 18.8902 77.0583 17.4246 76.5081C14.0574 75.3263 11.0134 73.3731 8.53598 70.8045C6.25073 68.4569 4.64997 65.5298 3.90646 62.3391C3.3891 60.2086 3.37953 57.9864 3.87855 55.8515C4.37758 53.7166 5.37121 51.7288 6.77937 50.0484C9.7793 46.2918 13.8374 44.4136 18.5146 43.6993C18.9893 43.6444 19.4583 43.5489 19.9166 43.4136C20.8372 43.1121 21.0225 42.6623 20.7579 41.6411C20.3375 40.3174 19.9982 38.9693 19.742 37.6042C19.0172 32.2763 20.1653 27.4669 24.0964 23.5834C26.5514 21.1601 29.5884 19.7634 32.9058 18.938C34.9345 18.4263 37.0271 18.2142 39.1173 18.3084ZM80.8412 82.328C81.5131 82.328 82.1851 82.3598 82.8518 82.328C83.3757 82.2725 83.8953 82.1823 84.4073 82.0582C93.6981 80.1164 99.9678 71.1855 98.6926 62.6619C98.4431 60.6817 97.7938 58.7729 96.7843 57.0512C95.7747 55.3296 94.426 53.8309 92.8198 52.6462C90.8585 51.1287 88.5734 50.0843 86.1425 49.5943C83.7115 49.1042 81.2003 49.1818 78.8042 49.8209C70.3917 51.8738 64.2755 59.4397 64.9209 68.1855C65.1225 72.0191 66.8347 75.6166 69.6827 78.1906C72.7114 80.9868 76.7217 82.4738 80.8412 82.328ZM36.0856 99.5658C36.1643 99.6023 36.236 99.6524 36.2973 99.7139C36.4983 99.9837 36.6782 100.243 36.8739 100.539C38.1882 102.476 39.9198 104.094 41.9414 105.275C43.963 106.455 46.2232 107.167 48.5562 107.359C54.4344 107.952 59.466 105.984 63.2702 101.396C64.8192 99.606 65.9194 97.4724 66.4797 95.1722C67.0401 92.872 67.0444 90.4714 66.4923 88.1692C65.8458 85.0923 64.2196 82.3078 61.8575 80.2329C59.0399 77.6461 55.3942 76.1458 51.572 76.0002C49.6041 75.8748 47.6302 76.1189 45.7521 76.7197C45.444 76.8505 45.1045 76.8892 44.7749 76.831C44.4453 76.7728 44.1396 76.6201 43.895 76.3917C43.7151 76.233 43.5352 76.0742 43.3659 75.9261C42.7551 75.4576 42.023 75.1739 41.256 75.1082C40.4891 75.0426 39.7194 75.1979 39.0379 75.5557C38.3445 75.9499 37.7933 76.5528 37.4627 77.2786C37.1321 78.0045 37.039 78.8162 37.1967 79.598C37.2866 80.1271 37.4295 80.6138 37.5565 81.1376C37.4936 81.2647 37.4211 81.3867 37.3395 81.5027C34.416 84.9064 32.3963 88.9912 31.4667 93.3807C31.2222 94.6473 31.1492 95.9411 31.2497 97.2272C31.284 97.9098 31.586 98.5513 32.0901 99.0128C32.5942 99.4744 33.2598 99.7187 33.9428 99.6927C34.6359 99.7086 35.3502 99.6081 36.0856 99.5658ZM62.921 56.9159C63.0215 49.5457 60.3337 43.9797 55.7148 40.5142C51.9318 37.6571 47.6356 36.4296 42.9743 37.2339C35.5248 38.5195 30.1439 44.2813 29.218 51.9267C28.4138 58.8048 30.7365 64.6565 36.3184 68.8892C41.6675 72.9526 47.6197 73.651 53.6513 70.6352C59.847 67.5189 62.6617 62.1274 62.921 56.9159ZM71.5346 11.7635C68.6956 11.4457 65.8237 11.9043 63.2249 13.0905C60.6262 14.2766 58.3981 16.1458 56.7783 18.4988C55.154 20.8408 54.2141 23.589 54.064 26.4352C53.7519 32.1811 56.7095 39.0222 63.8839 41.6729C66.3925 42.568 69.0889 42.8034 71.7146 42.3568C74.3403 41.9101 76.8073 40.7963 78.8788 39.1221C80.9502 37.4479 82.5568 35.2696 83.5443 32.796C84.5319 30.3224 84.8673 27.6365 84.5184 24.996C84.2841 22.8261 83.5765 20.734 82.4457 18.8673C81.3149 17.0006 79.7883 15.4046 77.9736 14.192C78.6032 11.5466 78.0688 10.0599 76.2858 9.36676C74.5821 8.7054 72.688 9.63132 71.5346 11.7635ZM17.2236 64.4184C19.1706 64.3073 20.8003 64.265 22.4193 64.0957C23.2248 64.0098 24.011 63.7936 24.7472 63.4555C25.1428 63.2676 25.4515 62.9354 25.6099 62.5271C25.7683 62.1188 25.7645 61.6653 25.5991 61.2598C25.4263 60.8873 25.1305 60.5856 24.7615 60.4054C24.3925 60.2253 23.9727 60.1776 23.5726 60.2704C21.552 60.668 19.4941 60.8454 17.4352 60.7995C16.9589 60.7985 16.4843 60.8571 16.0225 60.974C15.6426 61.0467 15.3023 61.2557 15.0656 61.5616C14.8288 61.8675 14.7119 62.2494 14.7369 62.6354C14.7469 62.9978 14.8762 63.3467 15.1049 63.6279C15.3336 63.9092 15.6487 64.1071 16.0014 64.1909C16.4029 64.2957 16.8113 64.3717 17.2236 64.4184ZM21.8849 73.3441C22.2271 73.2599 22.5577 73.1338 22.869 72.9685C24.2446 72.0973 25.6043 71.1995 26.9482 70.2754C27.3449 69.998 27.701 69.6668 28.0064 69.2913C28.241 68.9908 28.3727 68.623 28.3822 68.2419C28.3918 67.8608 28.2785 67.4868 28.0593 67.1749C27.8175 66.8738 27.4802 66.6642 27.1032 66.5805C26.7261 66.4968 26.3318 66.5441 25.9853 66.7146C25.7676 66.8139 25.5602 66.9344 25.3663 67.0745C23.98 68.0162 22.5833 68.9474 21.2129 69.9156C20.8126 70.1705 20.473 70.51 20.2182 70.9103C19.5675 72.0056 20.3611 73.3018 21.8849 73.3441ZM93.7245 47.7786C93.7721 48.5934 93.9944 49.1437 94.6081 49.4823C94.8985 49.6636 95.2423 49.7399 95.5821 49.6985C95.922 49.6571 96.2374 49.5005 96.4758 49.2547C97.713 48.0463 98.7031 46.6087 99.3911 45.022C99.5045 44.6759 99.4996 44.3019 99.3769 43.9589C99.2543 43.616 99.021 43.3236 98.7138 43.1279C98.4272 42.9502 98.095 42.8596 97.7578 42.8671C97.4206 42.8746 97.0929 42.9799 96.8144 43.1702C96.5374 43.3617 96.2958 43.5998 96.1002 43.8739C95.4124 44.8581 94.7351 45.8474 94.0949 46.8632C93.9367 47.1531 93.8124 47.4603 93.7245 47.7786ZM103.566 49.4452C101.954 49.9705 100.444 50.7667 99.1001 51.7997C98.8278 52.044 98.6563 52.381 98.6192 52.7449C98.582 53.1088 98.6818 53.4735 98.899 53.7679C99.0659 54.0901 99.3435 54.3414 99.6808 54.4755C100.018 54.6097 100.392 54.6176 100.735 54.498C101.461 54.2482 102.168 53.9477 102.851 53.5986C103.594 53.2698 104.313 52.8915 105.005 52.4663C105.318 52.2825 105.559 51.9968 105.687 51.6569C105.815 51.317 105.822 50.9435 105.708 50.5986C105.423 49.7891 104.851 49.4135 103.544 49.4452H103.566ZM78.9259 97.0631C78.4677 97.0488 78.0224 97.2158 77.6866 97.5278C77.3507 97.8399 77.1516 98.2718 77.1323 98.7298C77.1681 99.209 77.3828 99.6572 77.7337 99.9855C78.0845 100.314 78.546 100.498 79.0265 100.502C79.4543 100.49 79.863 100.322 80.1758 100.03C80.4885 99.7375 80.6837 99.341 80.7248 98.9149C80.7341 98.6727 80.6944 98.4312 80.6082 98.2046C80.522 97.9781 80.3911 97.7712 80.2232 97.5964C80.0553 97.4216 79.8539 97.2824 79.631 97.1871C79.4081 97.0919 79.1683 97.0425 78.9259 97.042V97.0631ZM33.1756 31.0065C33.1812 30.7807 33.142 30.5561 33.0603 30.3456C32.9786 30.1351 32.856 29.9428 32.6996 29.78C32.5431 29.6172 32.356 29.4869 32.1489 29.3969C31.9418 29.3068 31.7189 29.2587 31.4931 29.2552C31.2698 29.2325 31.0442 29.2564 30.8306 29.3255C30.617 29.3946 30.4201 29.5074 30.2525 29.6566C30.0848 29.8059 29.95 29.9884 29.8566 30.1925C29.7632 30.3967 29.7133 30.618 29.7101 30.8425C29.6903 31.08 29.7201 31.3191 29.7976 31.5445C29.8751 31.7699 29.9986 31.9767 30.1603 32.1518C30.322 32.327 30.5183 32.4666 30.7368 32.5618C30.9554 32.657 31.1912 32.7057 31.4296 32.7049C31.8798 32.6899 32.3083 32.5075 32.6312 32.1934C32.9541 31.8794 33.1482 31.4561 33.1756 31.0065ZM75.8942 90.693C75.6691 90.683 75.4442 90.7183 75.2329 90.7967C75.0216 90.8751 74.8282 90.9949 74.6639 91.1493C74.4997 91.3036 74.3681 91.4893 74.2768 91.6953C74.1855 91.9014 74.1364 92.1237 74.1324 92.349C74.1179 92.8032 74.2822 93.2449 74.5899 93.5792C74.8975 93.9136 75.3241 94.114 75.7779 94.1373C76.0153 94.1458 76.2519 94.1066 76.474 94.0221C76.696 93.9376 76.8988 93.8094 77.0705 93.6451C77.2421 93.4809 77.3791 93.2839 77.4733 93.0658C77.5675 92.8478 77.6171 92.613 77.6191 92.3754C77.6229 92.1498 77.5805 91.9258 77.4946 91.7172C77.4087 91.5085 77.2811 91.3197 77.1196 91.1621C76.9581 91.0046 76.7661 90.8817 76.5554 90.801C76.3447 90.7203 76.1197 90.6835 75.8942 90.693ZM35.2338 34.181C35.2336 34.6186 35.4045 35.0389 35.71 35.3523C36.0154 35.6656 36.4312 35.8472 36.8686 35.8582C37.351 35.8185 37.8009 35.599 38.1291 35.2433C38.4574 34.8876 38.6401 34.4217 38.6411 33.9377C38.6113 33.5017 38.4151 33.0938 38.0931 32.7984C37.7711 32.503 37.3479 32.3426 36.911 32.3504C36.4498 32.3816 36.0182 32.5891 35.7059 32.93C35.3936 33.2708 35.2246 33.7188 35.2338 34.181ZM85.8252 97.1425C85.8386 96.7075 85.6785 96.285 85.3804 95.968C85.0822 95.651 84.6703 95.4654 84.2353 95.4521C83.8003 95.4388 83.3779 95.5988 83.0608 95.897C82.7438 96.1951 82.5583 96.607 82.5449 97.042C82.5383 97.2574 82.5742 97.4719 82.6505 97.6735C82.7268 97.875 82.8421 98.0595 82.9897 98.2165C83.1374 98.3735 83.3145 98.4998 83.5109 98.5883C83.7074 98.6768 83.9194 98.7258 84.1348 98.7324C84.3502 98.739 84.5648 98.7031 84.7663 98.6268C84.9678 98.5505 85.1524 98.4352 85.3093 98.2876C85.4663 98.1399 85.5926 97.9628 85.6812 97.7663C85.7697 97.5699 85.8186 97.3579 85.8252 97.1425ZM35.1809 22.6363C34.9659 22.6223 34.7502 22.6532 34.5478 22.7271C34.3454 22.8011 34.1607 22.9164 34.0054 23.0658C33.85 23.2151 33.7275 23.3952 33.6457 23.5946C33.5638 23.7939 33.5245 24.0082 33.5301 24.2236C33.5593 24.6278 33.7303 25.0087 34.013 25.2991C34.2956 25.5895 34.6718 25.7708 35.075 25.8109C35.505 25.8026 35.9147 25.6262 36.2163 25.3197C36.5179 25.0131 36.6875 24.6007 36.6888 24.1707C36.7067 23.9665 36.6803 23.7608 36.6114 23.5677C36.5425 23.3747 36.4327 23.1987 36.2895 23.052C36.1463 22.9053 35.9731 22.7913 35.7818 22.7177C35.5905 22.6441 35.3855 22.6128 35.1809 22.6257V22.6363Z" fill="white"/>
<path d="M80.8414 82.3282C76.7179 82.4711 72.7051 80.9782 69.6776 78.1749C66.8296 75.6009 65.1174 72.0034 64.9159 68.1698C64.2704 59.424 70.3866 51.858 78.7991 49.8052C81.1952 49.1661 83.7065 49.0885 86.1374 49.5785C88.5683 50.0686 90.8534 51.113 92.8147 52.6305C94.4209 53.8152 95.7696 55.3138 96.7792 57.0355C97.7887 58.7572 98.438 60.666 98.6876 62.6462C99.9891 71.1698 93.7194 80.1061 84.4022 82.0426C83.8902 82.1667 83.3706 82.2568 82.8467 82.3123C82.1853 82.36 81.5133 82.3282 80.8414 82.3282ZM80.7144 78.9156C85.8148 78.7939 89.7989 76.5824 92.8412 72.519C93.5396 71.5772 93.5449 70.8365 92.9152 69.81C90.3755 65.7015 89.3274 60.844 89.9471 56.0537C90.0356 55.7312 90.0046 55.3876 89.8597 55.0862C89.7148 54.7848 89.4659 54.5458 89.1587 54.4135C87.6345 53.5873 85.9554 53.0865 84.2276 52.9427C79.3071 52.5988 75.1537 54.2337 71.8998 57.9479C68.7835 61.4927 67.5613 65.6143 68.8311 70.2333C69.5683 72.7936 71.1358 75.0361 73.2871 76.6079C75.4384 78.1796 78.0512 78.9915 80.7144 78.9156Z" fill="#2F4077"/>
<path d="M36.0853 99.5651C35.3499 99.6074 34.6356 99.7079 33.9214 99.6921C33.2384 99.718 32.5727 99.4737 32.0686 99.0122C31.5645 98.5507 31.2626 97.9091 31.2283 97.2265C31.1278 95.9404 31.2008 94.6466 31.4452 93.38C32.3749 88.9905 34.3946 84.9056 37.3181 81.5019C37.3996 81.386 37.4722 81.2639 37.535 81.1368C37.408 80.6077 37.2652 80.1105 37.1753 79.5972C37.0176 78.8154 37.1106 78.0037 37.4413 77.2779C37.7719 76.5521 38.3232 75.9492 39.0165 75.555C39.698 75.1971 40.4676 75.0418 41.2346 75.1075C42.0015 75.1731 42.7336 75.4569 43.3444 75.9253C43.5349 76.0735 43.7148 76.2322 43.8735 76.3909C44.1181 76.6194 44.4238 76.772 44.7534 76.8302C45.083 76.8885 45.4225 76.8498 45.7306 76.7189C47.6087 76.1181 49.5827 75.8741 51.5506 75.9994C55.3727 76.145 59.0185 77.6453 61.8361 80.2321C64.1982 82.3071 65.8244 85.0916 66.4709 88.1685C67.023 90.4707 67.0186 92.8713 66.4583 95.1715C65.8979 97.4717 64.7977 99.6053 63.2487 101.396C59.4446 105.983 54.413 107.951 48.5348 107.359C46.2018 107.166 43.9415 106.454 41.9199 105.274C39.8983 104.094 38.1668 102.476 36.8525 100.539C36.6567 100.263 36.4769 99.983 36.2758 99.7132C36.2209 99.6537 36.1565 99.6037 36.0853 99.5651ZM50.8469 79.4597C46.7465 79.3221 42.5137 81.6448 40.2387 84.6288C39.2196 85.9532 38.4905 87.4772 38.0985 89.1016C37.7065 90.7261 37.6604 92.4147 37.9632 94.0582C38.2661 95.7016 38.911 97.263 39.8563 98.641C40.8016 100.019 42.0261 101.183 43.4503 102.057C45.9053 103.565 48.7872 104.227 51.6542 103.94C54.5213 103.654 57.2152 102.434 59.3229 100.47C62.8149 97.2 64.1747 93.1895 62.9578 88.4753C62.2299 85.8389 60.6437 83.5204 58.4503 81.8866C56.2569 80.2528 53.5814 79.3969 50.8469 79.4544V79.4597Z" fill="#2F4077"/>
<path d="M62.9207 56.9154C62.6614 62.127 59.8467 67.4972 53.6775 70.6188C47.6459 73.6558 41.6937 72.9362 36.3446 68.8729C30.7627 64.6402 28.44 58.8202 29.2442 51.9103C30.1437 44.265 35.5245 38.5032 43.0005 37.2175C47.6618 36.4133 51.958 37.6409 55.741 40.4979C60.3335 43.9793 63.0212 49.5453 62.9207 56.9154ZM46.7412 68.8676C50.7887 68.6718 54.3442 66.9999 56.8415 63.365C58.8139 60.5426 59.6697 57.0891 59.2436 53.6722C59.0466 51.3177 58.2837 49.0457 57.0198 47.0494C55.7559 45.0532 54.0285 43.3919 51.9845 42.2069C51.6141 41.943 51.174 41.7942 50.7195 41.7791C50.2649 41.7641 49.816 41.8834 49.4289 42.1222C48.3038 42.7595 47.1066 43.2604 45.8629 43.6143C44.0587 44.064 42.1911 44.2756 40.3445 44.5507C39.3603 44.747 38.3588 44.8445 37.3552 44.8417C36.9321 44.8025 36.5068 44.8872 36.1311 45.0854C35.7553 45.2836 35.4453 45.5868 35.2388 45.9581C33.5332 48.4243 32.6257 51.3546 32.639 54.3531C32.6522 57.3516 33.5856 60.2738 35.3129 62.7249C37.9742 66.6031 41.6725 68.7194 46.7412 68.8676Z" fill="#2F4077"/>
<path d="M71.5346 11.7631C72.688 9.6468 74.5821 8.70507 76.2964 9.36113C78.0794 10.0542 78.6138 11.5304 77.9841 14.1864C79.7989 15.3989 81.3255 16.9948 82.4563 18.8616C83.5872 20.7283 84.2947 22.8204 84.529 24.9903C84.8779 27.6308 84.5425 30.3166 83.555 32.7902C82.5674 35.2637 80.9608 37.4421 78.8893 39.1163C76.8178 40.7904 74.351 41.9042 71.7252 42.3509C69.0995 42.7976 66.4031 42.5621 63.8946 41.6671C56.6937 39.0216 53.7625 32.1752 54.0747 26.4294C54.2247 23.5832 55.1646 20.8351 56.7889 18.4931C58.4087 16.1401 60.6368 14.2709 63.2355 13.0848C65.8343 11.8986 68.7063 11.44 71.5452 11.7578L71.5346 11.7631ZM79.8466 21.5671C79.0701 21.7417 78.2627 21.722 77.4957 21.5097C76.7287 21.2974 76.026 20.8991 75.4499 20.3502C74.6492 19.595 73.9195 18.768 73.27 17.8794C73.0936 17.6246 72.8432 17.4302 72.5527 17.3223C72.2622 17.2144 71.9456 17.1984 71.6457 17.2762C70.5652 17.484 69.4703 17.6078 68.3707 17.6466C67.3125 17.6466 66.2014 17.6466 65.3072 17.0223C64.413 16.398 63.72 16.689 62.9687 17.2233C60.7881 18.7077 59.1435 20.8547 58.2782 23.3465C57.413 25.8384 57.3731 28.5426 58.1645 31.0589C58.8462 33.2555 60.173 35.1962 61.9724 36.6285C63.7719 38.0609 65.9607 38.9187 68.2543 39.0904C73.1589 39.3814 76.926 37.281 79.4021 33.08C81.5608 29.3976 81.6878 25.5511 79.8466 21.5671Z" fill="#2F4077"/>
<path d="M17.2234 64.418C16.8107 64.3661 16.4023 64.2848 16.0012 64.1747C15.6486 64.0909 15.3334 63.893 15.1047 63.6117C14.8761 63.3305 14.7467 62.9815 14.7367 62.6192C14.7118 62.2332 14.8286 61.8514 15.0654 61.5455C15.3021 61.2396 15.6424 61.0306 16.0224 60.9579C16.4841 60.841 16.9587 60.7824 17.435 60.7833C19.494 60.8293 21.5518 60.6519 23.5725 60.2543C23.9725 60.1615 24.3923 60.2092 24.7613 60.3893C25.1303 60.5695 25.4261 60.8711 25.5989 61.2436C25.7643 61.6492 25.7681 62.1026 25.6097 62.5109C25.4513 62.9192 25.1426 63.2514 24.747 63.4393C24.0108 63.7774 23.2246 63.9936 22.4191 64.0794C20.8001 64.2646 19.1704 64.3069 17.2234 64.418Z" fill="#2F4077"/>
<path d="M21.8849 73.344C20.3611 73.3016 19.5674 72.0054 20.1971 70.8837C20.4519 70.4834 20.7914 70.1439 21.1917 69.8891C22.5621 68.9209 23.9589 67.9897 25.3451 67.0479C25.5391 66.9079 25.7464 66.7874 25.9641 66.6882C26.3107 66.5177 26.7049 66.4703 27.082 66.554C27.459 66.6377 27.7963 66.8474 28.0382 67.1485C28.2574 67.4603 28.3706 67.8343 28.3611 68.2154C28.3516 68.5964 28.2198 68.9643 27.9852 69.2648C27.6799 69.6403 27.3237 69.9715 26.927 70.2489C25.5832 71.1695 24.2234 72.0671 22.8478 72.9419C22.5444 73.1147 22.2211 73.2497 21.8849 73.344Z" fill="#2F4077"/>
<path d="M93.7246 47.778C93.8117 47.456 93.9361 47.1453 94.095 46.8521C94.7352 45.8362 95.4125 44.8468 96.1003 43.8627C96.2959 43.5886 96.5375 43.3505 96.8145 43.159C97.093 42.9687 97.4207 42.8634 97.7579 42.8559C98.0951 42.8484 98.4273 42.939 98.7139 43.1167C99.0211 43.3124 99.2544 43.6048 99.377 43.9478C99.4997 44.2907 99.5046 44.6647 99.3912 45.0108C98.7032 46.5975 97.7131 48.0351 96.4759 49.2435C96.2375 49.4892 95.9221 49.6458 95.5822 49.6872C95.2424 49.7286 94.8986 49.6523 94.6082 49.471C94.0209 49.143 93.7722 48.6139 93.7246 47.778Z" fill="#2F4077"/>
<path d="M103.544 49.4452C104.83 49.4135 105.402 49.7892 105.661 50.5987C105.775 50.9435 105.767 51.3171 105.639 51.657C105.511 51.9969 105.27 52.2826 104.957 52.4664C104.265 52.8916 103.546 53.2699 102.804 53.5986C102.12 53.9478 101.413 54.2483 100.687 54.4981C100.345 54.6177 99.9704 54.6097 99.6332 54.4756C99.2959 54.3415 99.0184 54.0902 98.8514 53.7679C98.6342 53.4736 98.5344 53.1089 98.5716 52.7449C98.6088 52.381 98.7802 52.044 99.0525 51.7997C100.404 50.7641 101.924 49.9677 103.544 49.4452Z" fill="#2F4077"/>
<path d="M78.9259 97.0419C79.1642 97.0426 79.4 97.0905 79.6197 97.1828C79.8393 97.2751 80.0386 97.4099 80.2058 97.5796C80.3731 97.7494 80.505 97.9505 80.5941 98.1715C80.6832 98.3925 80.7276 98.629 80.7249 98.8672C80.6838 99.2933 80.4885 99.6897 80.1758 99.9819C79.8631 100.274 79.4544 100.442 79.0265 100.454C78.546 100.45 78.0845 100.266 77.7337 99.9377C77.3828 99.6094 77.1681 99.1612 77.1323 98.682C77.1583 98.2287 77.3604 97.8035 77.6955 97.4971C78.0306 97.1907 78.4721 97.0274 78.9259 97.0419Z" fill="#2F4077"/>
<path d="M33.1756 31.0067C33.1546 31.461 32.9633 31.8908 32.6397 32.2104C32.3162 32.53 31.8841 32.7161 31.4296 32.7316C31.1912 32.7324 30.9553 32.6836 30.7368 32.5884C30.5183 32.4932 30.322 32.3536 30.1603 32.1785C29.9986 32.0034 29.8751 31.7965 29.7976 31.5711C29.7201 31.3457 29.6902 31.1066 29.71 30.8691C29.7133 30.6446 29.7632 30.4233 29.8566 30.2191C29.95 30.015 30.0848 29.8325 30.2524 29.6832C30.4201 29.5339 30.617 29.4212 30.8305 29.3521C31.0441 29.283 31.2697 29.259 31.4931 29.2818C31.9445 29.2888 32.3748 29.4741 32.69 29.7973C33.0053 30.1204 33.1798 30.5552 33.1756 31.0067Z" fill="#2F4077"/>
<path d="M75.8941 90.693C76.1195 90.6836 76.3445 90.7204 76.5552 90.8011C76.7659 90.8818 76.9579 91.0046 77.1195 91.1622C77.281 91.3198 77.4086 91.5086 77.4944 91.7172C77.5803 91.9259 77.6227 92.1499 77.6189 92.3755C77.6169 92.6131 77.5674 92.8479 77.4731 93.0659C77.3789 93.284 77.2419 93.481 77.0703 93.6452C76.8987 93.8095 76.6958 93.9377 76.4738 94.0222C76.2518 94.1067 76.0151 94.1459 75.7777 94.1374C75.3239 94.1141 74.8974 93.9137 74.5897 93.5793C74.282 93.245 74.1178 92.8033 74.1322 92.3491C74.1362 92.1238 74.1853 91.9015 74.2766 91.6954C74.3679 91.4894 74.4996 91.3037 74.6638 91.1493C74.828 90.995 75.0215 90.8751 75.2328 90.7968C75.4441 90.7184 75.6689 90.6831 75.8941 90.693Z" fill="#2F4077"/>
<path d="M35.2335 34.1813C35.2284 33.7218 35.3993 33.2778 35.7112 32.9403C36.0231 32.6028 36.4523 32.3975 36.9107 32.3665C37.3477 32.3587 37.7709 32.519 38.0929 32.8145C38.4149 33.1099 38.611 33.5178 38.6408 33.9538C38.6398 34.4378 38.4571 34.9038 38.1288 35.2595C37.8006 35.6152 37.3507 35.8347 36.8684 35.8745C36.4282 35.8634 36.01 35.6796 35.7041 35.3628C35.3982 35.046 35.2292 34.6216 35.2335 34.1813Z" fill="#2F4077"/>
<path d="M85.825 97.1316C85.8184 97.347 85.7695 97.5589 85.6809 97.7554C85.5924 97.9519 85.4661 98.129 85.3091 98.2767C85.1522 98.4243 84.9676 98.5395 84.7661 98.6159C84.5646 98.6922 84.35 98.7281 84.1346 98.7215C83.9192 98.7149 83.7072 98.6659 83.5107 98.5774C83.3143 98.4889 83.1372 98.3625 82.9895 98.2056C82.8419 98.0486 82.7266 97.8641 82.6503 97.6625C82.574 97.461 82.5381 97.2465 82.5447 97.0311C82.558 96.5961 82.7436 96.1842 83.0606 95.8861C83.3776 95.5879 83.8001 95.4279 84.2351 95.4412C84.6701 95.4545 85.082 95.6401 85.3802 95.9571C85.6783 96.2741 85.8384 96.6966 85.825 97.1316Z" fill="#2F4077"/>
<path d="M35.1808 22.6254C35.3835 22.6127 35.5865 22.6436 35.7762 22.716C35.966 22.7883 36.138 22.9004 36.2809 23.0448C36.4237 23.1891 36.534 23.3623 36.6043 23.5528C36.6746 23.7432 36.7034 23.9466 36.6887 24.1491C36.6874 24.5791 36.5178 24.9915 36.2162 25.2981C35.9146 25.6046 35.5049 25.7809 35.075 25.7892C34.6717 25.7491 34.2956 25.5679 34.0129 25.2775C33.7303 24.9871 33.5593 24.6062 33.5301 24.202C33.526 23.9874 33.5664 23.7744 33.6489 23.5763C33.7314 23.3783 33.8541 23.1994 34.0092 23.0512C34.1644 22.903 34.3487 22.7887 34.5503 22.7154C34.752 22.6421 34.9667 22.6114 35.1808 22.6254Z" fill="#2F4077"/>
<path d="M80.7139 78.915C78.0473 78.9893 75.4318 78.1736 73.2801 76.5967C71.1284 75.0198 69.5629 72.7714 68.8306 70.2062C67.5608 65.5873 68.783 61.4657 71.8993 57.9208C75.1532 54.2172 79.3066 52.5717 84.2271 52.9156C85.9549 53.0595 87.634 53.5603 89.1582 54.3865C89.4654 54.5188 89.7143 54.7577 89.8592 55.0591C90.0041 55.3605 90.0351 55.7042 89.9466 56.0267C89.3269 60.8169 90.375 65.6744 92.9147 69.7829C93.5444 70.8094 93.5391 71.5501 92.8407 72.4919C89.7878 76.5817 85.8143 78.7722 80.7139 78.915ZM70.8941 68.0581C71.0158 68.8094 71.0739 69.5766 71.2697 70.312C71.4573 71.069 71.8205 71.7712 72.3298 72.3617C72.8392 72.9523 73.4804 73.4147 74.2017 73.7114C74.9229 74.0081 75.7038 74.1309 76.4813 74.0698C77.2588 74.0087 78.011 73.7654 78.677 73.3596C80.2192 72.3799 81.4923 71.0304 82.3806 69.4337C82.5348 69.2015 82.6403 68.9404 82.6908 68.6663C82.7414 68.3921 82.7358 68.1105 82.6745 67.8385C82.6132 67.5666 82.4973 67.3099 82.3341 67.0839C82.1708 66.8579 81.9635 66.6674 81.7245 66.5238C81.3012 66.2116 80.8145 65.9947 80.3595 65.7248C78.9891 64.9206 77.6294 64.1005 76.7722 62.6985C76.5447 62.3281 76.3649 61.9366 76.1162 61.5821C76.0037 61.3812 75.8501 61.2063 75.6654 61.0688C75.4806 60.9314 75.269 60.8345 75.0442 60.7846C74.8194 60.7346 74.5866 60.7327 74.3611 60.779C74.1355 60.8252 73.9222 60.9186 73.7353 61.053C73.2109 61.3894 72.7768 61.849 72.4708 62.3916C71.5686 64.1549 71.0323 66.0823 70.8941 68.0581ZM83.116 63.1112C83.3553 63.13 83.596 63.0995 83.8231 63.0217C84.0502 62.9439 84.259 62.8204 84.4365 62.6587C84.614 62.4971 84.7564 62.3008 84.8551 62.082C84.9538 61.8631 85.0065 61.6264 85.0101 61.3863C84.9722 60.9302 84.7701 60.5034 84.4411 60.1852C84.1122 59.8669 83.6789 59.679 83.2218 59.6562C82.7652 59.6873 82.3338 59.8765 82.0016 60.1913C81.6694 60.5061 81.4573 60.9268 81.4018 61.381C81.4018 61.8372 81.5819 62.2748 81.9029 62.5988C82.2239 62.9228 82.6599 63.107 83.116 63.1112ZM80.1372 57.9579C80.1315 57.5732 79.9815 57.2047 79.7169 56.9254C79.4523 56.6461 79.0925 56.4765 78.7087 56.45C77.7828 56.45 76.9045 57.2013 76.878 57.9473C76.8868 58.3574 77.0505 58.7489 77.3361 59.0434C77.6217 59.3378 78.0081 59.5132 78.4177 59.5345C78.8522 59.5436 79.2734 59.3848 79.5938 59.0911C79.9141 58.7974 80.1087 58.3915 80.1372 57.9579Z" fill="white"/>
<path d="M50.8469 79.4544C53.5791 79.4023 56.2508 80.2619 58.4401 81.8974C60.6294 83.5329 62.2115 85.8511 62.9365 88.4859C64.1534 93.2001 62.7937 97.2106 59.3017 100.48C57.194 102.445 54.5001 103.664 51.633 103.951C48.766 104.237 45.8841 103.576 43.429 102.068C42.0049 101.193 40.7804 100.03 39.8352 98.6515C38.8899 97.2735 38.2448 95.7121 37.942 94.0687C37.6392 92.4253 37.6852 90.7366 38.0773 89.1122C38.4693 87.4877 39.1985 85.9638 40.2175 84.6394C42.5137 81.6395 46.7464 79.301 50.8469 79.4544ZM56.8573 87.3536C56.8371 86.8589 56.7858 86.3659 56.7039 85.8775C56.4711 84.7294 55.8256 84.2321 54.8203 84.3379C53.8151 84.4437 53.3865 85.031 53.3283 86.1262C53.3283 86.6024 53.3283 87.0838 53.3283 87.56C53.3393 88.6754 53.0467 89.7727 52.4817 90.7345C52.3296 91.087 52.0594 91.3755 51.7176 91.5503C51.3757 91.7251 50.9836 91.7753 50.6087 91.6922C49.5596 91.5795 48.5592 91.1906 47.7094 90.5652C47.2916 90.2468 46.8411 89.9736 46.3655 89.7504C46.0754 89.6268 45.7537 89.5975 45.446 89.6669C45.1383 89.7362 44.8603 89.9005 44.6512 90.1366C44.3927 90.3578 44.2196 90.6623 44.1616 90.9974C44.1037 91.3326 44.1646 91.6775 44.3338 91.9726C44.6565 92.4981 45.0642 92.9665 45.5401 93.3588C46.9051 94.5016 48.54 94.9143 50.3019 95.1789C51.2203 95.3669 52.1741 95.2735 53.0387 94.9111C53.9033 94.5486 54.6385 93.9339 55.1484 93.1472C56.3511 91.4621 56.953 89.4218 56.8573 87.3536ZM43.519 86.3537C43.5162 86.58 43.5587 86.8047 43.6442 87.0143C43.7296 87.2239 43.8563 87.4143 44.0166 87.5741C44.1769 87.7339 44.3676 87.86 44.5775 87.9448C44.7874 88.0296 45.0122 88.0715 45.2385 88.0679C45.7191 88.0449 46.1725 87.8383 46.5052 87.4908C46.838 87.1433 47.0247 86.6814 47.0269 86.2003C47.0024 85.7689 46.813 85.3635 46.4978 85.068C46.1826 84.7725 45.7658 84.6096 45.3337 84.613C45.0956 84.5879 44.8549 84.615 44.6283 84.6926C44.4018 84.7701 44.1949 84.8961 44.0221 85.0619C43.8493 85.2276 43.7147 85.4291 43.6278 85.6522C43.5409 85.8753 43.5038 86.1147 43.519 86.3537ZM50.0162 85.0098C50.2304 85.0142 50.4433 84.9751 50.6421 84.8949C50.8408 84.8148 51.0213 84.6952 51.1726 84.5434C51.3239 84.3916 51.4429 84.2108 51.5224 84.0118C51.6019 83.8128 51.6403 83.5997 51.6352 83.3855C51.6151 82.9316 51.4307 82.5005 51.1163 82.1724C50.8019 81.8444 50.3789 81.6418 49.9263 81.6025C49.4701 81.6215 49.0388 81.816 48.7224 82.1452C48.406 82.4744 48.2288 82.913 48.2278 83.3696C48.2324 83.5964 48.2828 83.82 48.3762 84.0267C48.4696 84.2334 48.6039 84.4191 48.7711 84.5724C48.9383 84.7257 49.1348 84.8435 49.3488 84.9187C49.5628 84.9939 49.7898 85.0249 50.0162 85.0098Z" fill="white"/>
<path d="M46.7413 68.868C41.6726 68.7199 37.9743 66.6088 35.2971 62.7253C33.5698 60.2743 32.6364 57.3521 32.6232 54.3536C32.6099 51.3551 33.5174 48.4247 35.223 45.9585C35.4295 45.5873 35.7395 45.2841 36.1153 45.0859C36.4911 44.8876 36.9164 44.803 37.3394 44.8422C38.343 44.845 39.3445 44.7475 40.3288 44.5512C42.1753 44.276 44.0323 44.0645 45.8471 43.6147C47.0909 43.2609 48.288 42.76 49.4132 42.1227C49.8002 41.8839 50.2492 41.7645 50.7037 41.7796C51.1583 41.7946 51.5983 41.9435 51.9687 42.2073C54.0127 43.3924 55.7401 45.0537 57.004 47.0499C58.2679 49.0461 59.0308 51.3182 59.2278 53.6727C59.654 57.0895 58.7981 60.543 56.8257 63.3655C54.339 67.0003 50.7888 68.6723 46.7413 68.868ZM53.5295 56.0112C53.4321 55.3581 53.2817 54.714 53.0798 54.0853C52.9416 53.7349 52.6874 53.4425 52.3595 53.2569C52.0317 53.0714 51.6501 53.004 51.2785 53.0659C50.907 53.1278 50.5678 53.3153 50.3179 53.5972C50.0679 53.879 49.9223 54.2381 49.9052 54.6144C49.8629 54.9424 49.937 55.2916 49.8682 55.6144C49.6844 56.7409 49.4209 57.853 49.0799 58.9423C48.736 59.8947 48.0217 60.0693 47.0905 59.646C46.1599 59.2337 45.4271 58.4743 45.0482 57.5297C44.7625 56.826 44.572 56.08 44.3233 55.3604C44.2225 54.9352 43.9691 54.5618 43.6111 54.3112C43.2532 54.0605 42.8157 53.95 42.3816 54.0007C41.9475 54.0566 41.5481 54.2671 41.2565 54.5936C40.965 54.9201 40.8009 55.3408 40.7944 55.7784C40.7876 56.0637 40.8287 56.348 40.916 56.6196C41.5298 58.9582 42.6303 60.937 44.6937 62.3549C47.5773 64.3231 51.0428 63.4131 52.4766 60.2386C53.0339 58.8927 53.3887 57.4717 53.5295 56.0218V56.0112ZM41.2653 50.4664C41.2593 50.7065 41.3026 50.9453 41.3925 51.168C41.4825 51.3907 41.6172 51.5926 41.7883 51.7612C41.9593 51.9298 42.1632 52.0615 42.3872 52.1482C42.6112 52.2349 42.8506 52.2748 43.0906 52.2653C44.2228 52.2335 44.9635 51.6992 45.0482 50.6092C45.0617 50.3581 45.0225 50.1068 44.9332 49.8717C44.8439 49.6365 44.7064 49.4226 44.5295 49.2438C44.3526 49.0649 44.1403 48.925 43.9062 48.8331C43.672 48.7411 43.4213 48.6991 43.17 48.7098C42.6905 48.712 42.2292 48.8935 41.8768 49.2185C41.5243 49.5436 41.3062 49.9887 41.2653 50.4664ZM49.2915 51.5245C49.518 51.5324 49.7438 51.4945 49.9553 51.4132C50.1668 51.3319 50.3598 51.2088 50.5228 51.0513C50.6857 50.8937 50.8152 50.7051 50.9037 50.4964C50.9921 50.2877 51.0376 50.0634 51.0375 49.8368C50.9825 49.4091 50.7859 49.0121 50.479 48.7091C50.1722 48.4061 49.7728 48.2145 49.3444 48.1649C49.1176 48.1482 48.8897 48.1783 48.6749 48.2533C48.4602 48.3283 48.2632 48.4465 48.096 48.6008C47.9288 48.7551 47.7951 48.942 47.7032 49.15C47.6112 49.3581 47.5629 49.5828 47.5614 49.8103C47.557 50.038 47.5989 50.2641 47.6845 50.4752C47.7701 50.6862 47.8976 50.8776 48.0594 51.0379C48.2211 51.1982 48.4137 51.3239 48.6255 51.4076C48.8373 51.4912 49.0639 51.531 49.2915 51.5245Z" fill="white"/>
<path d="M79.8464 21.567C81.6876 25.551 81.5606 29.3975 79.402 33.064C76.9258 37.2649 73.1587 39.3654 68.2541 39.0744C65.9625 38.9039 63.7751 38.0484 61.9759 36.6191C60.1767 35.1897 58.8487 33.2524 58.1643 31.0588C57.3729 28.5425 57.4128 25.8383 58.2781 23.3464C59.1433 20.8546 60.788 18.7076 62.9685 17.2232C63.741 16.6942 64.4023 16.4137 65.307 17.0222C66.2118 17.6306 67.3229 17.6623 68.3705 17.6465C69.4701 17.6077 70.565 17.4839 71.6455 17.2761C71.9454 17.1983 72.2621 17.2143 72.5526 17.3222C72.843 17.4301 73.0934 17.6246 73.2698 17.8793C73.9193 18.7679 74.649 19.5949 75.4497 20.3501C76.0258 20.899 76.7285 21.2973 77.4955 21.5096C78.2625 21.7219 79.07 21.7416 79.8464 21.567ZM67.598 35.9158C67.7231 35.9245 67.8486 35.9245 67.9737 35.9158C68.1588 35.8787 68.344 35.8311 68.5028 35.7835C70.8625 35.1909 71.9683 33.3497 72.8624 31.3445C72.9962 31.0288 73.0241 30.6784 72.9421 30.3455C72.86 30.0127 72.6725 29.7154 72.4074 29.498C72.2154 29.3155 71.9846 29.1788 71.7324 29.0978C71.4801 29.0169 71.2129 28.9939 70.9506 29.0305C70.6882 29.0671 70.4375 29.1624 70.2171 29.3093C69.9966 29.4562 69.8121 29.6509 69.6773 29.8789C69.2487 30.5085 68.8995 31.2069 68.4181 31.7942C68.3101 31.9565 68.1658 32.0915 67.9966 32.1883C67.8274 32.2851 67.6379 32.3411 67.4433 32.3519C67.2486 32.3627 67.0541 32.3279 66.8752 32.2504C66.6964 32.1729 66.538 32.0548 66.4128 31.9053C66.0942 31.6138 65.8323 31.2658 65.6404 30.8789C65.3335 30.2387 65.1113 29.5509 64.8467 28.8842C64.7105 28.498 64.449 28.1684 64.1039 27.9479C63.7587 27.7274 63.3498 27.6287 62.942 27.6674C62.5113 27.736 62.1212 27.9614 61.8468 28.3004C61.5723 28.6393 61.4328 29.0677 61.4553 29.5033C61.4489 29.7888 61.4827 30.0737 61.5558 30.3498C61.9153 31.6996 62.5653 32.9547 63.4605 34.027C64.5663 35.265 66.069 35.72 67.598 35.9158ZM71.127 23.0061C70.6861 23.0377 70.2742 23.2374 69.9763 23.564C69.6784 23.8905 69.5172 24.319 69.526 24.761C69.5348 25.2029 69.713 25.6245 70.0237 25.9389C70.3344 26.2533 70.754 26.4364 71.1958 26.4504C71.6264 26.4421 72.039 26.2757 72.355 25.9831C72.6711 25.6905 72.8686 25.2919 72.91 24.8632C72.916 24.3791 72.7332 23.9117 72.4003 23.5601C72.0675 23.2084 71.6107 23.0003 71.127 22.9797V23.0061ZM66.3282 23.9003C66.3376 23.5605 66.2448 23.2257 66.0619 22.9393C65.8789 22.6528 65.6143 22.4277 65.3021 22.2933C64.9899 22.1589 64.6445 22.1213 64.3107 22.1853C63.9768 22.2494 63.6699 22.412 63.4295 22.6524C63.1892 22.8927 63.0265 23.1997 62.9625 23.5335C62.8985 23.8673 62.9361 24.2127 63.0705 24.5249C63.2049 24.8371 63.4299 25.1017 63.7164 25.2847C64.0029 25.4676 64.3377 25.5604 64.6775 25.551C65.1138 25.5324 65.5269 25.3489 65.8333 25.0376C66.1397 24.7263 66.3165 24.3104 66.3282 23.8738V23.9003Z" fill="white"/>
<path d="M70.894 68.0584C71.0492 66.0846 71.6017 64.1626 72.5183 62.4077C72.8244 61.865 73.2585 61.4055 73.7828 61.0691C73.9698 60.9347 74.1831 60.8413 74.4086 60.7951C74.6342 60.7488 74.867 60.7507 75.0917 60.8006C75.3165 60.8506 75.5282 60.9474 75.7129 61.0849C75.8977 61.2223 76.0513 61.3973 76.1637 61.5982C76.4124 61.9527 76.5923 62.3442 76.8198 62.7146C77.6769 64.1167 79.0367 64.9367 80.407 65.741C80.8621 66.0108 81.3488 66.2277 81.7721 66.5399C82.011 66.6835 82.2184 66.8741 82.3817 67.1001C82.545 67.326 82.6607 67.5827 82.7221 67.8547C82.7834 68.1266 82.7889 68.4082 82.7384 68.6824C82.6879 68.9565 82.5823 69.2176 82.4281 69.4499C81.5399 71.0466 80.2668 72.3961 78.7245 73.3758C78.0585 73.7816 77.3064 74.0248 76.5289 74.086C75.7514 74.1471 74.9704 74.0243 74.2492 73.7276C73.528 73.4308 72.8868 72.9685 72.3775 72.3779C71.8681 71.7874 71.5049 71.0852 71.3173 70.3282C71.0739 69.5769 71.0157 68.8097 70.894 68.0584ZM74.9733 66.2648C74.5502 67.2694 74.4739 68.3864 74.7563 69.4393C74.9839 70.471 75.9627 70.8202 76.9045 70.307C77.57 69.9591 78.102 69.4011 78.4177 68.7197L74.9733 66.2648Z" fill="#2F4077"/>
<path d="M83.1161 63.111C82.66 63.1069 82.224 62.9227 81.903 62.5987C81.5819 62.2747 81.4018 61.8371 81.4019 61.381C81.4574 60.9268 81.6695 60.5061 82.0017 60.1913C82.3338 59.8765 82.7653 59.6873 83.2219 59.6562C83.679 59.679 84.1123 59.867 84.4412 60.1852C84.7701 60.5034 84.9723 60.9302 85.0102 61.3863C85.0066 61.6263 84.9539 61.8631 84.8552 62.0819C84.7565 62.3008 84.6141 62.497 84.4366 62.6586C84.2591 62.8203 84.0503 62.9438 83.8232 63.0216C83.5961 63.0994 83.3554 63.1299 83.1161 63.111Z" fill="#2F4077"/>
<path d="M80.1376 57.9582C80.1117 58.3937 79.9182 58.8023 79.5976 59.0982C79.277 59.3941 78.8543 59.5544 78.4181 59.5454C78.0085 59.5241 77.6221 59.3487 77.3365 59.0543C77.0509 58.7598 76.8872 58.3683 76.8784 57.9582C76.9049 57.2122 77.7832 56.4874 78.7091 56.4609C79.0911 56.4873 79.4495 56.6555 79.7138 56.9325C79.9781 57.2096 80.1293 57.5754 80.1376 57.9582Z" fill="#2F4077"/>
<path d="M56.8577 87.3539C56.9489 89.4124 56.3493 91.4424 55.1541 93.121C54.6443 93.9077 53.909 94.5225 53.0444 94.8849C52.1798 95.2474 51.2261 95.3407 50.3076 95.1527C48.5616 94.8882 46.9267 94.4755 45.5458 93.3327C45.0699 92.9404 44.6622 92.472 44.3395 91.9464C44.1703 91.6513 44.1094 91.3064 44.1674 90.9712C44.2253 90.636 44.3985 90.3316 44.6569 90.1105C44.866 89.8744 45.144 89.7099 45.4517 89.6406C45.7594 89.5713 46.081 89.6005 46.3712 89.7242C46.8467 89.9474 47.2973 90.2205 47.7151 90.539C48.5649 91.1644 49.5654 91.5532 50.6145 91.666C50.9893 91.7491 51.3814 91.6989 51.7233 91.5242C52.0651 91.3494 52.3353 91.0609 52.4874 90.7084C53.0524 89.7466 53.345 88.6492 53.334 87.5338C53.334 87.0576 53.2864 86.5761 53.334 86.0999C53.3922 85.0047 53.9001 84.4121 54.826 84.3116C55.7519 84.2111 56.4768 84.7031 56.7096 85.8513C56.7909 86.3485 56.8404 86.8504 56.8577 87.3539Z" fill="#2F4077"/>
<path d="M43.5191 86.3544C43.5004 86.1127 43.5353 85.8699 43.6214 85.6433C43.7074 85.4167 43.8425 85.2119 44.0169 85.0436C44.1913 84.8753 44.4007 84.7475 44.6302 84.6696C44.8597 84.5916 45.1035 84.5652 45.3444 84.5924C45.7764 84.589 46.1932 84.752 46.5084 85.0475C46.8236 85.343 47.013 85.7484 47.0374 86.1798C47.0353 86.6609 46.8486 87.1229 46.5158 87.4704C46.1831 87.8179 45.7297 88.0245 45.2491 88.0476C45.0237 88.0525 44.7995 88.0123 44.5898 87.9294C44.3801 87.8466 44.1891 87.7226 44.0279 87.5649C43.8668 87.4072 43.7387 87.2189 43.6513 87.011C43.5639 86.8031 43.519 86.5799 43.5191 86.3544Z" fill="#2F4077"/>
<path d="M50.0163 85.0097C49.79 85.0248 49.563 84.9937 49.349 84.9186C49.135 84.8434 48.9384 84.7256 48.7713 84.5723C48.6041 84.419 48.4698 84.2333 48.3764 84.0266C48.283 83.8199 48.2325 83.5963 48.228 83.3696C48.229 82.913 48.4062 82.4744 48.7226 82.1452C49.039 81.816 49.4702 81.6216 49.9264 81.6025C50.3791 81.6419 50.802 81.8445 51.1164 82.1725C51.4308 82.5005 51.6153 82.9316 51.6354 83.3855C51.6404 83.5997 51.6021 83.8127 51.5226 84.0117C51.443 84.2107 51.324 84.3915 51.1728 84.5433C51.0215 84.695 50.841 84.8146 50.6423 84.8948C50.4435 84.9749 50.2306 85.014 50.0163 85.0097Z" fill="#2F4077"/>
<path d="M53.5297 56.0215C53.3857 57.4663 53.0292 58.8818 52.4715 60.2224C51.0536 63.3969 47.5722 64.3175 44.6887 62.3387C42.6252 60.9208 41.5141 58.942 40.911 56.6035C40.8236 56.3318 40.7825 56.0475 40.7893 55.7623C40.7959 55.3246 40.96 54.904 41.2515 54.5775C41.543 54.251 41.9424 54.0405 42.3766 53.9845C42.8106 53.9339 43.2482 54.0443 43.6061 54.295C43.9641 54.5457 44.2175 54.919 44.3183 55.3443C44.567 56.0638 44.7575 56.8098 45.0432 57.5135C45.4221 58.4581 46.1549 59.2175 47.0855 59.6298C48.0061 60.0531 48.7309 59.8785 49.0748 58.9262C49.4159 57.8368 49.6793 56.7247 49.8632 55.5982C49.932 55.2755 49.8631 54.9263 49.9002 54.5983C49.9172 54.222 50.063 53.8629 50.3129 53.5811C50.5628 53.2992 50.9019 53.1117 51.2735 53.0497C51.6451 52.9878 52.0266 53.0552 52.3545 53.2408C52.6823 53.4263 52.9365 53.7188 53.0747 54.0692C53.2798 54.7064 53.432 55.3593 53.5297 56.0215Z" fill="#2F4077"/>
<path d="M41.2652 50.4662C41.3061 49.9885 41.5242 49.5434 41.8767 49.2183C42.2291 48.8933 42.6904 48.7118 43.1699 48.7096C43.4212 48.6989 43.672 48.7409 43.9061 48.8329C44.1403 48.9248 44.3526 49.0647 44.5294 49.2436C44.7063 49.4225 44.8438 49.6364 44.9332 49.8715C45.0225 50.1067 45.0616 50.3579 45.0481 50.6091C44.9635 51.6991 44.2228 52.2335 43.0905 52.2652C42.8505 52.2747 42.6111 52.2348 42.3871 52.1481C42.1631 52.0614 41.9593 51.9297 41.7882 51.7611C41.6171 51.5925 41.4825 51.3906 41.3925 51.1679C41.3025 50.9451 41.2592 50.7064 41.2652 50.4662Z" fill="#2F4077"/>
<path d="M49.2915 51.5242C49.0639 51.5307 48.8373 51.4909 48.6255 51.4073C48.4137 51.3236 48.2211 51.1978 48.0594 51.0376C47.8976 50.8773 47.77 50.6859 47.6844 50.4749C47.5989 50.2638 47.557 50.0377 47.5613 49.81C47.5629 49.5826 47.6112 49.3578 47.7032 49.1498C47.7951 48.9417 47.9288 48.7548 48.096 48.6006C48.2632 48.4463 48.4602 48.328 48.6749 48.253C48.8897 48.178 49.1176 48.148 49.3444 48.1646C49.7728 48.2143 50.1722 48.4058 50.479 48.7088C50.7859 49.0118 50.9825 49.4088 51.0375 49.8365C51.0376 50.0631 50.9921 50.2874 50.9037 50.4961C50.8152 50.7048 50.6857 50.8934 50.5227 51.0509C50.3598 51.2084 50.1668 51.3316 49.9553 51.4129C49.7438 51.4942 49.518 51.532 49.2915 51.5242Z" fill="#2F4077"/>
<path d="M67.5981 35.9159C66.0691 35.7466 64.5664 35.2916 63.4871 34.0006C62.5919 32.9283 61.9418 31.6733 61.5823 30.3235C61.5092 30.0474 61.4754 29.7624 61.4818 29.4769C61.4594 29.0414 61.5989 28.6129 61.8733 28.274C62.1478 27.9351 62.5379 27.7096 62.9686 27.641C63.3763 27.6023 63.7852 27.7011 64.1304 27.9216C64.4755 28.1421 64.737 28.4717 64.8733 28.8579C65.1431 29.5246 65.3601 30.2124 65.6669 30.8526C65.8588 31.2395 66.1207 31.5875 66.4394 31.879C66.5646 32.0284 66.7229 32.1465 66.9018 32.224C67.0807 32.3016 67.2752 32.3364 67.4699 32.3256C67.6645 32.3148 67.8539 32.2587 68.0232 32.1619C68.1924 32.0651 68.3367 31.9302 68.4447 31.7679C68.9261 31.1806 69.2753 30.4822 69.7039 29.8526C69.8387 29.6246 70.0231 29.4299 70.2436 29.283C70.464 29.1361 70.7148 29.0408 70.9771 29.0042C71.2395 28.9675 71.5067 28.9906 71.7589 29.0715C72.0112 29.1525 72.2419 29.2892 72.4339 29.4716C72.699 29.689 72.8866 29.9864 72.9686 30.3192C73.0507 30.6521 73.0227 31.0025 72.889 31.3182C71.9948 33.3234 70.889 35.1645 68.5293 35.7571C68.3441 35.8047 68.1589 35.8524 68.0002 35.8894C67.867 35.9082 67.7326 35.917 67.5981 35.9159Z" fill="#2F4077"/>
<path d="M71.1272 22.9799C71.6055 23.0003 72.0575 23.204 72.3895 23.5488C72.7215 23.8937 72.908 24.3531 72.9103 24.8317C72.8688 25.2604 72.6713 25.659 72.3553 25.9516C72.0392 26.2443 71.6267 26.4106 71.196 26.419C70.7542 26.405 70.3346 26.2219 70.0239 25.9075C69.7132 25.5931 69.535 25.1714 69.5262 24.7294C69.5174 24.2875 69.6786 23.859 69.9765 23.5325C70.2744 23.206 70.6863 23.0062 71.1272 22.9746V22.9799Z" fill="#2F4077"/>
<path d="M66.3283 23.8741C66.3244 24.2139 66.2186 24.5447 66.0247 24.8238C65.8308 25.1028 65.5577 25.3172 65.2406 25.4394C64.9235 25.5615 64.577 25.5858 64.246 25.509C63.915 25.4322 63.6147 25.2578 63.3838 25.0085C63.1529 24.7591 63.0022 24.4463 62.951 24.1103C62.8998 23.7744 62.9506 23.4309 63.0968 23.1241C63.2429 22.8174 63.4777 22.5615 63.7709 22.3896C64.064 22.2177 64.4019 22.1377 64.741 22.1599C65.1715 22.1967 65.5727 22.3929 65.8663 22.7099C66.1598 23.0269 66.3246 23.4421 66.3283 23.8741Z" fill="#2F4077"/>
<path d="M74.9736 66.2646L78.418 68.7301C78.1023 69.4114 77.5703 69.9694 76.9048 70.3173C75.963 70.8463 74.9842 70.4813 74.7567 69.4496C74.4718 68.3935 74.5481 67.2724 74.9736 66.2646Z" fill="#979FBB"/>
</svg>
