<svg width="96" height="61" viewBox="0 0 96 61" fill="none" xmlns="http://www.w3.org/2000/svg">
<g clip-path="url(#clip0_2192_19881)">
<path d="M43.1623 7.7909C43.4883 6.17985 43.5314 4.52444 43.2896 2.89864C43.2642 2.63635 43.2642 2.37219 43.2896 2.1099C43.3733 1.0195 43.8462 0.543375 44.9159 0.517932C45.6726 0.499759 46.433 0.594245 47.1934 0.616053L58.8866 0.914099C60.371 0.950446 60.8767 1.54653 60.7312 3.04765C60.6038 4.35614 60.491 5.66462 60.3673 7.0458C60.9749 7.26751 61.5461 7.43107 62.0773 7.67823C63.3652 8.27068 64.6568 8.85951 65.9047 9.53556C66.1133 9.68871 66.372 9.75801 66.6293 9.72974C66.8867 9.70147 67.1241 9.57768 67.2944 9.38289C68.1567 8.61597 69.059 7.89267 69.9649 7.17664C71.0564 6.32976 71.7258 6.36249 72.6354 7.35112C75.6187 10.6199 78.5923 13.8911 81.5562 17.1647C82.4585 18.1643 82.4112 18.8403 81.4289 19.8108C80.5594 20.6686 79.6607 21.4973 78.7766 22.355C78.5365 22.584 78.3182 22.8312 78.0781 23.0565C77.445 23.6454 77.3505 24.2851 77.5396 25.1574C78.1047 27.5367 78.2719 29.9929 78.0344 32.4267C77.958 33.2046 78.1036 33.6553 78.8349 34.106C79.9332 34.8394 80.9753 35.6534 81.9528 36.5412C82.7023 37.17 82.786 37.7261 82.2912 38.6529C81.0796 40.9246 79.8354 43.1745 78.5984 45.4316C77.6815 47.1108 76.7611 48.7876 75.837 50.462C75.7097 50.6946 75.5823 50.9272 75.4331 51.1453C74.8619 51.9777 74.2398 52.1812 73.3011 51.7596C71.6821 51.0326 70.0813 50.2476 68.3677 49.437C67.6765 49.8695 66.8834 50.4038 66.0539 50.8654C65.194 51.3571 64.3045 51.7953 63.3907 52.1776C63.1089 52.2635 62.8619 52.4372 62.6859 52.6732C62.5098 52.9093 62.4139 53.1953 62.412 53.4897C62.2992 54.9436 62.1391 56.3683 62.0227 57.8113C61.8226 60.2902 61.4406 60.6173 58.9484 60.4464C54.0975 60.1145 49.255 59.7874 44.4211 59.4651C43.8935 59.4288 43.3696 59.3597 42.8421 59.3088C41.6415 59.1998 41.0848 58.5819 41.2522 57.4151C41.4887 55.7505 41.7506 54.0894 42.0962 52.4465C42.2272 51.8286 42.0962 51.5706 41.5505 51.298C39.3671 50.183 37.3703 48.7361 35.6312 47.0091C35.4675 46.8032 35.2349 46.6633 34.9762 46.6152C34.7174 46.5672 34.45 46.6141 34.2232 46.7474C33.0735 47.249 31.9056 47.7105 30.7378 48.1612C29.3625 48.6883 28.6858 48.4193 28.151 47.0708C26.4532 42.8134 24.776 38.5512 23.1194 34.2841C22.6428 33.0664 22.9011 32.4304 24.0799 31.8852C25.2587 31.34 26.4265 30.8384 27.6126 30.3368C27.8133 30.2698 27.986 30.1381 28.1039 29.9625C28.2217 29.7869 28.278 29.5773 28.2638 29.3664C28.2853 28.3111 28.3764 27.2584 28.5367 26.2151C28.6256 25.8792 28.5911 25.5227 28.4397 25.21C28.2882 24.8973 28.0296 24.6491 27.7108 24.5104L25.2295 23.0565C25.004 22.9221 24.7711 22.7985 24.5455 22.6567C23.5014 21.988 23.2831 21.3446 23.8179 20.236C24.9348 17.9571 26.0918 15.6963 27.2342 13.4283C28.0018 11.8945 28.7622 10.357 29.5517 8.83405C30.2139 7.55101 30.7669 7.34747 32.1203 7.90357C33.8885 8.63051 35.6494 9.35745 37.3921 10.1607C37.6448 10.3039 37.9333 10.3718 38.2235 10.3564C38.5136 10.3409 38.7932 10.2428 39.0293 10.0735C40.3427 9.2884 41.7288 8.58326 43.1623 7.7909ZM58.0789 3.5129L45.9782 3.17488C45.9782 4.7596 45.8618 6.24254 46.0182 7.69278C46.1419 8.86678 45.3925 9.78635 44.3447 10.2843C42.8989 10.9262 41.5028 11.6746 40.168 12.5233C39.0766 13.2502 38.0906 13.4101 36.9519 12.8213C36.7445 12.7159 36.5334 12.6287 36.3188 12.5378L31.6182 10.5787C29.8937 14.0098 28.202 17.3792 26.5248 20.7122C27.8818 21.61 29.1224 22.4714 30.4067 23.2565C30.7697 23.455 31.06 23.7639 31.2353 24.1384C31.4107 24.5129 31.462 24.9335 31.3817 25.3391C31.1926 27.1056 31.058 28.8793 30.9052 30.6457C30.9028 30.9936 30.798 31.3332 30.604 31.6221C30.4099 31.9109 30.1351 32.1364 29.8137 32.2705C28.966 32.6339 28.1219 32.9974 27.267 33.3609C26.7976 33.568 26.3356 33.7934 25.8117 34.0333C27.3361 37.8969 28.8168 41.6661 30.323 45.4643C31.7055 44.9228 33.0008 44.443 34.2705 43.9051C35.362 43.4507 35.9077 43.5416 36.7299 44.4066C38.851 46.6202 41.2231 48.4847 44.1264 49.5897C44.3948 49.6839 44.6247 49.8638 44.7806 50.1017C44.9364 50.3395 45.0095 50.6219 44.9886 50.9054C44.9747 51.2724 44.9272 51.6374 44.8467 51.9958C44.563 53.5406 44.2683 55.0853 43.9518 56.7863L59.3559 57.8149C59.3996 57.4515 59.4323 57.2806 59.4505 57.088C59.6179 55.5178 59.7888 53.9513 59.9417 52.3629C60.069 51.0435 60.4801 50.0222 62.0882 50.1494C63.9728 49.3462 65.8537 48.5356 67.3345 47.049C67.5465 46.7934 67.8397 46.6179 68.1653 46.5518C68.491 46.4857 68.8294 46.5329 69.1245 46.6856C69.5138 46.86 69.8521 47.1254 70.2378 47.3289C71.3292 47.9141 72.4207 48.4884 73.5849 49.1026C75.6623 45.3226 77.6525 41.6952 79.7008 37.9733C78.5584 37.1337 77.5178 36.3231 76.4264 35.5962C75.535 34.9964 75.0329 34.1823 75.3349 33.2809C75.8588 31.7216 75.7242 30.1333 75.5423 28.5558C75.3132 27.0954 74.9974 25.6498 74.5963 24.2269C74.4957 23.8938 74.4911 23.539 74.5831 23.2034C74.6751 22.8678 74.86 22.565 75.1166 22.3296C76.208 21.2392 77.2995 20.1488 78.391 19.0366C78.6129 18.8112 78.8239 18.575 79.0677 18.3097L71.1655 9.60824L67.2654 12.5342C66.6068 13.0249 66.1266 13.0139 65.4753 12.5051C65.1312 12.2005 64.7666 11.92 64.3839 11.6655C62.6168 10.6336 60.7138 9.85429 58.7301 9.35019C58.4462 9.2901 58.1912 9.13544 58.0068 8.91158C57.8224 8.68772 57.7195 8.40792 57.7151 8.11803C57.7151 7.33294 57.7733 6.54422 57.8388 5.76277C57.8861 5.07945 57.9807 4.39613 58.0789 3.5129Z" fill="#3558A2"/>
<path d="M11.0697 11.7528C10.9855 12.99 11.3757 14.2128 12.1612 15.173C13.3291 16.605 14.4205 18.1025 16.0577 19.0621C16.2251 19.1685 16.3822 19.2902 16.5271 19.4255C17.5603 20.3124 17.6185 21.2429 16.6435 22.217C16.4606 22.407 16.2596 22.5787 16.0431 22.7295C12.7069 25.0775 10.8915 28.3777 10.0583 32.2886C9.8946 33.0592 9.80001 33.8443 9.66176 34.6221C9.6239 34.8816 9.55802 35.1363 9.46529 35.3817C9.3604 35.6619 9.16401 35.8986 8.90787 36.0536C8.65174 36.2086 8.35082 36.2728 8.05366 36.2359C7.75816 36.1849 7.48751 36.0386 7.28316 35.8194C7.07881 35.6001 6.95202 35.32 6.92218 35.0219C6.83123 34.2368 6.80574 33.4445 6.72206 32.6594C6.51832 30.7948 6.35827 28.9229 6.07086 27.0729C5.75433 25.0775 4.76836 23.5727 2.64001 23.0748C2.2214 22.9813 1.81915 22.8257 1.44667 22.6131C0.220591 21.8862 0.184243 20.6359 1.34483 19.829C1.58495 19.6582 1.86872 19.5455 2.1052 19.3674C3.45498 18.3715 4.83383 17.4083 6.12903 16.347C7.36602 15.3366 7.88267 13.9118 8.1046 12.3707C8.10911 11.9434 8.16778 11.5183 8.27923 11.1058C8.45805 10.6232 8.76037 10.1959 9.15605 9.86637C9.95281 9.303 10.9351 9.82639 11.0479 10.8005C11.0715 11.1173 11.0788 11.4352 11.0697 11.7528ZM4.59736 20.9957C7.41697 22.2279 8.34836 24.5795 8.88318 27.2582C10.0474 24.6885 11.932 22.7476 13.8821 21.0175L9.55624 16.2925C8.35927 18.2406 6.5438 19.5528 4.59736 20.9957Z" fill="#3558A2"/>
<path d="M90.0443 30.02C90.1425 28.3844 90.3244 26.7488 90.3171 25.1169C90.3178 22.0138 89.8391 18.9293 88.8982 15.9721C88.6129 15.1677 88.2662 14.3864 87.8613 13.635C87.4611 12.8317 87.5412 12.0902 88.1415 11.6904C88.7418 11.2906 89.4912 11.4869 90.0297 12.2029C90.9211 13.3878 91.3468 14.7872 91.6997 16.201C92.6602 19.9884 93.235 23.8338 92.7911 27.752C92.7075 28.5007 92.7111 29.2604 92.671 30.1327C92.9439 29.8819 93.1367 29.6856 93.355 29.5148C93.5775 29.3145 93.8626 29.1975 94.1618 29.1835C94.461 29.1696 94.7557 29.2597 94.9959 29.4385C95.2456 29.6096 95.4186 29.8715 95.4777 30.1683C95.5369 30.465 95.4775 30.7732 95.3124 31.0268C94.7094 31.9699 94.0382 32.8676 93.3041 33.7128C92.7931 34.2753 92.2152 34.7733 91.5832 35.1958C90.5245 35.9227 89.4003 35.6974 88.8473 34.5415C88.207 33.2076 87.6831 31.8155 87.1664 30.4271C87.0531 30.1488 87.0481 29.8381 87.1524 29.5563C87.2568 29.2744 87.463 29.0418 87.7304 28.9042C88.0136 28.7622 88.3384 28.7267 88.6457 28.8041C88.9529 28.8815 89.222 29.0666 89.4039 29.3258C89.5786 29.5548 89.7096 29.8092 89.8624 30.0527L90.0443 30.02Z" fill="#3558A2"/>
<path d="M58.079 3.51208C57.9771 4.39531 57.8825 5.07863 57.8316 5.76558C57.7661 6.54704 57.7152 7.33575 57.7079 8.12084C57.7083 8.42076 57.8142 8.71099 58.007 8.94086C58.1999 9.17072 58.4674 9.32559 58.763 9.37842C60.7466 9.88251 62.6497 10.6619 64.4168 11.6937C64.7994 11.9482 65.1641 12.2288 65.5082 12.5333C66.1595 13.0422 66.6397 13.0531 67.2982 12.5624L71.1984 9.63649L79.1005 18.3379C78.8568 18.6032 78.6458 18.8395 78.4238 19.0648C77.3324 20.1552 76.2409 21.2674 75.1495 22.3578C74.8929 22.5932 74.708 22.8961 74.616 23.2317C74.524 23.5673 74.5285 23.922 74.6292 24.2551C75.0302 25.6781 75.3461 27.1236 75.5751 28.584C75.757 30.1433 75.8916 31.7316 75.3677 33.3091C75.0658 34.2105 75.5678 35.0246 76.4592 35.6243C77.5507 36.3513 78.5839 37.1618 79.7336 38.0014C77.6853 41.7233 75.6952 45.3507 73.6177 49.1308C72.4572 48.5165 71.3584 47.9422 70.2706 47.3571C69.9068 47.1535 69.5429 46.8882 69.1573 46.7137C68.8622 46.561 68.5238 46.5138 68.1981 46.5799C67.8725 46.6461 67.5793 46.8215 67.3673 47.0772C65.8866 48.5638 64.0056 49.3743 62.121 50.1775C60.5129 50.0503 60.1018 51.0717 59.9745 52.3911C59.8217 53.9612 59.6507 55.5278 59.4833 57.1161C59.4833 57.3088 59.4324 57.4796 59.3887 57.8431L43.9846 56.8144C44.3011 55.1134 44.5958 53.5687 44.8796 52.024C44.96 51.6656 45.0075 51.3006 45.0215 50.9336C45.0423 50.6501 44.9692 50.3676 44.8134 50.1298C44.6575 49.892 44.4276 49.7121 44.1592 49.6178C41.2486 48.5274 38.8838 46.6483 36.7627 44.4348C35.9405 43.5806 35.3766 43.4789 34.3033 43.9332C33.0336 44.4711 31.7566 44.9509 30.3559 45.4925C28.8496 41.6833 27.3689 37.9251 25.8445 34.0614C26.3575 33.8216 26.8195 33.5962 27.2998 33.389C28.1438 33.0256 28.9879 32.6621 29.8465 32.2986C30.1679 32.1646 30.4427 31.9391 30.6368 31.6502C30.8308 31.3614 30.9356 31.0218 30.938 30.6739C31.0908 28.9075 31.2254 27.1338 31.4146 25.3673C31.4948 24.9617 31.4435 24.5411 31.2682 24.1666C31.0928 23.7921 30.8026 23.4832 30.4395 23.2847C29.1553 22.4923 27.9146 21.6309 26.5576 20.7404C28.2348 17.4074 29.9265 14.0381 31.651 10.6069L36.3516 12.566C36.5663 12.6569 36.7773 12.7441 36.9847 12.8495C38.1234 13.4384 39.1094 13.293 40.2008 12.5515C41.5356 11.7029 42.9317 10.9545 44.3775 10.3125C45.4253 9.81458 46.1747 8.89501 46.051 7.72101C45.8946 6.26715 46.011 4.78784 46.011 3.20312L58.079 3.51208ZM52.8472 45.6742C55.4348 45.6932 57.9923 45.1201 60.3238 43.9986C63.3982 42.55 65.9188 40.1435 67.5065 37.1409C69.0943 34.1382 69.6634 30.7017 69.1282 27.3482C68.1168 21.0748 63.5981 16.0807 56.922 14.536C52.8572 13.5618 48.5726 14.2016 44.9705 16.3206C42.1989 17.8758 39.9645 20.234 38.5621 23.084C37.1598 25.934 36.6554 29.1418 37.1156 32.2841C38.3308 40.0223 44.9341 45.5942 52.8509 45.6742H52.8472Z" fill="white"/>
<path d="M4.59717 20.995C6.53997 19.5412 8.35544 18.24 9.55604 16.3027L13.8819 21.0278C11.9318 22.7578 10.0472 24.6987 8.88298 27.2684C8.35181 24.5788 7.42042 22.2272 4.59717 20.995Z" fill="white"/>
<path d="M52.8507 45.6748C44.934 45.5948 38.3307 40.0229 37.1191 32.2847C36.6596 29.1416 37.165 25.9332 38.5687 23.0832C39.9724 20.2331 42.2084 17.8753 44.9813 16.3212C48.5833 14.2022 52.868 13.5624 56.9328 14.5366C63.6089 16.0741 68.1276 21.079 69.139 27.3488C69.6741 30.7023 69.1051 34.1388 67.5173 37.1414C65.9295 40.1441 63.4089 42.5506 60.3345 43.9992C58.0009 45.1217 55.4407 45.6949 52.8507 45.6748ZM66.6323 29.7295C66.7414 24.8336 63.8199 19.6288 57.595 17.4043C54.4807 16.2921 51.2281 16.4848 48.092 17.7133C40.4117 20.7228 37.1191 29.7659 41.3904 36.6136C44.4865 41.5676 49.1652 43.6139 54.9427 42.8688C61.9463 41.9529 66.7887 35.8757 66.6323 29.7295Z" fill="#3558A2"/>
<path d="M66.6322 29.7296C66.7887 35.8758 61.9462 41.953 54.9427 42.858C49.1652 43.585 44.4865 41.5568 41.3904 36.6027C37.1191 29.7659 40.4117 20.7228 48.092 17.7024C51.2281 16.4739 54.4806 16.2813 57.595 17.3935C63.8199 19.6288 66.7414 24.8373 66.6322 29.7296ZM58.5045 29.4533C58.5336 26.6655 56.6381 24.0013 53.0253 23.9068C49.791 23.8341 46.9714 26.8146 46.9787 30.1221C46.97 30.8498 47.106 31.5719 47.3787 32.2467C47.6515 32.9215 48.0556 33.5354 48.5676 34.0531C49.0796 34.5707 49.6893 34.9816 50.3615 35.262C51.0336 35.5425 51.7548 35.6868 52.4833 35.6868C55.7431 35.6868 58.5154 32.8336 58.5045 29.4533Z" fill="#979FBB"/>
<path d="M58.5048 29.4541C58.5048 32.8161 55.7433 35.6875 52.4835 35.6875C51.7551 35.6876 51.0339 35.5432 50.3617 35.2627C49.6896 34.9823 49.0798 34.5714 48.5678 34.0538C48.0558 33.5362 47.6517 32.9222 47.379 32.2474C47.1062 31.5726 46.9702 30.8505 46.9789 30.1228C46.9789 26.8007 49.7912 23.8349 53.0256 23.9076C56.6238 23.9912 58.5339 26.6554 58.5048 29.4541ZM52.4653 33.0269C53.3775 32.9918 54.2416 32.6092 54.8803 31.9576C55.519 31.306 55.8837 30.4349 55.8998 29.5231C55.9275 29.0104 55.8163 28.4998 55.5778 28.045C55.3393 27.5902 54.9824 27.2081 54.5447 26.939C54.1069 26.6699 53.6047 26.5239 53.0908 26.5162C52.5769 26.5085 52.0705 26.6394 51.6249 26.8952C51.0445 27.1797 50.5505 27.6136 50.1937 28.1521C49.8369 28.6906 49.6302 29.3144 49.5948 29.9593C49.5628 30.3533 49.6136 30.7497 49.7439 31.123C49.8742 31.4963 50.081 31.8383 50.3513 32.1271C50.6215 32.4159 50.9491 32.6451 51.3132 32.8C51.6772 32.955 52.0696 33.0323 52.4653 33.0269Z" fill="#3558A2"/>
</g>
<defs>
<clipPath id="clip0_2192_19881">
<rect width="95" height="59.9688" fill="white" transform="translate(0.5 0.515625)"/>
</clipPath>
</defs>
</svg>
