<svg aria-hidden="true" width="137" height="117" viewBox="0 0 137 117" fill="none" xmlns="http://www.w3.org/2000/svg">
<path d="M78.9485 25.0306C80.8494 26.1069 80.938 26.5402 79.8384 29.0422C81.7393 29.8202 83.6403 30.5937 85.5319 31.3717C89.5993 33.0537 93.6528 34.7589 97.7249 36.4176C100.32 37.4752 102.943 38.4676 105.557 39.4926L120.522 45.3585L125.647 47.3666C125.922 47.4738 126.197 47.5809 126.463 47.7114C127.786 48.3543 128.093 49.1091 127.585 50.628C126.994 52.3705 126.244 54.0618 125.563 55.7531C124.245 59.0564 122.94 62.3691 121.603 65.6677C119.716 70.3269 117.797 74.986 115.914 79.6452C113.31 86.0888 110.733 92.5417 108.129 98.9853C106.093 104.031 104.015 109.063 101.988 114.118C101.797 114.608 101.505 115.051 101.131 115.42C100.757 115.788 100.309 116.073 99.8168 116.257C99.3077 116.455 98.747 116.478 98.2234 116.322C95.0132 115.236 91.8217 114.1 88.6395 112.944C85.257 111.719 81.9024 110.414 78.5106 109.217C71.615 106.766 64.7008 104.371 57.8053 101.93C52.09 99.914 46.3795 97.8795 40.6736 95.8264C34.8497 93.7298 29.0257 91.6611 23.2251 89.476C17.6786 87.4556 12.2729 85.068 7.04385 82.3288C5.61611 81.6042 4.28942 80.6957 3.09756 79.6265C2.03689 78.6533 1.20064 77.4609 0.646844 76.1322C0.463925 75.5336 0.349797 74.9162 0.306707 74.2918C0.246138 73.9191 0.213534 73.5464 0.171602 73.1736C0.148306 73.0106 0.064439 72.8242 0.11103 72.6798C0.479103 71.5289 0.474451 70.2989 0.991617 69.1668C3.13017 64.4657 5.21279 59.7413 7.32339 55.0262C8.59533 52.1888 9.89056 49.3654 11.1532 46.5279C12.7466 42.959 14.3121 39.3855 15.9056 35.8119C17.1542 33.0164 18.4261 30.2209 19.6748 27.4254C21.3055 23.7851 22.9285 20.1416 24.5436 16.4951C25.5687 14.1934 26.5952 11.8934 27.6233 9.59486C27.7649 9.33683 27.8759 9.06321 27.9541 8.77951C28.0452 8.36457 28.223 7.97361 28.4759 7.63232C28.7289 7.29104 29.0512 7.00717 29.4218 6.79937C31.6118 5.31451 34.098 4.32259 36.7087 3.89206C39.0435 3.57522 41.4199 3.80489 43.6508 4.56298C44.5642 4.86622 45.4615 5.21612 46.3391 5.61129C46.6017 5.69891 46.8348 5.85766 47.0124 6.06989C47.1901 6.28212 47.3054 6.53949 47.3455 6.81335C47.3827 7.06232 47.4615 7.30329 47.5785 7.5262C47.736 7.84914 47.8136 8.20524 47.8047 8.56446C47.7958 8.92367 47.7006 9.27548 47.5272 9.5902C46.6979 11.4539 45.8763 13.3377 45.0625 15.2418C45.0172 15.3934 44.9891 15.5497 44.9787 15.7077C46.8982 16.5836 48.9109 17.2545 50.8724 18.0372C52.8339 18.82 54.7675 19.5654 56.715 20.3295L62.6927 22.6591C64.4399 21.2614 66.1918 19.8636 67.911 18.4659C70.7065 16.1363 73.5299 13.8906 76.5071 11.8266C76.8793 11.5672 77.165 11.202 77.3271 10.7783C77.6677 9.96546 78.1261 9.2072 78.6876 8.52792C79.899 7.13017 81.1989 5.78834 82.4941 4.45582C83.1138 3.82683 83.808 3.2724 84.4742 2.69C84.7761 2.3873 85.1746 2.20007 85.6002 2.1609C86.0259 2.12174 86.4518 2.23313 86.8038 2.47568C87.4048 2.84841 87.964 3.29569 88.5883 3.74763C89.3664 3.31433 89.8696 2.5875 90.452 1.94454C90.8649 1.4712 91.3343 1.05029 91.8497 0.691228C92.1578 0.507062 92.5183 0.430042 92.8748 0.472182C93.2313 0.514321 93.5638 0.673251 93.8205 0.924185C94.0593 1.19101 94.2162 1.52098 94.2724 1.87462C94.3286 2.22826 94.2817 2.5906 94.1374 2.9183C94.0054 3.18095 93.8376 3.424 93.6388 3.64047C92.8561 4.53037 92.064 5.40163 91.2347 6.32414C91.5468 6.74812 91.8916 7.15813 92.1665 7.61472C92.4259 7.9803 92.5652 8.41746 92.5652 8.86571C92.5652 9.31395 92.4259 9.75111 92.1665 10.1167C91.6268 10.813 91.0367 11.4686 90.4007 12.0782C89.9954 12.5022 89.5388 12.8842 89.1288 13.3129C88.169 14.3239 87.2418 15.3582 86.2774 16.3646C85.6903 16.9703 85.0753 17.548 84.1761 17.6785C83.9732 17.731 83.7971 17.8573 83.6822 18.0326C82.095 20.359 80.5171 22.6917 78.9485 25.0306ZM98.7545 112.804C107.16 92.0308 115.562 71.2696 123.961 50.5208C123.523 50.3065 123.155 50.0968 122.768 49.9478C120.438 49.0485 118.048 48.2239 115.728 47.2641C108.036 44.0726 100.162 41.333 92.5253 37.997C88.7234 36.3384 84.861 34.8335 81.0172 33.2866C80.0854 32.9139 79.2048 32.3082 78.1099 32.5691C78.0214 32.5691 77.9002 32.5086 77.7698 32.4666C77.3318 33.1329 76.9124 33.7572 76.4978 34.3862C75.7803 35.4764 75.1001 36.576 74.336 37.6476C74.1562 37.9375 73.8966 38.1695 73.5884 38.3157C73.2802 38.462 72.9364 38.5163 72.5981 38.4723C72.2642 38.4312 71.951 38.2885 71.701 38.0635C71.451 37.8385 71.2762 37.542 71.2003 37.2143C71.1491 37.0605 71.1258 36.8975 71.0792 36.6925L70.0682 37.0279C69.8237 37.4927 69.5216 37.9247 69.1689 38.3139C68.7995 38.6443 68.3344 38.8483 67.8411 38.8963C67.4203 38.8564 67.0255 38.6747 66.7216 38.3809C66.4176 38.0871 66.2226 37.6988 66.1685 37.2795C66.123 36.9001 66.1979 36.5161 66.3827 36.1816C66.5674 35.8472 66.8527 35.5793 67.1981 35.4159C68.13 35.0525 68.4887 34.2418 69.0199 33.5522C69.551 32.8627 69.8818 32.2244 70.3151 31.5581C70.6646 31.0223 71.0233 30.4911 71.3914 29.946L63.2332 26.7592C62.7673 27.1878 62.3852 27.5792 61.9659 27.9286C61.2391 28.5296 60.4796 29.0375 59.9671 29.9227C59.4127 30.8872 58.0056 30.8872 57.2043 30.2628C56.3284 29.5733 56.5613 27.5466 57.7727 27.048C58.0383 26.9457 58.2784 26.7867 58.4762 26.5821C58.821 26.1861 59.1052 25.7435 59.4919 25.2123C54.1571 23.0645 48.8597 21.0191 43.483 18.9132C43.1336 19.6819 42.8168 20.4041 42.4814 21.1169C40.2636 25.9159 38.0427 30.7148 35.8188 35.5137C34.0669 39.283 32.3617 43.0755 30.5213 46.7982C27.8423 52.2214 25.2704 57.6913 22.7545 63.1891C21.7574 65.3602 20.8116 67.5593 19.8332 69.7119C19.1949 71.1096 18.5939 72.5679 17.8624 73.9331C16.9771 75.601 15.4816 75.8806 13.9907 74.7717C13.9208 74.7205 13.8648 74.6599 13.795 74.6086C13.1986 74.1427 12.6255 73.6442 11.9965 73.2109C10.5988 72.2791 9.0473 72.0927 7.40728 72.1626C6.40408 72.2399 5.42273 72.4955 4.5093 72.9174C4.31113 72.9888 4.14049 73.1209 4.02171 73.2949C3.90294 73.4689 3.84205 73.6759 3.84768 73.8865C3.76381 74.9068 4.27632 75.6616 4.89132 76.3745C6.126 77.8095 7.75207 78.704 9.4014 79.5613C15.5468 82.7621 21.9811 85.2734 28.5039 87.5844C33.191 89.2477 37.8222 91.0415 42.5186 92.7327C47.5086 94.5405 52.5171 96.3016 57.5257 98.0721C62.7673 99.9358 68.0228 101.734 73.2597 103.607C78.8507 105.601 84.4416 107.656 90.0326 109.664C92.8887 110.759 95.8053 111.784 98.7545 112.804ZM44.1866 8.51394C42.5213 7.80088 40.7477 7.374 38.9404 7.25131C36.8344 7.13949 34.8962 7.81041 33.0186 8.68167C31.9843 9.14758 31.1549 9.79521 30.8987 11.0112C30.8321 11.2109 30.7447 11.403 30.6378 11.5843C29.1034 15.001 27.5721 18.4177 26.0439 21.8344C24.0218 26.3585 22.0184 30.8918 19.987 35.4112C18.7197 38.2533 17.4151 41.0767 16.1525 43.9142C14.219 48.2472 12.3087 52.5942 10.3752 56.9272C8.76774 60.5333 7.11372 64.1256 5.51563 67.7271C5.35256 68.0951 5.24074 68.4819 5.04972 68.9944C8.84693 68.2629 12.2295 68.8872 15.1927 71.3239C15.7332 70.1871 16.227 69.1714 16.6929 68.1464C18.5566 64.0184 20.3876 59.8764 22.2839 55.7717C24.2687 51.5086 26.3374 47.2827 28.3688 43.0429C29.3798 40.923 30.4048 38.8031 31.3926 36.6692C33.3168 32.5225 35.2084 28.3619 37.128 24.2106C37.92 22.496 38.7867 20.8141 39.5554 19.0855C41.1209 15.5865 42.6164 12.1155 44.1866 8.51394ZM73.5113 26.9129C76.0133 23.1856 78.422 19.6167 80.8401 16.0152L79.9689 15.1905L79.037 14.3146C74.6155 17.2964 70.6505 20.7349 66.4247 24.15L73.5113 26.9129ZM85.8906 6.12845C83.5611 8.17382 81.4458 10.4848 81.0638 11.4865L83.8593 13.9512L88.579 8.92394L85.8906 6.12845Z" fill="#2F4077"/>
<path d="M130.157 41.3331C129.691 41.212 129.258 41.1328 128.834 40.9697C126.286 40.0379 123.746 39.0595 121.202 38.095C118.002 36.8743 114.801 35.6443 111.591 34.4376C107.169 32.7743 102.738 31.1389 98.3213 29.4663C95.5818 28.4319 92.8561 27.3557 90.1258 26.2934C89.9674 26.2328 89.8044 26.1909 89.6599 26.1163C89.1959 25.9508 88.813 25.6135 88.5902 25.174C88.3675 24.7345 88.3218 24.2263 88.4626 23.7542C88.6555 22.8972 88.9692 22.0721 89.3944 21.3035C90.1771 19.9057 90.89 18.508 91.6355 17.0776C92.3002 15.8134 92.9695 14.5523 93.6435 13.2944C93.7747 13.0331 93.9307 12.785 94.1094 12.5536C94.3619 12.1615 94.7476 11.874 95.1954 11.7438C95.6432 11.6137 96.1229 11.6497 96.5462 11.8454C98.4751 12.5303 100.39 13.2431 102.31 13.9699C106.144 15.4096 109.979 16.8633 113.813 18.2983L128.722 23.8893L135.306 26.3353C135.503 26.408 135.694 26.4952 135.879 26.5962C136.339 26.8094 136.698 27.1952 136.876 27.6702C137.055 28.1453 137.04 28.6716 136.834 29.1355C136.415 30.2304 135.902 31.2973 135.436 32.3689C134.388 34.7451 133.344 37.1259 132.273 39.4881C132.053 39.9407 131.78 40.3648 131.457 40.7507C131.308 40.9502 131.11 41.1083 130.883 41.2102C130.655 41.3121 130.406 41.3544 130.157 41.3331V41.3331ZM128.41 27.4535C128.224 27.7517 128.056 27.9847 127.944 28.2409C127.427 29.252 126.943 30.277 126.402 31.274C126.164 31.7177 125.863 32.1242 125.507 32.4807C125.263 32.7163 124.947 32.8635 124.609 32.899C124.272 32.9344 123.932 32.8561 123.644 32.6764C123.313 32.4921 123.056 32.1987 122.916 31.8462C122.777 31.4937 122.764 31.1038 122.88 30.7429C123.068 30.1877 123.294 29.646 123.555 29.1215C124.021 28.1431 124.52 27.1833 125.028 26.1629L123.164 25.5526C122.931 26.0185 122.749 26.3773 122.549 26.7407C122.213 27.4168 121.841 28.0746 121.435 28.7115C121.197 29.0559 120.839 29.3001 120.432 29.3972C120.024 29.4944 119.595 29.4377 119.227 29.238C118.891 29.0171 118.636 28.6936 118.499 28.3158C118.362 27.938 118.351 27.526 118.467 27.1414C118.564 26.908 118.674 26.6808 118.798 26.4611L119.856 24.2806L117.843 23.5165C117.224 24.8724 116.655 26.1396 116.063 27.3883C115.869 27.804 115.638 28.2016 115.374 28.5764C114.908 29.252 114.186 29.1495 113.51 29.0423C112.965 28.9491 112.527 28.2316 112.485 27.598C112.45 27.0082 112.572 26.4197 112.839 25.8927C113.403 24.7233 113.939 23.5352 114.512 22.2958L112.849 21.6808C112.709 21.9324 112.602 22.1095 112.518 22.2958C112.154 23.0553 111.852 23.8427 111.432 24.5695C111.322 24.7993 111.161 25.0007 110.96 25.1578C110.76 25.315 110.526 25.4237 110.277 25.4756C110.027 25.5275 109.769 25.521 109.523 25.4568C109.276 25.3926 109.048 25.2723 108.856 25.1053C108.524 24.8752 108.289 24.53 108.197 24.1366C108.105 23.7433 108.162 23.3297 108.357 22.9761C108.702 22.1701 109.103 21.3873 109.499 20.558C108.963 20.1573 108.46 19.8218 107.779 19.9523L107.15 21.2382C106.661 22.212 106.219 23.2044 105.678 24.1642C105.1 25.2125 104.28 25.5013 103.39 25.0354C103.181 24.9397 102.994 24.8017 102.84 24.6301C102.686 24.4586 102.57 24.2571 102.498 24.0384C102.425 23.8197 102.399 23.5885 102.421 23.3592C102.442 23.1299 102.51 22.9075 102.622 22.7059C103.088 21.5923 103.647 20.4974 104.15 19.3932C104.266 19.1369 104.346 18.8667 104.467 18.5359L96.4064 15.5308C94.9807 18.2284 93.6109 20.8142 92.2132 23.4793L129.426 37.4567C130.516 34.6892 131.881 32.0568 132.962 29.21L128.41 27.4535Z" fill="#2F4077"/>
<path d="M98.7544 112.805C95.8052 111.77 92.8886 110.759 89.9859 109.716C84.395 107.703 78.804 105.648 73.213 103.659C67.9761 101.795 62.7206 99.9735 57.4791 98.1238C52.4705 96.3533 47.4619 94.5922 42.472 92.7844C37.8128 91.0931 33.1536 89.2994 28.4572 87.636C21.9344 85.3065 15.5001 82.8138 9.35469 79.613C7.70535 78.751 6.09331 77.8612 4.84466 76.4261C4.22965 75.7133 3.71715 74.9585 3.80102 73.9381C3.79539 73.7276 3.85628 73.5206 3.97505 73.3466C4.09383 73.1726 4.26441 73.0405 4.46258 72.969C5.37601 72.5471 6.35742 72.2915 7.36061 72.2143C9.00063 72.1444 10.5568 72.3401 11.9499 73.2626C12.5788 73.6772 13.1519 74.1944 13.7483 74.6603C13.8182 74.7116 13.8741 74.7721 13.944 74.8234C15.4349 75.9323 16.9305 75.6527 17.8157 73.9847C18.5472 72.6196 19.1482 71.1892 19.7865 69.7635C20.7649 67.5877 21.7108 65.3886 22.7078 63.2407C25.2238 57.7429 27.7956 52.2731 30.4746 46.8499C32.3383 43.1225 34.0203 39.3346 35.7721 35.5654C38.0023 30.7696 40.2231 25.9707 42.4346 21.1686C42.7701 20.4558 43.0869 19.7336 43.4364 18.9648C48.813 21.0801 54.1105 23.1161 59.4452 25.264C59.0585 25.7952 58.7743 26.2378 58.4295 26.6338C58.2317 26.8384 57.9916 26.9974 57.726 27.0997C56.5146 27.5982 56.2817 29.625 57.1576 30.3145C57.959 30.9389 59.366 30.9389 59.9204 29.9744C60.433 29.0892 61.1924 28.5767 61.9192 27.9803C62.3386 27.6309 62.7299 27.2395 63.1865 26.8109L71.3447 29.9977C70.9766 30.5428 70.6178 31.074 70.2684 31.6098C69.8351 32.276 69.4577 33.0075 68.9732 33.6039C68.4886 34.2003 68.0413 35.0948 67.1514 35.4675C66.8061 35.631 66.5208 35.8988 66.336 36.2333C66.1512 36.5677 66.0763 36.9518 66.1218 37.3312C66.1759 37.7504 66.371 38.1388 66.6749 38.4326C66.9788 38.7264 67.3736 38.9081 67.7944 38.9479C68.2877 38.9 68.7529 38.696 69.1223 38.3655C69.4749 37.9764 69.777 37.5444 70.0215 37.0796L71.0325 36.7442C71.0791 36.9492 71.1024 37.1122 71.1536 37.266C71.2295 37.5937 71.4043 37.8902 71.6543 38.1152C71.9043 38.3402 72.2175 38.4829 72.5514 38.524C72.8897 38.568 73.2335 38.5137 73.5417 38.3674C73.8499 38.2212 74.1094 37.9892 74.2892 37.6993C75.0347 36.6277 75.7336 35.5281 76.4511 34.4379C76.8658 33.8089 77.2851 33.1846 77.723 32.5183C77.8535 32.5602 77.9747 32.6441 78.0632 32.6208C79.1581 32.3599 80.0433 32.9656 80.9705 33.3383C84.8143 34.8852 88.6767 36.3901 92.4786 38.0487C100.115 41.3847 107.989 44.1056 115.681 47.3158C118.011 48.2756 120.373 49.1002 122.721 49.9994C123.108 50.1485 123.476 50.3582 123.914 50.5725C115.54 71.2995 107.153 92.0436 98.7544 112.805ZM86.9202 75.1449C84.0269 82.4877 81.1941 89.6861 78.3287 96.9497C77.8069 96.768 77.3969 96.6235 76.931 96.4838L65.8702 92.3231C62.7718 91.1584 59.6689 89.9936 56.5519 88.8335C52.4705 87.2959 48.403 85.7398 44.3216 84.2069C39.928 82.5622 35.5251 80.9455 31.1315 79.2869C30.8069 79.1393 30.4952 78.9648 30.1997 78.765C30.2064 78.6083 30.2267 78.4524 30.2603 78.2991C31.3598 75.4011 32.4688 72.5031 33.5637 69.6005C33.8712 68.7851 34.2812 68.0024 34.3091 67.0892C34.3417 66.0875 33.8805 65.7287 33.0465 65.4399C32.6987 65.3464 32.3294 65.3739 31.9993 65.5178C31.6691 65.6617 31.3977 65.9135 31.2294 66.2319C30.9474 66.7485 30.7014 67.2841 30.4932 67.8347C29.7571 69.748 29.0303 71.6691 28.3128 73.598C27.7257 75.1682 27.1154 76.729 26.5796 78.3177C26.0438 79.9065 26.6541 81.2018 28.1311 81.7702C32.4796 83.4475 36.8282 85.1061 41.1767 86.7461C44.904 88.1439 48.6313 89.5416 52.3587 90.9394C56.5954 92.5359 60.829 94.1387 65.0595 95.7476C67.7618 96.7664 70.4672 97.7821 73.1757 98.7947C74.707 99.3631 76.2414 99.9222 77.7789 100.472C78.0432 100.599 78.3341 100.659 78.6269 100.649C79.9268 100.416 80.9565 99.8197 81.4877 98.5012C82.6478 95.5333 83.8498 92.5841 85.0146 89.6162C86.8348 84.957 88.6472 80.3103 90.4519 75.676C91.1554 73.8543 90.3866 72.6848 89.1287 72.2609C88.9703 72.2096 88.8258 72.1118 88.6628 72.0512C87.2184 71.4921 85.7741 70.9237 84.3204 70.3786C83.6203 70.1038 82.9047 69.8704 82.1772 69.6797C81.8075 69.6112 81.4255 69.6651 81.0892 69.8332C80.7529 70.0014 80.4806 70.2746 80.3135 70.6115C80.2033 70.9527 80.1884 71.3175 80.2705 71.6665C80.3526 72.0155 80.5286 72.3355 80.7795 72.5917C81.0611 72.7739 81.3648 72.9195 81.6833 73.025C83.4538 73.7192 85.1357 74.4134 86.9202 75.1449V75.1449ZM108.613 58.7633C108.673 59.0123 108.747 59.258 108.832 59.4994C109.27 60.4685 109.843 60.7667 110.854 60.5757C111.562 60.4452 112.042 59.7976 112.056 58.8844C112.108 58.0395 112.089 57.1917 112 56.3499C111.877 55.0989 111.525 53.8812 110.961 52.7577C110.699 52.2543 110.261 51.8643 109.731 51.6609C109.2 51.4576 108.614 51.4549 108.082 51.6534C107.127 51.9809 106.194 52.3668 105.287 52.8089C104.573 53.1707 103.892 53.5932 103.251 54.0715C102.906 54.2786 102.626 54.5784 102.443 54.9367C102.26 55.295 102.182 55.6975 102.216 56.0983C102.263 56.3469 102.365 56.5817 102.516 56.7849C102.667 56.9881 102.862 57.1543 103.086 57.271C103.311 57.3877 103.559 57.4518 103.811 57.4585C104.064 57.4652 104.315 57.4143 104.546 57.3096L105.31 57.0161C105.37 57.1093 105.417 57.1512 105.408 57.1745C100.245 70.5991 95.0815 84.0237 89.916 97.4482C89.8415 97.6439 89.739 97.8303 89.6458 98.0213C89.6271 98.0596 89.598 98.0918 89.5619 98.1145C89.5293 98.1145 89.4827 98.1145 89.3849 98.1145C89.0915 97.8481 88.7801 97.6022 88.4531 97.3783C88.2881 97.2626 88.1017 97.1811 87.9047 97.1385C87.7078 97.096 87.5043 97.0933 87.3063 97.1307C87.1083 97.168 86.9198 97.2446 86.7518 97.356C86.5839 97.4673 86.44 97.6112 86.3285 97.779C85.7927 98.4499 85.7834 99.0556 86.2726 99.8756C86.8317 100.807 87.3815 101.739 87.9406 102.671C88.1064 102.963 88.2868 103.246 88.481 103.519C88.7695 103.942 89.1947 104.252 89.6852 104.398C90.1756 104.544 90.7014 104.517 91.174 104.32C92.9489 103.54 94.5372 102.39 95.8331 100.947C96.1131 100.656 96.2863 100.278 96.3244 99.876C96.3624 99.4737 96.2632 99.0704 96.0428 98.7317C95.8224 98.393 95.4938 98.1389 95.1106 98.0108C94.7274 97.8826 94.312 97.888 93.9322 98.026C93.7617 98.0407 93.5903 98.0407 93.4197 98.026C98.4889 84.9477 103.511 71.9347 108.613 58.7633ZM47.6249 35.4256C52.3773 37.0004 67.24 42.8243 67.9901 43.3881C66.8253 46.1836 65.7304 48.9791 64.4864 51.742C63.2424 54.5048 62.2361 57.4028 60.8197 60.1284C60.009 59.8442 59.3101 59.56 58.5926 59.3597C57.4464 59.0335 56.3096 60.2356 56.4913 61.0975C56.5536 61.4727 56.7121 61.8253 56.9514 62.1209C57.1906 62.4165 57.5025 62.6451 57.8565 62.7841C61.4394 64.2145 65.0083 65.6728 68.5725 67.1125C69.5835 67.5178 70.5946 67.9232 71.6289 68.2586C71.86 68.3247 72.1028 68.3391 72.3401 68.3006C72.5774 68.2622 72.8033 68.1719 73.0017 68.0362C73.2001 67.9005 73.3661 67.7228 73.488 67.5156C73.6099 67.3084 73.6846 67.0769 73.7068 66.8376C73.7737 66.4373 73.6949 66.0263 73.4846 65.6792C73.2743 65.3322 72.9465 65.072 72.5607 64.946C70.5852 64.14 68.5818 63.3852 66.6203 62.5465C65.8236 62.2064 64.9197 62.0806 64.2395 61.4004C64.2809 61.1932 64.337 60.9893 64.4072 60.79C65.0036 59.3923 65.6232 58.0272 66.2103 56.6341C67.7261 53.0434 69.2325 49.4481 70.7296 45.8481C71.0837 45.0002 71.4704 44.1615 71.778 43.2903C72.174 42.1721 71.8432 41.3474 70.8135 40.7231C70.4913 40.5232 70.1531 40.3502 69.8025 40.2059C68.3302 39.6142 66.8486 39.0225 65.367 38.4541C62.0435 37.1775 58.72 35.9055 55.3964 34.6382C52.8898 33.7064 50.3972 32.7 47.8766 31.7868C46.3204 31.2231 45.738 31.6936 45.0158 32.8351C44.2937 33.9766 43.7019 35.0855 43.0683 36.2223C42.7912 36.6926 42.5468 37.1815 42.3368 37.6853C41.8336 38.9759 42.6816 40.0801 44.056 40.0149C44.7922 39.973 45.1743 39.5117 45.5097 38.9526C46.2086 37.8064 46.8935 36.651 47.6249 35.4256ZM89.5806 62.6444C87.3163 61.7125 85.1218 60.7574 82.9087 59.8489C80.6956 58.9403 78.352 58.2275 76.2088 57.1233C76.2313 57.0148 76.2641 56.9087 76.3067 56.8065C76.8565 55.9492 76.9123 55.227 76.4418 54.5934C76.2262 54.2982 75.9213 54.0803 75.5722 53.9721C75.223 53.8638 74.8484 53.8709 74.5036 53.9923C73.1582 54.3111 71.8675 54.8276 70.6737 55.5252C70.3512 55.706 70.0703 55.9526 69.8493 56.249C69.6282 56.5455 69.472 56.8851 69.3907 57.2458C69.3094 57.6065 69.3049 57.9803 69.3775 58.3428C69.45 58.7054 69.598 59.0487 69.8118 59.3504C70.3942 60.2263 71.0045 61.0882 71.6755 61.8989C72.0229 62.3235 72.4523 62.6737 72.9381 62.9286C74.2474 63.5948 75.4308 62.8587 75.4867 61.405C75.4867 61.2093 75.4867 61.0137 75.5286 60.7714C79.7498 62.3835 83.8592 64.0328 87.9452 65.78C87.7191 66.1182 87.5137 66.4698 87.3302 66.8329C87.2319 67.0527 87.1883 67.293 87.2031 67.5333C87.218 67.7736 87.2907 68.0068 87.4153 68.2128C87.5398 68.4189 87.7125 68.5917 87.9183 68.7165C88.1242 68.8413 88.3572 68.9144 88.5975 68.9296C89.0154 68.9801 89.4393 68.942 89.8415 68.8177C90.8572 68.4217 91.8543 67.9744 92.8327 67.4899C93.8111 67.0053 94.2304 66.2366 93.9788 65.2116C93.6904 64.0349 93.3342 62.876 92.9119 61.7405C92.6324 60.9764 91.9521 60.6875 91.0482 60.7761C90.7138 60.8158 90.4017 60.964 90.1594 61.1979C89.9171 61.4317 89.758 61.7385 89.7064 62.0713C89.6505 62.239 89.6272 62.3974 89.5806 62.6444V62.6444ZM40.1377 51.9283C40.2396 51.6649 40.3207 51.3938 40.38 51.1176C40.4069 50.8469 40.3727 50.5736 40.2801 50.3177C40.1875 50.0619 40.0388 49.8301 39.8448 49.6393C39.6509 49.4484 39.4166 49.3035 39.1593 49.2151C38.902 49.1266 38.6282 49.0969 38.3579 49.1282C38.0874 49.178 37.834 49.2956 37.6214 49.4699C37.4087 49.6443 37.2437 49.8698 37.1419 50.1252C36.8344 50.7216 36.6061 51.3506 36.3498 51.9889C35.8839 53.0698 35.418 54.1414 35.008 55.2503C34.8733 55.6473 34.8163 56.0665 34.8403 56.485C34.8457 56.8456 34.9729 57.1938 35.2013 57.4729C35.4297 57.7521 35.7458 57.9458 36.0982 58.0225C36.4486 58.0999 36.8147 58.0602 37.1404 57.9096C37.4661 57.7589 37.7334 57.5056 37.9013 57.1885C38.2368 56.5735 38.4977 55.9166 38.8331 55.227C39.3876 55.4506 39.8907 55.6417 40.3893 55.8513C42.1597 56.6061 43.9396 57.3469 45.7007 58.125C46.3856 58.4278 46.9074 58.1949 47.4432 57.8035C47.7013 57.6159 47.8952 57.3533 47.9986 57.0515C48.1019 56.7497 48.1097 56.4233 48.021 56.1169C47.9409 55.8322 47.7925 55.5713 47.5887 55.357C47.3849 55.1426 47.1318 54.9813 46.8515 54.8869L43.0543 53.2236L40.1377 51.9283ZM51.3197 66.1574C51.3381 65.9373 51.3125 65.7158 51.2444 65.5058C51.1764 65.2957 51.0672 65.1013 50.9232 64.9339C50.7792 64.7665 50.6033 64.6295 50.4058 64.5308C50.2083 64.432 49.9931 64.3736 49.7728 64.3589C49.1791 64.332 48.596 64.5225 48.1328 64.8947C44.8015 67.2243 41.4562 69.5539 38.1249 71.9254C37.7789 72.1697 37.4765 72.4706 37.2304 72.8153C37.1046 73.0078 37.0186 73.2235 36.9774 73.4497C36.9363 73.6759 36.9408 73.9081 36.9907 74.1326C37.0407 74.357 37.135 74.5692 37.2682 74.7567C37.4014 74.9441 37.5707 75.1031 37.7662 75.2241C38.5256 75.69 39.1919 75.4803 39.8582 74.9865C41.652 73.6633 43.4457 72.3401 45.2674 71.0541C46.9168 69.894 48.5987 68.7805 50.2807 67.6623C50.8143 67.3222 51.1913 66.7843 51.329 66.1667L51.3197 66.1574ZM78.161 77.3067C77.341 77.2368 76.7167 77.6841 76.0831 78.0941C73.1229 80.0168 70.1722 81.9457 67.2307 83.8808C66.9423 84.0497 66.6722 84.248 66.4246 84.4725C66.13 84.7169 65.9311 85.0575 65.8629 85.4342C65.7947 85.8109 65.8617 86.1996 66.0519 86.5318C66.2777 86.916 66.6405 87.2005 67.0673 87.3284C67.4942 87.4563 67.9536 87.4181 68.3535 87.2214C68.6223 87.1017 68.8823 86.9631 69.1316 86.8067C72.0482 84.8965 74.9602 82.98 77.8675 81.0573C78.332 80.767 78.77 80.4365 79.1767 80.0696C79.4317 79.8784 79.6189 79.6107 79.7111 79.3057C79.8033 79.0006 79.7956 78.6741 79.6892 78.3737C79.6103 78.039 79.4108 77.7451 79.1289 77.5483C78.847 77.3515 78.5024 77.2654 78.161 77.3067V77.3067ZM52.107 81.4999C52.502 81.3827 52.8844 81.2266 53.2486 81.034C54.1385 80.4749 55.0004 79.8692 55.8577 79.2636C58.122 77.6608 60.3863 76.0581 62.6367 74.432C62.9352 74.2004 63.1813 73.9082 63.3589 73.5747C63.4665 73.3928 63.5366 73.1911 63.5651 72.9817C63.5935 72.7722 63.5798 72.5592 63.5247 72.3551C63.4695 72.151 63.3741 71.9601 63.244 71.7934C63.1139 71.6268 62.9518 71.4879 62.7672 71.3849C62.4875 71.2334 62.1737 71.156 61.8556 71.1601C61.5375 71.1642 61.2258 71.2496 60.9501 71.4082C60.4672 71.6721 60.0004 71.9646 59.5524 72.2842C57.0054 74.0671 54.46 75.8546 51.9161 77.6468C51.5253 77.8948 51.1573 78.177 50.8164 78.4901C50.5494 78.7368 50.367 79.0614 50.2951 79.4177C50.2231 79.7741 50.2654 80.144 50.4158 80.4749C50.5445 80.8089 50.7804 81.0907 51.0864 81.2762C51.3925 81.4617 51.7514 81.5404 52.107 81.4999V81.4999Z" fill="white"/>
<path d="M44.1867 8.51358C42.6166 12.1151 41.121 15.5862 39.5882 19.0339C38.8194 20.7578 37.9528 22.4398 37.1608 24.159C35.2412 28.3103 33.3495 32.4709 31.4253 36.6176C30.4376 38.7515 29.4126 40.8714 28.4015 42.9913C26.3701 47.2311 24.3015 51.457 22.3167 55.7201C20.4018 59.8248 18.5894 63.9668 16.7257 68.0948C16.2598 69.1198 15.766 70.1355 15.2255 71.2723C12.2623 68.8542 8.87973 68.2299 5.08252 68.9428C5.26889 68.4303 5.38071 68.0435 5.54843 67.6755C7.16516 64.0739 8.80981 60.4817 10.4079 56.8756C12.3414 52.5425 14.2517 48.1956 16.1853 43.8626C17.4479 41.0251 18.7524 38.2017 20.0197 35.3596C22.0418 30.8402 24.0452 26.3069 26.0766 21.7828C27.5986 18.3661 29.1299 14.9494 30.6705 11.5327C30.7775 11.3514 30.8649 11.1593 30.9315 10.9596C31.1784 9.75757 32.017 9.09598 33.0514 8.63006C34.915 7.7588 36.8672 7.08788 38.9732 7.1997C40.7724 7.34229 42.5348 7.78644 44.1867 8.51358V8.51358Z" fill="white"/>
<path d="M85.8904 6.12891L88.5788 8.9244L83.8404 13.9423L81.0449 11.4776C81.4456 10.4852 83.5376 8.17427 85.8904 6.12891Z" fill="#979FBB"/>
<path d="M128.41 27.4531L132.98 29.191C131.899 32.0377 130.534 34.6701 129.444 37.4377L92.2314 23.4602C93.6292 20.7952 95.0269 18.2094 96.4247 15.5117L104.485 18.5169C104.364 18.8477 104.285 19.1179 104.168 19.3742C103.665 20.4784 103.125 21.5733 102.64 22.6868C102.529 22.8884 102.46 23.1108 102.439 23.3401C102.418 23.5695 102.444 23.8007 102.516 24.0194C102.588 24.2381 102.705 24.4395 102.858 24.6111C103.012 24.7826 103.199 24.9206 103.409 25.0164C104.303 25.4823 105.119 25.1934 105.696 24.1451C106.218 23.1853 106.679 22.1929 107.169 21.2192L107.798 19.9333C108.478 19.8028 108.981 20.1383 109.517 20.5389C109.121 21.3683 108.72 22.151 108.375 22.957C108.18 23.3106 108.123 23.7242 108.215 24.1176C108.307 24.511 108.542 24.8562 108.874 25.0863C109.066 25.2532 109.295 25.3735 109.541 25.4377C109.788 25.502 110.046 25.5084 110.295 25.4565C110.544 25.4047 110.778 25.2959 110.979 25.1388C111.179 24.9816 111.341 24.7803 111.45 24.5505C111.87 23.8236 112.173 23.0362 112.536 22.2768C112.62 22.0904 112.727 21.9134 112.867 21.6618L114.53 22.2768C113.957 23.5161 113.421 24.7042 112.858 25.8737C112.59 26.4006 112.468 26.9892 112.503 27.5789C112.545 28.2126 112.969 28.9301 113.528 29.0233C114.19 29.1397 114.926 29.2422 115.392 28.5573C115.657 28.1825 115.887 27.7849 116.082 27.3693C116.673 26.1206 117.242 24.8533 117.861 23.4975L119.874 24.2616L118.817 26.4421C118.692 26.6617 118.582 26.8889 118.486 27.1223C118.369 27.507 118.38 27.9189 118.517 28.2967C118.654 28.6746 118.909 28.9981 119.245 29.2189C119.613 29.4186 120.043 29.4753 120.45 29.3782C120.858 29.281 121.215 29.0368 121.454 28.6925C121.859 28.0556 122.231 27.3977 122.567 26.7216C122.767 26.3582 122.949 25.9808 123.182 25.5335L125.046 26.1439C124.538 27.1643 124.039 28.124 123.574 29.1025C123.312 29.627 123.086 30.1687 122.898 30.7238C122.782 31.0848 122.795 31.4747 122.935 31.8272C123.074 32.1797 123.331 32.473 123.662 32.6574C123.95 32.8371 124.29 32.9154 124.628 32.88C124.965 32.8445 125.281 32.6973 125.526 32.4617C125.881 32.1052 126.182 31.6987 126.42 31.255C126.961 30.2579 127.445 29.2329 127.962 28.2219C128.056 27.9936 128.223 27.7606 128.41 27.4531ZM99.8352 21.0887C99.8562 20.5846 99.6761 20.0927 99.3344 19.7214C98.9928 19.35 98.5176 19.1296 98.0135 19.1086C97.5093 19.0876 97.0174 19.2677 96.6461 19.6093C96.2747 19.951 96.0543 20.4261 96.0333 20.9303C96.0255 21.4172 96.1991 21.8896 96.5203 22.2556C96.8416 22.6216 97.2874 22.855 97.7712 22.9104C98.6797 22.9757 99.8073 21.9833 99.8352 21.098V21.0887Z" fill="#CBCFDD"/>
<path d="M86.9204 75.1448C85.136 74.4133 83.4308 73.7191 81.7348 73.0155C81.4164 72.9101 81.1126 72.7645 80.8309 72.5822C80.5801 72.326 80.4041 72.0061 80.322 71.6571C80.2399 71.3081 80.2548 70.9432 80.365 70.6021C80.532 70.2652 80.8044 69.992 81.1407 69.8238C81.477 69.6556 81.859 69.6017 82.2287 69.6703C82.9562 69.861 83.6718 70.0943 84.3719 70.3691C85.8255 70.9142 87.2699 71.4827 88.7142 72.0418C88.8727 72.1023 89.0171 72.2002 89.1802 72.2514C90.4381 72.6754 91.2069 73.8448 90.5033 75.6666C88.7018 80.3257 86.8894 84.9725 85.0661 89.6068C83.9013 92.5746 82.6993 95.5239 81.5391 98.4918C81.022 99.8103 79.9783 100.407 78.6784 100.64C78.3856 100.65 78.0947 100.589 77.8305 100.463C76.2774 99.9128 74.743 99.3537 73.2272 98.7853C70.5218 97.7758 67.8164 96.7601 65.111 95.7382C60.8774 94.1386 56.6437 92.5358 52.4101 90.93C48.6828 89.5322 44.9555 88.1345 41.2282 86.7367C36.8796 85.0874 32.5311 83.4287 28.1826 81.7607C26.7056 81.1923 26.1046 79.8552 26.6311 78.3083C27.1576 76.7615 27.7772 75.1587 28.3643 73.5886C29.0818 71.6659 29.8086 69.7448 30.5447 67.8252C30.7528 67.2746 30.9988 66.7391 31.2809 66.2225C31.4492 65.9041 31.7206 65.6522 32.0507 65.5083C32.3809 65.3644 32.7502 65.3369 33.098 65.4304C33.932 65.7193 34.3932 66.078 34.3606 67.0798C34.3326 68.0116 33.9226 68.7757 33.6151 69.591C32.5202 72.4937 31.4113 75.3917 30.3118 78.2897C30.2782 78.443 30.258 78.5988 30.2512 78.7556C30.5467 78.9553 30.8584 79.1299 31.1831 79.2774C35.5767 80.9268 39.9795 82.5388 44.3731 84.1975C48.4545 85.7303 52.5219 87.2865 56.6034 88.824C59.697 89.9935 62.8 91.1536 65.9217 92.3137L76.9825 96.4743C77.4111 96.6328 77.8398 96.7772 78.3802 96.9403C81.1943 89.686 84.0271 82.4876 86.9204 75.1448Z" fill="#2F4077"/>
<path d="M108.613 58.7628C103.525 71.9342 98.5029 84.9472 93.4338 98.0673C93.6043 98.0821 93.7758 98.0821 93.9463 98.0673C94.3261 97.9293 94.7414 97.924 95.1246 98.0521C95.5078 98.1803 95.8364 98.4344 96.0568 98.7731C96.2772 99.1118 96.3765 99.5151 96.3384 99.9174C96.3003 100.32 96.1272 100.697 95.8472 100.989C94.5512 102.431 92.963 103.581 91.188 104.362C90.7154 104.558 90.1897 104.585 89.6992 104.439C89.2088 104.293 88.7835 103.983 88.495 103.56C88.3008 103.287 88.1205 103.004 87.9546 102.713C87.3955 101.781 86.8457 100.849 86.2866 99.917C85.8207 99.097 85.8207 98.4913 86.3425 97.8204C86.454 97.6525 86.5979 97.5087 86.7659 97.3974C86.9338 97.286 87.1223 97.2094 87.3203 97.1721C87.5183 97.1347 87.7218 97.1374 87.9188 97.1799C88.1157 97.2225 88.3022 97.304 88.4671 97.4197C88.7942 97.6435 89.1055 97.8895 89.3989 98.1559C89.4968 98.1559 89.5434 98.1559 89.576 98.1559C89.6121 98.1332 89.6411 98.101 89.6598 98.0627C89.753 97.8717 89.8555 97.6853 89.9301 97.4896C95.0986 84.0682 100.263 70.6436 105.422 57.2159C105.422 57.2159 105.384 57.1507 105.324 57.0575L104.56 57.351C104.33 57.4557 104.078 57.5066 103.826 57.4999C103.573 57.4932 103.325 57.4291 103.1 57.3124C102.876 57.1957 102.681 57.0295 102.53 56.8263C102.379 56.6231 102.277 56.3883 102.23 56.1397C102.196 55.7389 102.274 55.3364 102.457 54.9781C102.64 54.6198 102.92 54.32 103.265 54.1129C103.906 53.6346 104.587 53.2121 105.301 52.8503C106.208 52.4082 107.141 52.0223 108.096 51.6948C108.628 51.4963 109.214 51.499 109.745 51.7023C110.275 51.9057 110.713 52.2957 110.975 52.7991C111.539 53.9226 111.891 55.1403 112.014 56.3913C112.103 57.2331 112.122 58.0809 112.07 58.9258C112.07 59.8577 111.576 60.4867 110.868 60.6171C109.857 60.8081 109.284 60.5099 108.846 59.5408C108.754 59.2859 108.677 59.0262 108.613 58.7628V58.7628Z" fill="#2F4077"/>
<path d="M47.6252 35.4251C46.8937 36.6504 46.2274 37.8059 45.5192 38.9567C45.1838 39.5158 44.8017 39.977 44.0656 40.019C42.6678 40.0982 41.8432 38.994 42.3464 37.6894C42.5564 37.1856 42.8007 36.6967 43.0778 36.2264C43.7115 35.0896 44.3265 33.9341 45.0254 32.8392C45.7243 31.7443 46.3299 31.2272 47.8861 31.7909C50.4067 32.7227 52.8994 33.6872 55.406 34.6423C58.7295 35.9158 62.053 37.1878 65.3765 38.4582C66.8581 39.0266 68.3397 39.6183 69.812 40.21C70.1627 40.3543 70.5009 40.5273 70.8231 40.7272C71.8528 41.3515 72.1835 42.1762 71.7875 43.2944C71.48 44.1656 71.0933 45.0043 70.7392 45.8522C69.2327 49.4491 67.7263 53.0444 66.2198 56.6382C65.6328 58.0359 65.0131 59.4057 64.4168 60.7941C64.3465 60.9934 64.2905 61.1973 64.249 61.4045C64.9293 62.0707 65.8331 62.2105 66.6299 62.5506C68.5914 63.3893 70.5948 64.1441 72.5703 64.9501C72.956 65.0761 73.2838 65.3363 73.4941 65.6833C73.7044 66.0304 73.7833 66.4414 73.7164 66.8417C73.6942 67.081 73.6194 67.3125 73.4975 67.5197C73.3757 67.7269 73.2096 67.9046 73.0112 68.0403C72.8128 68.176 72.5869 68.2663 72.3496 68.3047C72.1124 68.3432 71.8695 68.3288 71.6384 68.2627C70.6041 67.9273 69.593 67.5219 68.582 67.1166C65.0084 65.6769 61.4395 64.2186 57.866 62.7882C57.512 62.6491 57.2002 62.4206 56.9609 62.125C56.7217 61.8294 56.5631 61.4768 56.5009 61.1016C56.3192 60.2397 57.4327 59.0376 58.6021 59.3638C59.3197 59.5641 59.9998 59.8297 60.8292 60.1325C62.2269 57.3883 63.2427 54.4996 64.496 51.7461C65.7493 48.9925 66.8255 46.1877 67.9996 43.3922C67.2402 42.8284 52.3775 36.9999 47.6252 35.4251Z" fill="#2F4077"/>
<path d="M89.5808 62.6438C89.6274 62.4015 89.6507 62.2385 89.6926 62.0847C89.7442 61.7519 89.9033 61.4451 90.1456 61.2113C90.3879 60.9774 90.7001 60.8292 91.0345 60.7895C91.9663 60.7009 92.6232 60.9898 92.8981 61.7539C93.3204 62.8894 93.6767 64.0483 93.9651 65.225C94.212 66.25 93.7927 67.0187 92.8189 67.5033C91.8451 67.9878 90.8435 68.4351 89.8278 68.8311C89.4256 68.9554 89.0017 68.9935 88.5838 68.943C88.3435 68.9278 88.1104 68.8547 87.9046 68.7299C87.6987 68.6051 87.5261 68.4323 87.4016 68.2262C87.277 68.0202 87.2042 67.7871 87.1894 67.5468C87.1746 67.3065 87.2182 67.0661 87.3165 66.8464C87.4999 66.4832 87.7053 66.1316 87.9315 65.7934C83.8454 64.0276 79.736 62.3969 75.5148 60.7848C75.5148 61.0271 75.4776 61.2228 75.4729 61.4184C75.417 62.8721 74.2336 63.6082 72.9244 62.942C72.4386 62.6871 72.0091 62.3369 71.6617 61.9123C71.0001 61.1016 70.3898 60.2397 69.798 59.3638C69.5842 59.0621 69.4363 58.7188 69.3638 58.3562C69.2912 57.9937 69.2957 57.6199 69.377 57.2592C69.4583 56.8985 69.6145 56.5589 69.8355 56.2625C70.0566 55.966 70.3375 55.7194 70.66 55.5386C71.8538 54.841 73.1444 54.3245 74.4898 54.0057C74.8346 53.8843 75.2093 53.8772 75.5584 53.9855C75.9075 54.0937 76.2125 54.3116 76.4281 54.6068C76.894 55.2404 76.8427 55.9626 76.2929 56.8199C76.2504 56.9221 76.2176 57.0282 76.1951 57.1367C78.3383 58.2409 80.6586 58.9538 82.895 59.8623C85.1313 60.7708 87.3165 61.698 89.5808 62.6438Z" fill="#2F4077"/>
<path d="M40.124 51.9376L43.0173 53.2002L46.8145 54.8635C47.0948 54.9579 47.3478 55.1193 47.5516 55.3336C47.7554 55.548 47.9038 55.8088 47.9839 56.0936C48.0727 56.4 48.0649 56.7263 47.9615 57.0281C47.8581 57.3299 47.6642 57.5925 47.4062 57.7802C46.8704 58.1715 46.3486 58.4045 45.6637 58.1016C43.9025 57.3236 42.1227 56.5828 40.3522 55.828C39.8537 55.6183 39.3505 55.4273 38.7961 55.2037C38.4839 55.8932 38.223 56.5502 37.8643 57.1652C37.6964 57.4823 37.429 57.7356 37.1034 57.8862C36.7777 58.0369 36.4116 58.0765 36.0612 57.9991C35.7088 57.9224 35.3927 57.7287 35.1643 57.4496C34.9359 57.1705 34.8086 56.8223 34.8032 56.4616C34.7792 56.0431 34.8362 55.6239 34.9709 55.227C35.3856 54.1321 35.8608 53.0604 36.3127 51.9655C36.569 51.3459 36.7787 50.7169 37.1048 50.1019C37.2067 49.8464 37.3716 49.621 37.5843 49.4466C37.797 49.2722 38.0504 49.1546 38.3209 49.1048C38.5911 49.0736 38.865 49.1033 39.1223 49.1917C39.3796 49.2801 39.6138 49.4251 39.8077 49.6159C40.0017 49.8067 40.1504 50.0386 40.243 50.2944C40.3357 50.5502 40.3698 50.8235 40.3429 51.0943C40.2929 51.3809 40.2196 51.6629 40.124 51.9376V51.9376Z" fill="#2F4077"/>
<path d="M51.3291 66.1662C51.1959 66.7857 50.8222 67.327 50.29 67.6711C48.6081 68.7893 46.9262 69.9028 45.2768 71.063C43.4551 72.3489 41.6613 73.6721 39.8675 74.9953C39.2012 75.4891 38.535 75.7035 37.7755 75.2329C37.58 75.1119 37.4107 74.953 37.2776 74.7655C37.1444 74.5781 37.0501 74.3659 37.0001 74.1414C36.9502 73.9169 36.9457 73.6848 36.9868 73.4585C37.028 73.2323 37.114 73.0166 37.2398 72.8241C37.4859 72.4794 37.7883 72.1785 38.1343 71.9342C41.4656 69.5813 44.8109 67.2518 48.1422 64.9036C48.6054 64.5313 49.1885 64.3408 49.7822 64.3677C50.0025 64.3824 50.2177 64.4409 50.4152 64.5396C50.6127 64.6383 50.7886 64.7754 50.9325 64.9428C51.0765 65.1102 51.1857 65.3046 51.2538 65.5146C51.3219 65.7246 51.3475 65.9461 51.3291 66.1662Z" fill="#2F4077"/>
<path d="M78.1611 77.3069C78.4995 77.2704 78.8395 77.3587 79.1174 77.5552C79.3953 77.7516 79.5921 78.0427 79.6706 78.3738C79.7771 78.6742 79.7847 79.0008 79.6925 79.3058C79.6003 79.6109 79.4131 79.8785 79.1581 80.0697C78.7515 80.4366 78.3134 80.7672 77.8489 81.0575C74.9416 82.9801 72.0296 84.8966 69.113 86.8069C68.8638 86.9633 68.6038 87.1018 68.335 87.2215C67.9351 87.4182 67.4756 87.4564 67.0487 87.3285C66.6219 87.2007 66.2591 86.9161 66.0333 86.532C65.8431 86.1998 65.7762 85.8111 65.8444 85.4344C65.9125 85.0577 66.1114 84.7171 66.4061 84.4726C66.6536 84.2481 66.9237 84.0499 67.2121 83.8809C70.166 81.9458 73.1168 80.0169 76.0645 78.0943C76.7167 77.6843 77.3411 77.237 78.1611 77.3069Z" fill="#2F4077"/>
<path d="M52.1071 81.5001C51.7559 81.5386 51.4019 81.4611 51.099 81.2793C50.7961 81.0976 50.561 80.8216 50.4298 80.4937C50.2794 80.1627 50.2372 79.7928 50.3091 79.4365C50.381 79.0802 50.5634 78.7556 50.8305 78.5089C51.1713 78.1958 51.5392 77.9136 51.93 77.6656C54.4739 75.8765 57.0194 74.0889 59.5664 72.3029C60.0144 71.9834 60.4812 71.6909 60.9641 71.427C61.2398 71.2684 61.5515 71.1829 61.8696 71.1789C62.1877 71.1748 62.5015 71.2522 62.7812 71.4037C62.9658 71.5067 63.1279 71.6456 63.258 71.8122C63.3881 71.9788 63.4836 72.1698 63.5387 72.3739C63.5938 72.5779 63.6075 72.791 63.5791 73.0004C63.5506 73.2099 63.4805 73.4115 63.3729 73.5935C63.1953 73.927 62.9492 74.2191 62.6507 74.4508C60.4003 76.0768 58.136 77.6796 55.8717 79.2823C55.0144 79.888 54.1524 80.4937 53.2625 81.0528C52.8931 81.2398 52.5061 81.3896 52.1071 81.5001V81.5001Z" fill="#2F4077"/>
<path d="M99.8355 21.0989C99.8075 21.9841 98.68 22.9625 97.7761 22.9206C97.2899 22.8661 96.8415 22.6318 96.5192 22.2637C96.1968 21.8956 96.0236 21.4204 96.0336 20.9312C96.0675 20.4369 96.2929 19.9755 96.6619 19.645C97.0309 19.3145 97.5144 19.1412 98.0093 19.1618C98.5043 19.1825 98.9716 19.3955 99.3118 19.7556C99.652 20.1156 99.8383 20.5943 99.8308 21.0896L99.8355 21.0989Z" fill="#2F4077"/>
</svg>
