<svg aria-hidden="true" width="130" height="105" viewBox="0 0 130 105" fill="none" xmlns="http://www.w3.org/2000/svg">
<path d="M34.9921 96.3982C34.6117 95.6776 34.322 95.0996 34.0323 94.5217C26.7742 77.4209 19.4341 60.2523 12.176 43.1515C11.8775 42.4986 11.4329 41.8601 11.1344 41.2071C10.9354 40.7719 10.7276 40.2617 10.4291 39.6088C39.6669 29.3021 68.6855 19.017 97.9145 8.63532C104.933 26.2145 111.815 43.8831 118.851 61.6122C118.439 61.8801 118.027 62.1481 117.525 62.2734C105.334 67.3393 93.1354 72.3303 80.9451 77.3963C65.9293 83.5742 50.9954 89.8199 35.9885 96.0728C35.7781 96.1693 35.4859 96.198 34.9921 96.3982ZM48.5155 52.3869C48.9892 52.6435 49.3078 52.8396 49.5535 53.0428C52.22 54.9789 54.8135 56.9221 57.4713 58.7832C59.5736 60.3199 61.7577 61.9243 63.9331 63.4539C64.9798 64.1847 66.082 64.7586 67.2535 64.0368C68.4981 63.3078 69.6433 62.3612 70.0515 60.8049C70.3111 59.8696 70.6349 58.8523 70.9675 57.9098C71.3468 56.7354 71.7991 55.5537 72.2426 54.2971C72.9442 54.6071 73.409 54.7888 73.8738 54.9705C75.0402 55.4622 76.2155 56.0288 77.3819 56.5205C79.551 57.3683 81.5791 57.0171 82.3666 54.2863C82.5241 53.7401 82.7458 53.1118 82.9033 52.5657C84.6068 46.9398 86.3922 41.3816 88.0957 35.7557C88.3175 35.1274 88.5392 34.4991 88.8895 33.7065C89.3315 34.9518 89.5922 35.9116 90.0721 36.8499C90.6603 38.0808 91.9174 38.7152 92.9956 38.4574C94.147 38.1925 95.0289 36.8928 94.8703 35.5439C94.8086 35.0193 94.7381 34.4197 94.6034 33.9023C93.7394 30.955 92.9486 28.0004 91.9386 25.0675C91.6048 24.1148 90.9877 23.2659 90.3793 22.4918C89.6891 21.6501 88.6952 21.3688 87.6345 21.7765C87.0677 21.9839 86.5008 22.1912 86.0158 22.4664C83.6639 23.835 81.3938 25.2713 79.0507 26.7149C78.703 26.9007 78.3554 27.0865 78.0984 27.4151C77.1636 28.2652 76.9569 29.6501 77.5275 30.7311C78.0162 31.7443 79.4924 32.3571 80.6992 31.9351C81.4034 31.6384 82.09 31.1918 82.7853 30.8201C83.06 30.6414 83.4253 30.6055 83.9921 30.3981C81.927 37.3483 79.8997 43.9916 77.89 50.7848C77.1884 50.4748 76.7235 50.2931 76.2499 50.0365C74.9286 49.4842 73.6715 48.8498 72.3589 48.3725C70.0525 47.614 68.5887 48.3646 67.8214 50.6385C67.2582 52.1343 66.7769 53.6979 66.2956 55.2614C66.0184 56.0468 65.75 56.9071 65.4174 57.8495C62.4233 55.6425 59.593 53.5709 56.6896 51.5066C54.3505 49.8416 52.0845 48.1694 49.7454 46.5043C47.9707 45.2386 46.9478 45.3393 45.2623 46.7181C44.2544 47.5754 43.9394 48.6677 43.6333 49.835C42.4966 55.2535 41.433 60.6648 40.2233 66.0905C39.7482 68.3357 38.9721 70.5347 38.3509 72.7943C38.2048 72.8087 38.1317 72.8159 37.9856 72.8303C36.6128 69.3265 35.3131 65.8156 33.9404 62.3119C34.6357 61.9402 35.2668 61.6507 35.8161 61.2934C36.9788 60.4967 37.3405 59.1723 36.8254 57.9343C36.3279 56.8461 35.2257 56.2723 33.8463 56.4839C33.1245 56.6307 32.4846 56.8453 31.6986 57.0743C30.6419 54.3733 29.5298 51.8295 28.4908 49.2784C29.3701 48.5854 30.2028 48.1244 30.8717 47.5279C31.7422 46.76 31.6188 45.7108 31.2763 44.6831C30.9425 43.7305 29.9134 43.1495 28.8175 43.2573C28.233 43.3148 27.6573 43.4473 27.0905 43.6548C26.1671 43.9731 25.2614 44.4412 24.3468 44.8344C22.7369 45.5993 22.2669 46.6311 22.6976 48.4081C22.9319 49.1432 23.093 49.8854 23.3915 50.5383C25.0716 54.7699 26.8978 58.9871 28.5136 63.3008C30.8612 69.4377 33.2087 75.5747 35.3371 81.7332C36.1393 84.1559 37.0789 86.4893 38.3661 88.6369C39.4631 90.4242 40.457 90.7054 42.2772 89.844C42.9726 89.4723 43.668 89.1006 44.4452 88.7967C64.1799 80.6382 83.9876 72.4725 103.722 64.314C104.5 64.0101 105.35 63.699 106.036 63.2524C107.29 62.5983 107.777 61.7165 107.481 60.4568C107.051 58.6798 106.191 57.0209 104.983 55.5477C104.292 54.706 103.015 54.5284 102.036 55.0038C101.049 55.4042 100.514 56.5181 100.729 57.71C100.799 58.3095 101.007 58.8197 101.15 59.4121C95.2335 61.8896 89.3809 64.285 83.6013 66.6732C82.9665 65.6744 82.5597 64.7289 81.9426 63.8799C81.0622 62.6778 79.475 62.3792 78.3765 63.0938C77.3511 63.8011 76.9894 65.1255 77.5952 66.5062C77.8937 67.1591 78.2741 67.8798 78.6545 68.6004C73.4506 70.8562 68.2291 72.962 63.0076 75.0679C62.5189 74.0547 62.2028 73.2519 61.7494 72.5384C60.6788 70.976 59.074 70.5275 57.7739 71.4135C56.6754 72.1281 56.4864 73.6628 57.2647 75.254C57.5544 75.832 57.9171 76.4028 58.2244 77.1306C52.7283 79.4151 47.4514 81.6781 41.8734 83.8948C44.1088 73.3648 46.2889 62.9919 48.5155 52.3869Z" fill="white"/>
<path d="M33.1417 59.7665C45.8795 62.8962 58.4668 66.5089 70.9148 70.6819C71.9087 70.9815 72.7982 70.0395 72.9655 69.1639C74.2791 59.4241 74.3822 49.4045 73.319 39.4141C72.4577 40.0407 71.6685 40.6607 70.8181 41.3645C79.4843 45.1815 88.2337 49.0691 96.8999 52.8861C99.0873 53.8579 100.49 50.3662 98.2303 49.4009C89.5641 45.5839 80.8147 41.6964 72.1485 37.8794C70.8217 37.2976 69.499 38.2795 69.6476 39.8299C70.6556 49.4345 70.4973 59.0681 69.295 68.563C69.9508 68.0335 70.6788 67.4973 71.3456 67.045C58.8976 62.872 46.227 59.1887 33.5725 56.1295C31.2017 55.4091 30.793 59.2005 33.1417 59.7665Z" fill="#EAECF1"/>
<path d="M98.7553 2.66774C100.216 2.52399 101.263 3.25441 101.851 4.48447C102.331 5.42214 102.746 6.44188 103.162 7.46163C108.418 20.7328 113.592 33.9363 118.849 47.2074C120.637 51.7286 122.416 56.1749 124.204 60.6961C124.322 61.0634 124.447 61.5055 124.565 61.8728C125.159 63.7841 124.707 64.965 122.887 65.8259C120.646 66.8797 118.324 67.8658 115.992 68.7771C105.706 73.0469 95.4112 77.2418 85.0519 81.5188C68.9142 88.1826 52.7853 94.9213 36.5745 101.592C36.0077 101.8 35.4498 102.082 34.8742 102.214C33.2381 102.754 31.8439 102.209 30.9838 100.551C30.4134 99.4711 29.9071 98.3088 29.4828 97.2142C23.6447 83.3942 17.8066 69.5741 11.9774 55.829C10.4587 52.342 9.07726 48.7657 7.55856 45.2786C6.95284 43.8988 6.63931 42.4902 5.75021 41.214C5.05126 40.2979 4.88383 38.8749 4.8247 37.7443C4.72151 36.2393 5.65607 35.3897 6.9357 34.9607C8.78209 34.3245 10.7015 33.6811 12.5479 33.0448C23.9651 28.9668 35.4641 24.9565 46.8813 20.8784C59.6511 16.3643 72.3479 11.8573 85.1177 7.34308C89.0939 5.96696 93.0613 4.51595 97.0374 3.13984C97.6042 2.93255 98.1798 2.80014 98.7553 2.66774ZM34.9992 96.3683C35.5017 96.2431 35.7851 96.1395 35.9954 96.043C50.9996 89.7938 65.9396 83.6266 80.9438 77.3774C93.1318 72.3144 105.329 67.3263 117.517 62.2633C117.937 62.0704 118.349 61.8025 118.843 61.6024C111.798 43.8101 104.927 26.2281 97.9087 8.66038C68.6762 18.9612 39.6629 29.2405 10.4392 39.6162C10.7377 40.2687 10.9455 40.7785 11.1444 41.2135C11.5159 41.8588 11.8874 42.5041 12.1859 43.1566C19.4432 60.2461 26.7823 77.4034 34.0396 94.493C34.3292 95.0706 34.6189 95.6481 34.9992 96.3683Z" fill="#2F4077"/>
<path d="M48.4936 52.3217C46.2669 62.9276 44.0867 73.3014 41.7869 83.9145C47.3739 81.7725 52.6421 79.4345 58.1384 77.1498C57.758 76.429 57.4683 75.851 57.1786 75.273C56.3915 73.6067 56.5893 72.1467 57.6879 71.4321C58.9968 70.6209 60.5928 70.9946 61.6634 72.5571C62.1899 73.2635 62.4418 74.1485 62.9216 75.0869C68.1521 73.0558 73.3649 70.8748 78.5689 68.6189C78.1797 67.8232 77.8082 67.1775 77.5097 66.5245C76.9039 65.1436 77.2567 63.7442 78.291 63.1117C79.3895 62.3971 80.9767 62.6958 81.8571 63.898C82.4655 64.6721 82.9453 65.6105 83.5159 66.6916C89.2956 64.3032 95.1484 61.9076 101.065 59.4298C100.922 58.8375 100.705 58.2522 100.644 57.7276C100.429 56.5356 100.972 55.4966 101.951 55.0212C102.93 54.5457 104.207 54.7233 104.898 55.5651C106.097 56.9634 106.957 58.6225 107.397 60.4747C107.692 61.7344 107.132 62.6236 105.951 63.2704C105.183 63.6493 104.406 63.9533 103.637 64.3322C83.9022 72.4913 64.094 80.6577 44.3588 88.8168C43.6546 89.1136 42.9592 89.4853 42.1908 89.8642C40.4435 90.7185 39.3766 90.4444 38.2795 88.657C36.9923 86.5092 36.0527 84.1756 35.2505 81.7526C33.1221 75.5935 30.7745 69.4561 28.4269 63.3186C26.8199 59.0794 24.9937 54.8619 23.3048 50.555C22.9975 49.827 22.772 49.1669 22.6108 48.4246C22.1071 46.6546 22.6413 45.5406 24.2601 44.8506C25.1747 44.4573 26.0804 43.9891 27.0038 43.6708C27.5707 43.4634 28.1464 43.3309 28.7309 43.2734C29.8268 43.1655 30.856 43.7466 31.1897 44.6993C31.5323 45.727 31.6556 46.7763 30.7851 47.5443C30.1162 48.1408 29.3653 48.6696 28.4041 49.2949C29.4432 51.8462 30.4822 54.3975 31.612 57.0915C32.398 56.8625 33.111 56.6407 33.7598 56.5011C35.1304 56.2145 36.3144 56.8562 36.7389 57.9516C37.254 59.1898 36.8924 60.5143 35.7296 61.3111C35.1803 61.6684 34.5492 61.9579 33.8538 62.3296C35.2266 65.8337 36.5263 69.3449 37.8991 72.849C38.0452 72.8346 38.1183 72.8274 38.2644 72.813C38.8856 70.5532 39.5887 68.3612 40.1369 66.1086C41.3466 60.6824 42.4103 55.2706 43.547 49.8517C43.7713 48.6165 44.1594 47.5169 45.176 46.7346C46.8616 45.3556 47.8845 45.2549 49.6593 46.5208C51.9984 48.1859 54.2645 49.8583 56.6036 51.5235C59.434 53.5952 62.3374 55.6598 65.3316 57.867C65.6642 56.9245 65.9414 56.139 66.2098 55.2787C66.6911 53.715 67.1813 52.2262 67.7357 50.6554C68.5849 48.4489 69.9757 47.7055 72.2733 48.3892C73.5771 48.7916 74.843 49.501 76.1644 50.0533C76.6292 50.235 77.1028 50.4916 77.8044 50.8016C79.8142 44.0079 81.8416 37.364 83.9068 30.4132C83.413 30.6134 83.0477 30.6494 82.7 30.8352C82.0046 31.2069 81.3181 31.6536 80.6139 31.9503C79.4801 32.3652 78.0038 31.7523 77.442 30.7462C76.8627 29.5901 77.0782 28.2801 78.0129 27.4299C78.2788 27.1763 78.6265 26.9905 78.9653 26.7297C81.2354 25.2932 83.5786 23.8495 85.9306 22.4808C86.4156 22.2056 86.9824 21.9982 87.5493 21.7908C88.61 21.3831 89.6039 21.6644 90.2942 22.5062C90.9756 23.2732 91.5928 24.1222 91.8535 25.0822C92.7904 28.0226 93.6544 30.9702 94.5183 33.9178C94.653 34.4352 94.7878 34.9527 94.7852 35.5594C94.8796 36.9906 94.0619 38.2084 92.9105 38.4733C91.7591 38.7383 90.502 38.1038 89.9869 36.8657C89.5801 35.9201 89.2463 34.9674 88.8043 33.722C88.454 34.5146 88.2323 35.143 88.0105 35.7713C86.3069 41.3977 84.5215 46.9563 82.8179 52.5827C82.6604 53.1289 82.4387 53.7573 82.2811 54.3035C81.4936 57.0345 79.4743 57.4607 77.2963 56.5378C76.1299 56.0461 74.9546 55.4794 73.7882 54.9877C73.3234 54.806 72.7767 54.5566 72.1569 54.3143C71.7134 55.571 71.3341 56.7455 70.8818 57.9273C70.5492 58.8698 70.2254 59.8873 69.9658 60.8226C69.5575 62.3791 68.4124 63.3258 67.1677 64.0548C65.9873 64.7017 64.8209 64.21 63.8472 63.4718C61.6718 61.9422 59.5607 60.3304 57.3853 58.8007C54.7187 56.8645 52.1251 54.921 49.4673 53.0598C49.2859 52.7744 48.976 52.6533 48.4936 52.3217Z" fill="#2F4077"/>
</svg>
