<?xml version="1.0" encoding="UTF-8" standalone="no"?><!DOCTYPE svg PUBLIC "-//W3C//DTD SVG 1.1//EN" "http://www.w3.org/Graphics/SVG/1.1/DTD/svg11.dtd"><svg width="100%" height="100%" viewBox="0 0 13 13" version="1.1" xmlns="http://www.w3.org/2000/svg" xmlns:xlink="http://www.w3.org/1999/xlink" xml:space="preserve" xmlns:serif="http://www.serif.com/" style="fill-rule:evenodd;clip-rule:evenodd;stroke-linejoin:round;stroke-miterlimit:2;"><rect id="Plan-de-travail1" serif:id="Plan de travail1" x="0" y="0" width="12.25" height="12.25" style="fill:none;"/><path d="M3.5,0l-2.625,0c-0.492,0 -0.875,0.41 -0.875,0.875l0,10.5c0,0.492 0.383,0.875 0.875,0.875l2.625,0c0.219,0 0.438,-0.191 0.438,-0.438l-0.001,-0.437c0,-0.219 -0.218,-0.438 -0.437,-0.438l-2.188,0.001l0,-9.625l2.188,-0c0.219,-0 0.437,-0.192 0.437,-0.438l0,-0.437c0,-0.219 -0.218,-0.438 -0.437,-0.438Zm7.875,0l-2.625,0c-0.246,0 -0.438,0.219 -0.438,0.438l0.001,0.437c-0,0.246 0.191,0.438 0.437,0.438l2.188,-0l-0,9.625l-2.188,-0c-0.246,-0 -0.437,0.218 -0.437,0.437l-0,0.438c-0,0.246 0.191,0.437 0.437,0.437l2.625,0c0.465,0 0.875,-0.383 0.875,-0.875l0,-10.5c0,-0.465 -0.41,-0.875 -0.875,-0.875Z" style="fill:#3a3a3a;fill-rule:nonzero;"/></svg>