<svg aria-hidden="true" width="14" height="13" viewBox="0 0 14 13" fill="none" xmlns="http://www.w3.org/2000/svg">
<path d="M12.6875 0.625H1.3125C0.574219 0.625 0 1.22656 0 1.9375V4.125C0 4.37109 0.191406 4.5625 0.4375 4.5625H0.875V12C0.875 12.4922 1.25781 12.875 1.75 12.875H12.25C12.7148 12.875 13.125 12.4922 13.125 12V4.5625H13.5625C13.7812 4.5625 14 4.37109 14 4.125V1.9375C14 1.22656 13.3984 0.625 12.6875 0.625ZM11.8125 11.5625H2.1875V4.5625H11.8125V11.5625ZM12.6875 3.25H1.3125V1.9375H12.6875V3.25ZM5.57812 7.1875H8.42188C8.58594 7.1875 8.75 7.05078 8.75 6.85938V6.20312C8.75 6.03906 8.58594 5.875 8.42188 5.875H5.57812C5.38672 5.875 5.25 6.03906 5.25 6.20312V6.85938C5.25 7.05078 5.38672 7.1875 5.57812 7.1875Z" fill="#3A3A3A"/>
</svg>
