<svg width="100%" height="100%" viewBox="0 0 12 12.5" version="1.1" xmlns="http://www.w3.org/2000/svg" xmlns:xlink="http://www.w3.org/1999/xlink" xml:space="preserve" style="fill-rule:evenodd;clip-rule:evenodd;stroke-linejoin:round;stroke-miterlimit:2;">
<rect x="0" y="0" width="10.5" height="12.5" style="fill:none;"/>
<path d="M2.54105 2.67197C1.71061 3.53489 1.2 4.70782 1.2 6C1.2 8.65098 3.34903 10.8 6 10.8C6.64848 10.8 7.26696 10.6714 7.83126 10.4383C7.90026 9.98802 7.74888 9.55596 7.68696 9.40476C7.5492 9.069 7.09446 8.49492 6.33534 7.69848C6.13272 7.48548 6.14574 7.3221 6.21816 6.83658L6.2265 6.78174C6.2757 6.44916 6.35826 6.25254 7.47732 6.07488C8.04582 5.98476 8.19534 6.21198 8.40258 6.52662C8.4255 6.56148 8.44842 6.59568 8.47188 6.62994C8.66874 6.91782 8.8146 6.98364 9.03492 7.08384C9.13362 7.1286 9.2568 7.18506 9.42186 7.27884C9.81306 7.5024 9.81306 7.75482 9.81306 8.30832V8.37108C9.81306 8.60604 9.79008 8.81232 9.75396 8.99154C10.4087 8.1711 10.8 7.13124 10.8 6C10.8 4.02053 9.6018 2.32092 7.89114 1.58689C7.55922 1.81088 7.10388 2.12836 6.945 2.346C6.86376 2.45723 6.74892 3.025 6.37542 3.07186C6.27756 3.08414 6.14628 3.07553 6.0072 3.06658C5.6343 3.04235 5.12412 3.00964 4.9608 3.45297C4.85712 3.73392 4.83888 4.49667 5.17434 4.89258C5.22804 4.95582 5.23842 5.07282 5.20194 5.2041C5.154 5.37648 5.05716 5.48136 5.02698 5.50302C4.96914 5.46978 4.85376 5.33586 4.77563 5.24472C4.58732 5.0259 4.35243 4.7534 4.04878 4.66906C3.93837 4.6385 3.817 4.6132 3.69929 4.58842C3.36984 4.51936 2.99666 4.4408 2.90995 4.25581C2.84665 4.12032 2.84693 3.93373 2.84717 3.73658C2.84717 3.48672 2.84717 3.20417 2.72477 2.92954C2.67748 2.82325 2.61413 2.73868 2.54105 2.67197ZM6 12C2.68629 12 0 9.31368 0 6C0 2.68629 2.68629 0 6 0C9.31368 0 12 2.68629 12 6C12 9.31368 9.31368 12 6 12Z" style="fill:#3a3a3a;fill-rule:nonzero;"/>
</svg>
