<svg width="36" height="36" viewBox="0 0 36 36" fill="none" xmlns="http://www.w3.org/2000/svg">
<path d="M19.5859 16.1641C19.2852 15.8633 18.957 15.6445 18.6016 15.4531C18.4648 15.3984 18.3281 15.4258 18.2188 15.5352L18.1094 15.6445C17.8633 15.8633 17.7266 16.1641 17.6992 16.4648C17.6719 16.6016 17.7539 16.7383 17.8633 16.8203C18.0547 16.9023 18.3555 17.0938 18.4922 17.2578C19.3945 18.1602 19.3945 19.6094 18.4922 20.5117L16.4414 22.5625C15.5391 23.4648 14.0898 23.4648 13.1875 22.5625C12.2852 21.6602 12.2852 20.2109 13.1875 19.3086L14.4453 18.0508C14.5273 17.9688 14.5547 17.8594 14.5273 17.75C14.4727 17.4766 14.418 17.0117 14.3906 16.7109C14.3906 16.4375 14.0352 16.3008 13.8438 16.4922C13.5156 16.8203 12.9961 17.3398 12.1211 18.2148C10.6172 19.7188 10.6172 22.1523 12.1211 23.6289C13.5977 25.1328 16.0312 25.1328 17.5352 23.6289C19.7773 21.3867 19.668 21.4961 19.832 21.2773C21.0625 19.8008 20.9805 17.5586 19.5859 16.1641ZM23.8516 11.8984C22.375 10.3945 19.9414 10.3945 18.4375 11.8984C16.1953 14.1406 16.3047 14.0312 16.1406 14.25C14.9102 15.7266 14.9922 17.9688 16.3867 19.3633C16.6875 19.6641 17.0156 19.8828 17.3711 20.0742C17.5078 20.1289 17.6445 20.1016 17.7539 19.9922L17.8633 19.8828C18.1094 19.6641 18.2461 19.3633 18.2734 19.0625C18.3008 18.9258 18.2188 18.7891 18.1094 18.707C17.918 18.625 17.6172 18.4336 17.4805 18.2695C16.5781 17.3672 16.5781 15.918 17.4805 15.0156L19.5312 12.9648C20.4336 12.0625 21.8828 12.0625 22.7852 12.9648C23.6875 13.8672 23.6875 15.3164 22.7852 16.2188L21.5273 17.4766C21.4453 17.5586 21.418 17.668 21.4453 17.7773C21.5 18.0508 21.5547 18.5156 21.582 18.8164C21.582 19.0898 21.9375 19.2266 22.1289 19.0352C22.457 18.707 22.9766 18.1875 23.8516 17.3125C25.3555 15.8086 25.3555 13.375 23.8516 11.8984Z" fill="#3A3A3A"/>
</svg>
