<svg width="100%" height="100%" viewBox="0 0 12 12" version="1.1" xmlns="http://www.w3.org/2000/svg" xmlns:xlink="http://www.w3.org/1999/xlink" xml:space="preserve" style="fill-rule:evenodd;clip-rule:evenodd;stroke-linejoin:round;stroke-miterlimit:2;">
<rect x="0" y="0" width="11.986" height="11.986" style="fill:none;"/>
<path d="M0 1.8L4.2 0L7.8 1.8L11.5818 0.17922C11.7341 0.113952 11.9105 0.184494 11.9758 0.336786C11.9917 0.37413 12 0.414336 12 0.454962V10.2L7.8 12L4.2 10.2L0.418176 11.8208C0.265884 11.8861 0.089526 11.8155 0.024258 11.6632C0.00825004 11.6259 0 11.5856 0 11.545V1.8ZM8.4 10.4373L10.8 9.40872V1.81985L8.4 2.84842V10.4373ZM7.2 10.3583V2.84164L4.8 1.64164V9.15834L7.2 10.3583ZM3.6 9.15156V1.56271L1.2 2.59127V10.1801L3.6 9.15156Z"  style="fill:#3a3a3a;fill-rule:nonzero;"/>
</svg>
