<svg width="83" height="89" viewBox="0 0 83 89" fill="none" xmlns="http://www.w3.org/2000/svg">
<path d="M5.34968 33.8643C5.01172 32.8027 4.68571 31.7809 4.36764 30.7551C3.97004 29.4669 4.22448 28.9222 5.48883 28.3695C6.64185 27.8725 7.80282 27.3954 9.06716 26.8706C8.66957 25.7017 8.3515 24.5725 7.92607 23.4791C7.41318 22.1512 7.66365 21.4912 9.05523 21.0141C12.884 19.7179 16.7169 18.4456 20.5497 17.1654L44.6677 9.11012C46.0831 8.63698 46.6795 8.90734 47.252 10.3466C48.6197 13.7553 49.9822 17.1667 51.3393 20.5807C51.4069 20.7477 51.4983 20.9027 51.6534 21.2248C51.8919 20.8272 52.0788 20.5091 52.2577 20.191C55.6266 14.1423 58.9956 8.09493 62.3645 2.04886C63.4182 0.16029 64.6944 -0.193574 66.5671 0.899807C71.5184 3.79429 76.4671 6.6954 81.4132 9.60313C82.268 10.1041 82.4748 10.6806 82.1209 11.5911C81.996 11.8913 81.8498 12.1823 81.6836 12.4618C76.2684 22.2453 70.8505 32.0287 65.43 41.8122C64.8102 42.9517 64.1156 44.0488 63.3506 45.0963C62.9848 45.5893 62.3486 45.8915 61.7403 46.3209C62.2611 48.0345 62.7939 49.8157 63.3307 51.5969C63.8674 53.3781 64.3525 55.052 64.921 56.7656C65.0681 57.1927 65.1226 57.6462 65.0808 58.0959C65.0389 58.5456 64.9018 58.9812 64.6785 59.3739C64.3927 59.8154 63.9755 60.1561 63.4857 60.348C62.3924 60.8052 61.2473 61.1431 60.1261 61.5407C59.8915 61.6242 59.6649 61.7236 59.3627 61.8469C59.6649 63.1669 59.9551 64.4551 60.2533 65.7433C60.6509 67.4768 60.3606 68.0692 58.6629 68.7054C57.5815 69.103 56.4762 69.4369 55.3828 69.8067C55.1977 69.8872 55.0184 69.9802 54.846 70.085C55.2436 71.3454 55.6412 72.574 55.9871 73.8105C56.1436 74.2509 56.2243 74.7147 56.2257 75.1822C56.1581 76.0768 55.4305 76.4227 54.7029 76.6771C52.2855 77.5081 49.8602 78.3152 47.4349 79.1382L20.2157 88.3544C19.9056 88.4618 19.5994 88.5652 19.2853 88.6486C18.2039 88.9389 17.8619 88.7361 17.1781 87.8773C16.6121 87.0919 16.192 86.2111 15.9376 85.2771C10.8219 70.0174 5.69822 54.7538 0.566622 39.4863C0.372873 38.9121 0.20964 38.3282 0.0775905 37.7368C-0.200725 36.4486 0.12131 35.8562 1.35385 35.3831C2.46711 34.9577 3.58834 34.5879 4.70558 34.1625C4.8845 34.075 5.07534 33.9836 5.34968 33.8643ZM45.4032 32.4966C46.7908 30.0116 48.1426 27.5465 49.5422 25.1053C49.6536 24.9039 49.712 24.6775 49.712 24.4473C49.712 24.2171 49.6536 23.9907 49.5422 23.7893C48.1055 20.2109 46.6742 16.6326 45.2481 13.0542C45.1209 12.7362 44.9539 12.434 44.7989 12.1119L10.9239 23.4235C16.1602 38.9932 21.3448 54.4039 26.5652 69.9419L62.2293 57.7795C61.1518 54.2608 60.1261 50.9011 59.0764 47.4779L55.172 49.3426C53.029 50.3723 50.8979 51.4299 48.735 52.4239C47.252 53.1078 45.9519 52.4239 45.7451 50.9011C45.4827 49.1557 45.2839 47.3984 45.0533 45.6489C44.8187 43.8319 44.5762 42.0149 44.3416 40.2337C41.5187 39.5459 40.2345 37.9953 40.481 35.6614C40.7076 33.5263 42.2225 32.5443 45.4032 32.4966ZM2.96412 37.8561C3.56846 39.6135 4.15691 41.2754 4.71354 42.9413C9.27791 56.486 13.8409 70.0333 18.4026 83.5833C18.6372 84.2791 18.9275 84.959 19.1978 85.6707L53.1086 74.1961C52.7428 73.0034 52.4207 72.0054 52.0868 70.9359C51.6097 71.075 51.2279 71.1744 50.8542 71.2977C45.5145 73.059 40.1947 74.876 34.8312 76.5737C30.7877 77.854 26.8794 79.5557 22.6609 80.3191C21.5357 80.5218 20.8478 80.2515 20.3866 79.2177C20.1086 78.5533 19.8644 77.8752 19.6551 77.186C15.3293 64.0893 11.0048 50.9926 6.68161 37.8959C6.5504 37.4983 6.39136 37.1007 6.22834 36.6593L2.96412 37.8561ZM7.30187 30.6994C7.98971 32.7629 8.64574 34.7032 9.28984 36.6633C13.6766 49.9323 18.0607 63.1974 22.4422 76.4585C22.7881 77.5081 22.8398 77.5319 23.794 77.2178C34.7199 73.605 45.6444 69.9909 56.5676 66.3755C56.834 66.288 57.0845 66.1528 57.3628 66.0296L56.5676 62.7972C56.1064 62.9244 55.7724 63.0039 55.4305 63.1192C50.4897 64.7997 45.549 66.4881 40.6082 68.1845C35.8132 69.8425 31.0302 71.5362 26.2392 73.2101C25.9163 73.339 25.5568 73.3423 25.2316 73.2194C24.9063 73.0965 24.6389 72.8563 24.4819 72.5461C24.2979 72.1953 24.1475 71.8279 24.0326 71.4488C22.6516 67.3535 21.2759 63.2584 19.9056 59.1631C16.7248 49.6819 13.5374 40.1979 10.3434 30.7114C10.2241 30.3535 10.0651 30.0116 9.90608 29.622L7.30187 30.6994ZM69.7558 6.10829L52.6275 37.3392L56.3728 39.3869C62.1101 29.0296 67.8036 18.7557 73.5449 8.37458L69.7558 6.10829ZM75.8946 9.72638C70.209 20.1155 64.5791 30.4012 58.9174 40.7387L61.8477 42.329C67.569 31.9916 73.2308 21.7575 78.9203 11.4837L75.8946 9.72638ZM50.0749 35.9238L67.3066 4.68092C66.5114 4.21972 65.7719 3.77045 64.9489 3.27743C59.1122 13.762 53.3471 24.1272 47.5582 34.5322L50.0749 35.9238ZM47.1287 37.5738L46.922 37.7448C47.1605 39.526 47.3912 41.3231 47.6536 43.0845C47.7065 43.286 47.8364 43.4588 48.0154 43.5655C49.6667 44.6019 51.3233 45.6238 52.9853 46.631C53.1011 46.7077 53.2313 46.7603 53.3679 46.7855C53.5046 46.8108 53.6448 46.8083 53.7805 46.7781C55.5378 45.9829 57.2713 45.1162 59.2036 44.1858L47.1287 37.5738Z" fill="#2F4077"/>
<path d="M45.4031 32.4965C42.1985 32.5443 40.6996 33.5263 40.4729 35.6773C40.2264 38.0112 41.5107 39.5618 44.3336 40.2496C44.5682 42.0308 44.8107 43.8478 45.0452 45.6648C45.2759 47.4142 45.4746 49.1716 45.7371 50.917C45.9637 52.4597 47.2439 53.1237 48.727 52.4398C50.8899 51.4458 53.021 50.3882 55.164 49.3585L59.0684 47.4937C60.118 50.917 61.1438 54.2767 62.2213 57.7954L26.5651 69.9419C21.3447 54.4119 16.1601 39.0012 10.9238 23.4235L44.8107 12.104C44.9657 12.4261 45.1327 12.7282 45.26 13.0463C46.6913 16.622 48.1226 20.2003 49.5539 23.7813C49.6653 23.9827 49.7238 24.2091 49.7238 24.4393C49.7238 24.6695 49.6653 24.8959 49.5539 25.0973C48.1504 27.5465 46.7986 30.0116 45.4031 32.4965ZM30.7438 43.1282C30.6564 40.3132 28.8871 38.9296 26.3226 38.8262C24.2352 38.7427 22.5256 40.6353 22.5137 42.8578C22.513 43.9914 22.9524 45.0809 23.7393 45.8968C24.5263 46.7127 25.5993 47.1912 26.7321 47.2313C27.2688 47.2375 27.8012 47.135 28.2972 46.9299C28.7932 46.7248 29.2424 46.4214 29.618 46.038C29.9936 45.6546 30.2877 45.1992 30.4826 44.6991C30.6774 44.199 30.769 43.6646 30.7518 43.1282H30.7438ZM31.7616 39.4584C31.7503 40.0004 31.8485 40.5391 32.0504 41.0422C32.2522 41.5453 32.5536 42.0025 32.9363 42.3864C33.3191 42.7702 33.7754 43.0729 34.2779 43.2762C34.7804 43.4795 35.3188 43.5793 35.8609 43.5695C36.9518 43.5459 37.991 43.1002 38.76 42.3261C39.5289 41.5519 39.9677 40.5097 39.9839 39.4186C39.9459 38.3519 39.4941 37.3418 38.7242 36.6025C37.9544 35.8631 36.9269 35.4525 35.8594 35.4576C34.792 35.4628 33.7686 35.8833 33.0059 36.6301C32.2432 37.3769 31.8012 38.3913 31.7736 39.4584H31.7616ZM39.638 22.9742C37.6222 23.002 35.9921 24.7952 36.0597 26.9501C36.1074 29.3118 38.0476 31.3793 40.2344 31.3753C40.7499 31.3803 41.2611 31.2813 41.7374 31.0842C42.2138 30.887 42.6454 30.5958 43.0066 30.228C43.3678 29.8601 43.651 29.4232 43.8394 28.9433C44.0278 28.4634 44.1174 27.9505 44.103 27.4352C44.0155 25.0496 42.5285 23.0259 39.646 22.9742H39.638ZM29.6982 53.4974C30.056 54.5351 30.3979 55.541 30.7478 56.5469C30.8815 56.9937 31.049 57.4297 31.2488 57.8511C31.391 58.146 31.6335 58.3807 31.9328 58.5132C32.2322 58.6458 32.5689 58.6676 32.8829 58.5747C33.1991 58.4851 33.4709 58.2815 33.6457 58.0031C33.8205 57.7248 33.8859 57.3915 33.8292 57.0678C33.789 56.7475 33.713 56.4328 33.6025 56.1295C33.2738 55.1037 32.9346 54.0805 32.5847 53.06C32.2865 52.1774 32.0201 51.2788 31.6424 50.428C31.1613 49.3585 29.9765 49.0046 29.1574 49.7839C27.7778 51.0959 26.4975 52.5154 25.2531 53.9586C25.1387 54.089 25.0521 54.2413 24.9982 54.4061C24.9443 54.571 24.9244 54.7451 24.9396 54.9178C24.9548 55.0906 25.0049 55.2585 25.0868 55.4114C25.1687 55.5643 25.2807 55.699 25.4161 55.8074C25.6577 56.0293 25.9712 56.1567 26.2991 56.1661C26.6269 56.1756 26.9472 56.0666 27.2013 55.8591C27.4529 55.6566 27.6882 55.4346 27.905 55.1951L29.6982 53.4974ZM22.4341 33.1208C22.6806 33.8603 22.8317 34.4129 23.0464 34.9497C23.2406 35.5249 23.484 36.0822 23.774 36.6156C23.9227 36.8696 24.1601 37.0596 24.4405 37.1492C24.7209 37.2387 25.0244 37.2215 25.2928 37.1007C25.5572 37.0283 25.7894 36.8688 25.9518 36.648C26.1141 36.4271 26.1972 36.158 26.1874 35.884C26.2021 35.5965 26.1739 35.3084 26.1039 35.0292C25.591 33.415 25.102 31.7928 24.5135 30.2024C23.9251 28.6121 22.4659 28.3616 21.3805 29.7571C20.3587 31.0652 19.3925 32.4051 18.3946 33.7331C18.2633 33.9044 18.1539 34.0914 18.0686 34.2897C17.9344 34.5696 17.8992 34.8868 17.9686 35.1894C18.0381 35.4919 18.2081 35.7619 18.4509 35.9553C18.6937 36.1488 18.9949 36.2541 19.3054 36.2541C19.6158 36.2542 19.917 36.1489 20.1599 35.9556C20.4347 35.722 20.6792 35.4549 20.8875 35.1604C21.3885 34.5561 21.8537 33.908 22.4421 33.1208H22.4341ZM38.8428 49.5135C39.0018 50.0543 39.1092 50.424 39.2404 50.7938C39.5426 51.7917 39.797 52.8096 40.1668 53.7837C40.2881 54.0883 40.5172 54.3377 40.8105 54.4843C41.1037 54.6309 41.4407 54.6646 41.7571 54.5789C42.0722 54.4882 42.3453 54.2895 42.5285 54.0176C42.7118 53.7457 42.7934 53.4179 42.7591 53.0919C42.7567 52.9476 42.7339 52.8044 42.6915 52.6664C42.0832 50.7103 41.5425 48.7303 40.8308 46.8139C40.3457 45.5018 39.2086 45.2911 38.147 46.2175C37.0854 47.1439 36.1312 48.0782 35.169 49.0523C34.4812 49.7521 34.4454 50.6149 34.9941 51.1794C35.5428 51.744 36.3459 51.7361 37.1252 51.088C37.666 50.6467 38.1749 50.1377 38.8508 49.5135H38.8428ZM30.6921 29.1925L31.1692 30.5046C31.4157 31.1805 31.6106 31.8843 31.9207 32.5284C32.0604 32.8471 32.3156 33.1013 32.6348 33.2399C32.9541 33.3786 33.314 33.3914 33.6423 33.2758C33.964 33.1494 34.2296 32.9117 34.3908 32.6059C34.5521 32.3002 34.5983 31.9468 34.521 31.6099C34.5016 31.5027 34.4723 31.3976 34.4335 31.2958C33.9962 29.9997 33.5866 28.6955 33.1055 27.4153C32.8932 26.8792 32.6039 26.377 32.2467 25.9243C31.6623 25.1649 30.72 24.9979 30.0679 25.6579C28.9348 26.811 27.8931 28.0435 26.8872 29.3158C26.6996 29.5222 26.5993 29.7933 26.6074 30.0721C26.6156 30.3509 26.7316 30.6157 26.9309 30.8108C27.2868 31.1448 27.7479 31.3445 28.235 31.3753C28.5928 31.3753 29.0064 31.0334 29.3085 30.7511C29.7737 30.3138 30.1713 29.785 30.6921 29.1925Z" fill="white"/>
<path d="M2.96387 37.8561L6.23207 36.6633C6.39508 37.1086 6.55413 37.5022 6.68533 37.8998C11.0111 50.9966 15.3356 64.0933 19.6588 77.19C19.8681 77.8792 20.1123 78.5573 20.3904 79.2217C20.8516 80.2555 21.5394 80.5258 22.6646 80.323C26.8712 79.5596 30.7914 77.858 34.8349 76.5777C40.1985 74.88 45.5182 73.063 50.8579 71.3016C51.2317 71.1784 51.6133 71.079 52.0904 70.9398C52.4244 72.0094 52.7465 73.0272 53.1123 74.2001L19.2016 85.6746C18.9272 84.9629 18.637 84.2831 18.4064 83.5873C13.8394 70.0426 9.27633 56.4953 4.71727 42.9453C4.15268 41.2754 3.56821 39.6135 2.96387 37.8561Z" fill="#979FBB"/>
<path d="M7.30176 30.7115L9.92586 29.6182C10.0849 30.0158 10.2439 30.3497 10.3632 30.7076C13.544 40.1888 16.7313 49.6727 19.9253 59.1593C21.301 63.2545 22.6767 67.3497 24.0524 71.4449C24.1673 71.824 24.3177 72.1914 24.5016 72.5423C24.6587 72.8525 24.9261 73.0927 25.2513 73.2156C25.5766 73.3385 25.936 73.3352 26.259 73.2063C31.05 71.5324 35.833 69.8387 40.628 68.1807C45.5634 66.4737 50.5042 64.7853 55.4503 63.1154C55.7843 63.0001 56.1262 62.9206 56.5874 62.7933L57.3826 66.0258C57.0963 66.149 56.8458 66.2842 56.5874 66.3717C45.6668 69.9898 34.7423 73.6039 23.8138 77.214C22.8516 77.5281 22.8079 77.5043 22.462 76.4546C18.0752 63.2015 13.6911 49.9365 9.30957 36.6595C8.64559 34.7153 7.98959 32.7751 7.30176 30.7115Z" fill="#CBCFDD"/>
<path d="M69.7552 6.12036L73.5443 8.37075C67.8031 18.74 62.1095 29.0138 56.3722 39.383L52.627 37.3354L69.7552 6.12036Z" fill="white"/>
<path d="M75.8942 9.73853L78.9199 11.5237C73.2304 21.7975 67.5686 32.0316 61.8473 42.369L58.917 40.7786C64.5787 30.4134 70.2086 20.1276 75.8942 9.73853Z" fill="#CBCFDD"/>
<path d="M50.0744 35.9357L47.5576 34.5441C53.3466 24.1391 59.1117 13.7738 64.9483 3.28931C65.7714 3.78232 66.5387 4.23161 67.306 4.69282L50.0744 35.9357Z" fill="#CBCFDD"/>
<path d="M47.1286 37.5859L59.2035 44.1979C57.2712 45.1283 55.5377 45.9831 53.7804 46.7902C53.6447 46.8204 53.5044 46.8229 53.3678 46.7977C53.2312 46.7724 53.101 46.7198 52.9852 46.6431C51.3206 45.6412 49.6639 44.6194 48.0153 43.5777C47.8363 43.4709 47.7064 43.2982 47.6535 43.0966C47.3911 41.3193 47.1604 39.5182 46.9219 37.7569L47.1286 37.5859Z" fill="white"/>
<path d="M30.7517 43.1284C30.7667 43.6628 30.6737 44.1948 30.4784 44.6925C30.2831 45.1902 29.9893 45.6434 29.6148 46.025C29.2403 46.4065 28.7927 46.7086 28.2987 46.9132C27.8048 47.1178 27.2746 47.2207 26.74 47.2156C25.6071 47.1755 24.5341 46.697 23.7472 45.8811C22.9602 45.0652 22.5208 43.9757 22.5215 42.8421C22.5215 40.6196 24.2431 38.727 26.3305 38.8105C28.8949 38.9298 30.6642 40.3134 30.7517 43.1284ZM26.7161 44.2655C27.0237 44.2658 27.3195 44.1472 27.5418 43.9346C27.764 43.722 27.8956 43.4317 27.9089 43.1244C27.9089 42.4405 27.2131 41.6374 26.5968 41.6414C26.2892 41.658 25.9983 41.7864 25.7787 42.0024C25.5591 42.2183 25.4259 42.507 25.404 42.8143C25.4085 43.1745 25.5443 43.5206 25.7859 43.7878C26.0274 44.055 26.3582 44.2249 26.7161 44.2655V44.2655Z" fill="#2F4077"/>
<path d="M31.7694 39.4583C31.7971 38.3912 32.2391 37.3768 33.0018 36.63C33.7645 35.8833 34.7879 35.4627 35.8553 35.4576C36.9228 35.4524 37.9502 35.863 38.7201 36.6024C39.49 37.3417 39.9418 38.3518 39.9797 39.4185C39.9636 40.5089 39.5254 41.5505 38.7573 42.3245C37.9891 43.0986 36.9509 43.5448 35.8607 43.5693C35.3193 43.578 34.7818 43.4775 34.2802 43.2737C33.7786 43.0699 33.3232 42.7671 32.9413 42.3833C32.5594 41.9995 32.2588 41.5427 32.0575 41.0401C31.8561 40.5376 31.7581 39.9996 31.7694 39.4583ZM37.0455 39.3986C37.0463 39.2447 37.0156 39.0922 36.9551 38.9506C36.8946 38.809 36.8057 38.6814 36.6939 38.5755C36.5821 38.4697 36.4497 38.3879 36.3051 38.3353C36.1604 38.2826 36.0064 38.2602 35.8527 38.2695C35.5251 38.2768 35.2134 38.4126 34.9851 38.6477C34.7567 38.8827 34.63 39.1982 34.6321 39.5259C34.634 39.6783 34.6668 39.8288 34.7284 39.9683C34.7901 40.1077 34.8793 40.2332 34.9907 40.3372C35.1022 40.4413 35.2336 40.5216 35.3769 40.5735C35.5203 40.6254 35.6727 40.6477 35.8249 40.6391C35.9886 40.6442 36.1516 40.6154 36.3037 40.5547C36.4559 40.494 36.5939 40.4026 36.7092 40.2862C36.8244 40.1699 36.9145 40.031 36.9737 39.8783C37.033 39.7256 37.0601 39.5623 37.0535 39.3986H37.0455Z" fill="#2F4077"/>
<path d="M39.6465 22.9741C42.529 23.0417 44.02 25.0496 44.0915 27.4153C44.1087 27.9312 44.0215 28.4453 43.835 28.9267C43.6486 29.4081 43.3668 29.8469 43.0067 30.2167C42.6465 30.5866 42.2153 30.8798 41.739 31.0789C41.2627 31.278 40.7511 31.3788 40.2349 31.3753C38.0601 31.3753 36.1079 29.3118 36.0602 26.9501C36.0005 24.7951 37.6307 23.002 39.6465 22.9741ZM41.1732 27.4033C41.1971 26.6082 40.553 25.813 39.881 25.813C39.3363 25.813 38.9706 26.2583 38.9666 26.9222C38.9515 27.283 39.0695 27.6367 39.2982 27.916C39.527 28.1954 39.8505 28.3808 40.2071 28.4371C40.7916 28.4649 41.1533 28.0793 41.1732 27.3994V27.4033Z" fill="#2F4077"/>
<path d="M29.7059 53.4975L27.9127 55.1952C27.6959 55.4346 27.4606 55.6567 27.209 55.8592C26.955 56.0667 26.6346 56.1757 26.3067 56.1662C25.9789 56.1567 25.6654 56.0294 25.4238 55.8075C25.2884 55.6991 25.1764 55.5644 25.0946 55.4115C25.0127 55.2586 24.9626 55.0907 24.9473 54.9179C24.9321 54.7452 24.952 54.5711 25.0059 54.4062C25.0598 54.2414 25.1465 54.0891 25.2608 53.9587C26.5053 52.5154 27.7855 51.096 29.1652 49.784C29.9842 48.9888 31.1531 49.3586 31.6501 50.4281C32.0278 51.2789 32.2942 52.1775 32.5924 53.0601C32.9423 54.0833 33.2816 55.1064 33.6102 56.1296C33.7207 56.4328 33.7968 56.7476 33.8369 57.0679C33.8936 57.3916 33.8282 57.7249 33.6534 58.0032C33.4786 58.2816 33.2069 58.4852 32.8906 58.5747C32.5767 58.6676 32.2399 58.6458 31.9406 58.5133C31.6412 58.3807 31.3987 58.146 31.2565 57.8511C31.0567 57.4297 30.8893 56.9938 30.7555 56.547C30.4057 55.5411 30.0637 54.5352 29.7059 53.4975Z" fill="#2F4077"/>
<path d="M22.4425 33.1208C21.8541 33.916 21.3889 34.5481 20.9038 35.1684C20.6955 35.4628 20.4511 35.73 20.1762 35.9636C19.9334 36.1569 19.6321 36.2622 19.3217 36.2621C19.0113 36.2621 18.7101 36.1567 18.4672 35.9633C18.2244 35.7699 18.0544 35.4999 17.985 35.1973C17.9155 34.8948 17.9508 34.5776 18.0849 34.2977C18.1702 34.0994 18.2797 33.9124 18.4109 33.741C19.4009 32.4091 20.375 31.0692 21.3968 29.7651C22.4823 28.3695 23.9255 28.5723 24.5299 30.2104C25.1342 31.8485 25.5994 33.423 26.1202 35.0372C26.1903 35.3164 26.2184 35.6045 26.2037 35.892C26.2134 36.1659 26.1304 36.4351 25.968 36.6559C25.8057 36.8767 25.5735 37.0363 25.3091 37.1087C25.0407 37.2294 24.7371 37.2467 24.4568 37.1572C24.1764 37.0676 23.9391 36.8776 23.7903 36.6236C23.5004 36.0902 23.257 35.5329 23.0628 34.9577C22.8481 34.413 22.689 33.8603 22.4425 33.1208Z" fill="#2F4077"/>
<path d="M38.8513 49.5137C38.1754 50.1379 37.6586 50.6468 37.1178 51.1041C36.3227 51.7521 35.5275 51.768 34.9867 51.1955C34.446 50.623 34.4738 49.7682 35.1617 49.0684C36.1238 48.0943 37.1099 47.1361 38.1396 46.2336C39.1694 45.331 40.3383 45.5179 40.8234 46.83C41.5351 48.7463 42.0758 50.7264 42.6841 52.6825C42.7266 52.8204 42.7493 52.9636 42.7517 53.1079C42.786 53.434 42.7044 53.7617 42.5212 54.0336C42.338 54.3055 42.0649 54.5043 41.7498 54.5949C41.4333 54.6807 41.0964 54.647 40.8031 54.5003C40.5098 54.3537 40.2807 54.1044 40.1594 53.7998C39.7897 52.8257 39.5352 51.8118 39.233 50.8099C39.1177 50.4242 39.0104 50.0624 38.8513 49.5137Z" fill="#2F4077"/>
<path d="M30.692 29.1926C30.1552 29.7969 29.7576 30.3138 29.2885 30.7511C28.9863 31.0334 28.5728 31.3793 28.215 31.3753C27.7279 31.3445 27.2667 31.1448 26.9109 30.8108C26.7115 30.6157 26.5955 30.3509 26.5874 30.0721C26.5792 29.7933 26.6795 29.5222 26.8671 29.3158C27.8929 28.0634 28.9346 26.811 30.0479 25.658C30.6999 24.998 31.6382 25.1649 32.2267 25.9244C32.5838 26.377 32.8732 26.8793 33.0855 27.4153C33.5666 28.6956 33.9761 29.9997 34.4134 31.2958C34.4523 31.3976 34.4815 31.5028 34.5009 31.6099C34.5782 31.9468 34.532 32.3002 34.3708 32.606C34.2095 32.9117 33.9439 33.1494 33.6222 33.2758C33.2939 33.3914 32.934 33.3786 32.6148 33.24C32.2955 33.1013 32.0404 32.8472 31.9007 32.5284C31.5905 31.8843 31.3957 31.1805 31.1492 30.5046L30.692 29.1926Z" fill="#2F4077"/>
<path d="M26.7165 44.2652C26.3565 44.2273 26.0228 44.0586 25.7788 43.7912C25.5348 43.5237 25.3974 43.176 25.3926 42.814C25.4144 42.5068 25.5476 42.2181 25.7673 42.0021C25.9869 41.7861 26.2778 41.6578 26.5854 41.6411C27.2016 41.6411 27.9133 42.4363 27.8974 43.1241C27.8842 43.4294 27.7543 43.7179 27.5346 43.9302C27.3149 44.1426 27.0221 44.2624 26.7165 44.2652Z" fill="white"/>
<path d="M37.0536 39.3989C37.06 39.5595 37.0339 39.7198 36.9768 39.87C36.9198 40.0203 36.8329 40.1575 36.7215 40.2733C36.6101 40.3892 36.4765 40.4814 36.3285 40.5443C36.1806 40.6072 36.0215 40.6395 35.8608 40.6394C35.7086 40.648 35.5562 40.6257 35.4128 40.5738C35.2694 40.5219 35.1381 40.4415 35.0266 40.3375C34.9152 40.2335 34.8259 40.108 34.7643 39.9685C34.7027 39.8291 34.6699 39.6786 34.668 39.5261C34.6658 39.1984 34.7926 38.883 35.021 38.6479C35.2493 38.4129 35.5609 38.277 35.8886 38.2697C36.04 38.2644 36.1909 38.2897 36.3323 38.3441C36.4737 38.3984 36.6027 38.4808 36.7115 38.5863C36.8203 38.6917 36.9066 38.8181 36.9654 38.9577C37.0242 39.0973 37.0542 39.2474 37.0536 39.3989V39.3989Z" fill="white"/>
<path d="M41.1727 27.3993C41.1727 28.0752 40.7752 28.4609 40.2066 28.4291C39.85 28.3728 39.5265 28.1873 39.2978 27.908C39.069 27.6287 38.951 27.275 38.9661 26.9142C38.9661 26.2503 39.3359 25.8089 39.8806 25.8049C40.5525 25.8089 41.1966 26.6041 41.1727 27.3993Z" fill="white"/>
</svg>
