<svg width="10" height="16" viewBox="0 0 10 16" fill="none" xmlns="http://www.w3.org/2000/svg">
<path d="M1.5 3C2.32843 3 3 2.32843 3 1.5C3 0.67157 2.32843 0 1.5 0C0.67157 0 0 0.67157 0 1.5C0 2.32843 0.67157 3 1.5 3ZM1.5 9.5C2.32843 9.5 3 8.8284 3 8C3 7.1716 2.32843 6.5 1.5 6.5C0.67157 6.5 0 7.1716 0 8C0 8.8284 0.67157 9.5 1.5 9.5ZM3 14.5C3 15.3284 2.32843 16 1.5 16C0.67157 16 0 15.3284 0 14.5C0 13.6716 0.67157 13 1.5 13C2.32843 13 3 13.6716 3 14.5ZM8.5 3C9.3284 3 10 2.32843 10 1.5C10 0.67157 9.3284 0 8.5 0C7.6716 0 7 0.67157 7 1.5C7 2.32843 7.6716 3 8.5 3ZM10 8C10 8.8284 9.3284 9.5 8.5 9.5C7.6716 9.5 7 8.8284 7 8C7 7.1716 7.6716 6.5 8.5 6.5C9.3284 6.5 10 7.1716 10 8ZM8.5 16C9.3284 16 10 15.3284 10 14.5C10 13.6716 9.3284 13 8.5 13C7.6716 13 7 13.6716 7 14.5C7 15.3284 7.6716 16 8.5 16Z" fill="#666666"/>
</svg>
