<svg width="46" height="50" viewBox="0 0 46 50" fill="none" xmlns="http://www.w3.org/2000/svg">
<path d="M2.97291 18.8134C2.78516 18.2236 2.60404 17.656 2.42733 17.0861C2.20645 16.3704 2.3478 16.0678 3.05022 15.7608C3.69078 15.4847 4.33577 15.2196 5.03818 14.928C4.8173 14.2786 4.64059 13.6513 4.40424 13.0439C4.1193 12.3061 4.25845 11.9395 5.03155 11.6744C7.15867 10.9543 9.28801 10.2475 11.4173 9.53623L24.8162 5.0611C25.6026 4.79824 25.9339 4.94844 26.252 5.74804C27.0118 7.64177 27.7687 9.53696 28.5227 11.4336C28.5602 11.5264 28.611 11.6125 28.6972 11.7915C28.8297 11.5706 28.9335 11.3939 29.0329 11.2172C30.9046 7.85676 32.7762 4.4971 34.6478 1.13817C35.2332 0.0889684 35.9422 -0.107623 36.9826 0.499812C39.7333 2.10786 42.4826 3.71958 45.2304 5.33499C45.7053 5.61331 45.8202 5.93359 45.6236 6.43942C45.5542 6.60622 45.473 6.76788 45.3806 6.92316C42.3722 12.3584 39.3623 17.7937 36.3509 23.2289C36.0066 23.862 35.6206 24.4715 35.1956 25.0534C34.9924 25.3273 34.639 25.4952 34.301 25.7337C34.5904 26.6858 34.8864 27.6753 35.1846 28.6649C35.4828 29.6544 35.7522 30.5844 36.0681 31.5364C36.1498 31.7736 36.1801 32.0256 36.1568 32.2754C36.1336 32.5252 36.0574 32.7673 35.9334 32.9854C35.7746 33.2307 35.5428 33.42 35.2707 33.5266C34.6633 33.7806 34.0271 33.9683 33.4043 34.1892C33.2739 34.2356 33.148 34.2908 32.9801 34.3593C33.148 35.0926 33.3093 35.8083 33.4749 36.524C33.6958 37.487 33.5346 37.8162 32.5914 38.1696C31.9906 38.3905 31.3765 38.576 30.7691 38.7814C30.6663 38.8261 30.5667 38.8778 30.4709 38.936C30.6918 39.6362 30.9127 40.3188 31.1048 41.0057C31.1918 41.2504 31.2366 41.5081 31.2374 41.7678C31.1998 42.2648 30.7956 42.457 30.3914 42.5983C29.0484 43.06 27.701 43.5084 26.3536 43.9656L11.2318 49.0857C11.0595 49.1454 10.8894 49.2028 10.7149 49.2492C10.1141 49.4104 9.92417 49.2978 9.54424 48.8206C9.22983 48.3843 8.9964 47.895 8.85508 47.3761C6.01303 38.8985 3.16655 30.4187 0.315658 21.9367C0.20802 21.6178 0.117335 21.2934 0.0439739 20.9648C-0.110646 20.2492 0.0682626 19.92 0.753006 19.6572C1.37148 19.4208 1.99439 19.2154 2.61508 18.9791C2.71448 18.9305 2.8205 18.8797 2.97291 18.8134ZM25.2249 18.0536C25.9958 16.673 26.7468 15.3035 27.5243 13.9473C27.5862 13.8354 27.6186 13.7096 27.6186 13.5817C27.6186 13.4539 27.5862 13.3281 27.5243 13.2162C26.7262 11.2282 25.931 9.24024 25.1387 7.25227C25.068 7.07556 24.9753 6.90769 24.8891 6.72878L6.06973 13.013C8.97878 21.6628 11.8591 30.2243 14.7593 38.8565L34.5727 32.0996C33.9741 30.1448 33.4043 28.2783 32.8211 26.3765L30.652 27.4125C29.4614 27.9846 28.2775 28.5721 27.0759 29.1243C26.252 29.5042 25.5297 29.1243 25.4148 28.2783C25.269 27.3086 25.1586 26.3323 25.0305 25.3604C24.9002 24.351 24.7654 23.3416 24.6351 22.352C23.0668 21.9699 22.3534 21.1084 22.4903 19.8118C22.6162 18.6257 23.4578 18.0801 25.2249 18.0536ZM1.6476 21.0311C1.98335 22.0074 2.31026 22.9307 2.6195 23.8562C5.15526 31.381 7.69027 38.9073 10.2246 46.4351C10.3549 46.8216 10.5161 47.1994 10.6663 47.5947L29.5056 41.22C29.3024 40.5573 29.1235 40.0029 28.938 39.4087C28.6729 39.486 28.4608 39.5413 28.2532 39.6097C25.2867 40.5883 22.3313 41.5977 19.3515 42.5409C17.1051 43.2521 14.9338 44.1975 12.5903 44.6216C11.9652 44.7343 11.583 44.5841 11.3268 44.0098C11.1723 43.6407 11.0367 43.2639 10.9204 42.881C8.51712 35.6051 6.11463 28.3291 3.71287 21.0532C3.63998 20.8323 3.55162 20.6114 3.46106 20.3662L1.6476 21.0311ZM4.05747 17.0552C4.4396 18.2015 4.80406 19.2795 5.16189 20.3684C7.59899 27.7401 10.0346 35.1096 12.4688 42.4768C12.6609 43.06 12.6896 43.0732 13.2198 42.8987C19.2897 40.8916 25.3589 38.8838 31.4273 36.8752C31.5753 36.8266 31.7145 36.7515 31.8691 36.683L31.4273 34.8872C31.1711 34.9579 30.9855 35.0021 30.7956 35.0661C28.0507 35.9997 25.3059 36.9378 22.561 37.8802C19.8971 38.8013 17.2399 39.7423 14.5782 40.6722C14.3988 40.7438 14.1991 40.7456 14.0184 40.6774C13.8377 40.6091 13.6891 40.4757 13.6019 40.3033C13.4997 40.1084 13.4161 39.9043 13.3523 39.6937C12.5851 37.4186 11.8208 35.1434 11.0595 32.8683C9.29243 27.601 7.52166 22.3321 5.74721 17.0618C5.68095 16.863 5.5926 16.673 5.50425 16.4566L4.05747 17.0552ZM38.7541 3.39342L29.2384 20.7439L31.3191 21.8815C34.5065 16.1274 37.6695 10.4198 40.8591 4.65246L38.7541 3.39342ZM42.1645 5.40346C39.0059 11.1752 35.8782 16.8895 32.7328 22.6325L34.3607 23.516C37.5392 17.773 40.6846 12.0874 43.8455 6.37977L42.1645 5.40346ZM27.8203 19.9576L37.3934 2.60043C36.9517 2.3442 36.5408 2.09461 36.0836 1.82071C32.841 7.64546 29.6382 13.4039 26.4221 19.1845L27.8203 19.9576ZM26.1835 20.8743L26.0686 20.9692C26.2012 21.9588 26.3293 22.9572 26.4751 23.9357C26.5045 24.0477 26.5766 24.1437 26.6761 24.203C27.5935 24.7788 28.5138 25.3465 29.4371 25.906C29.5015 25.9486 29.5738 25.9778 29.6497 25.9919C29.7256 26.0059 29.8036 26.0045 29.8789 25.9878C30.8552 25.546 31.8183 25.0644 32.8918 24.5476L26.1835 20.8743Z" fill="#3558A2"/>
<path d="M25.2255 18.0533C23.4451 18.0798 22.6124 18.6254 22.4865 19.8204C22.3495 21.117 23.063 21.9784 24.6313 22.3606C24.7616 23.3501 24.8963 24.3596 25.0267 25.369C25.1548 26.3409 25.2652 27.3172 25.411 28.2869C25.5369 29.144 26.2482 29.5128 27.0721 29.1329C28.2737 28.5807 29.4576 27.9931 30.6482 27.421L32.8173 26.3851C33.4004 28.2869 33.9703 30.1534 34.5689 32.1082L14.7599 38.8563C11.8597 30.2285 8.97937 21.667 6.07031 13.0127L24.8963 6.72412C24.9825 6.90304 25.0753 7.07091 25.1459 7.24762C25.9411 9.23411 26.7363 11.2221 27.5315 13.2115C27.5934 13.3234 27.6258 13.4492 27.6258 13.5771C27.6258 13.7049 27.5934 13.8307 27.5315 13.9426C26.7518 15.3033 26.0008 16.6728 25.2255 18.0533ZM17.0814 23.9598C17.0328 22.3959 16.0499 21.6272 14.6252 21.5698C13.4655 21.5234 12.5157 22.5748 12.5091 23.8096C12.5087 24.4393 12.7528 25.0446 13.19 25.4979C13.6272 25.9512 14.2233 26.217 14.8527 26.2393C15.1509 26.2427 15.4466 26.1858 15.7222 26.0718C15.9977 25.9579 16.2473 25.7894 16.456 25.5764C16.6646 25.3634 16.828 25.1103 16.9363 24.8325C17.0445 24.5547 17.0954 24.2578 17.0858 23.9598H17.0814ZM17.6469 21.921C17.6406 22.2221 17.6952 22.5214 17.8073 22.8009C17.9194 23.0804 18.0868 23.3344 18.2995 23.5476C18.5121 23.7609 18.7656 23.9291 19.0448 24.042C19.324 24.1549 19.6231 24.2104 19.9242 24.205C20.5303 24.1919 21.1076 23.9442 21.5348 23.5141C21.962 23.0841 22.2058 22.505 22.2148 21.8989C22.1937 21.3063 21.9427 20.7451 21.515 20.3344C21.0873 19.9236 20.5164 19.6955 19.9234 19.6984C19.3304 19.7012 18.7619 19.9349 18.3381 20.3498C17.9144 20.7646 17.6689 21.3282 17.6535 21.921H17.6469ZM22.0226 12.7631C20.9027 12.7786 19.9971 13.7748 20.0347 14.972C20.0612 16.284 21.1391 17.4326 22.354 17.4304C22.6403 17.4332 22.9244 17.3782 23.189 17.2687C23.4536 17.1591 23.6934 16.9973 23.8941 16.793C24.0947 16.5886 24.2521 16.3459 24.3567 16.0793C24.4614 15.8127 24.5112 15.5277 24.5032 15.2414C24.4546 13.9161 23.6285 12.7918 22.027 12.7631H22.0226ZM16.5005 29.7205C16.6993 30.297 16.8893 30.8558 17.0836 31.4146C17.1579 31.6628 17.251 31.9051 17.362 32.1392C17.441 32.303 17.5757 32.4334 17.742 32.507C17.9083 32.5807 18.0954 32.5928 18.2698 32.5412C18.4455 32.4914 18.5965 32.3783 18.6936 32.2236C18.7907 32.069 18.827 31.8839 18.7955 31.704C18.7732 31.5261 18.731 31.3512 18.6696 31.1827C18.487 30.6128 18.2985 30.0444 18.1041 29.4775C17.9385 28.9871 17.7905 28.4879 17.5806 28.0152C17.3134 27.421 16.6551 27.2245 16.2001 27.6574C15.4336 28.3863 14.7224 29.1749 14.031 29.9767C13.9675 30.0491 13.9193 30.1337 13.8894 30.2253C13.8595 30.3169 13.8484 30.4136 13.8569 30.5096C13.8653 30.6056 13.8931 30.6988 13.9386 30.7838C13.9841 30.8687 14.0464 30.9436 14.1216 31.0038C14.2558 31.1271 14.43 31.1978 14.6121 31.2031C14.7943 31.2084 14.9722 31.1478 15.1133 31.0325C15.2531 30.92 15.3839 30.7966 15.5043 30.6636L16.5005 29.7205ZM12.4649 18.4001C12.6019 18.8109 12.6858 19.118 12.8051 19.4162C12.913 19.7357 13.0482 20.0454 13.2093 20.3417C13.2919 20.4828 13.4238 20.5884 13.5796 20.6381C13.7353 20.6879 13.904 20.6783 14.0531 20.6112C14.2 20.571 14.329 20.4823 14.4192 20.3596C14.5094 20.237 14.5555 20.0874 14.5501 19.9353C14.5582 19.7755 14.5426 19.6155 14.5037 19.4603C14.2187 18.5636 13.9471 17.6623 13.6201 16.7788C13.2932 15.8953 12.4826 15.7561 11.8796 16.5314C11.3119 17.2581 10.7751 18.0025 10.2207 18.7403C10.1478 18.8355 10.087 18.9393 10.0396 19.0495C9.96509 19.205 9.94551 19.3812 9.98409 19.5493C10.0227 19.7174 10.1171 19.8674 10.252 19.9749C10.3869 20.0823 10.5543 20.1408 10.7267 20.1409C10.8992 20.1409 11.0665 20.0824 11.2015 19.975C11.3541 19.8452 11.4899 19.6968 11.6057 19.5332C11.884 19.1975 12.1424 18.8375 12.4693 18.4001H12.4649ZM21.5809 27.5072C21.6692 27.8076 21.7288 28.013 21.8017 28.2184C21.9696 28.7729 22.111 29.3383 22.3164 29.8795C22.3838 30.0487 22.5111 30.1873 22.674 30.2687C22.8369 30.3502 23.0241 30.3689 23.1999 30.3213C23.375 30.2709 23.5267 30.1605 23.6285 30.0094C23.7303 29.8584 23.7756 29.6763 23.7566 29.4952C23.7552 29.415 23.7426 29.3354 23.719 29.2588C23.3811 28.172 23.0807 27.072 22.6853 26.0074C22.4158 25.2785 21.7841 25.1614 21.1943 25.6761C20.6045 26.1907 20.0744 26.7098 19.5399 27.251C19.1577 27.6397 19.1379 28.119 19.4427 28.4327C19.7475 28.7464 20.1937 28.7419 20.6266 28.3819C20.927 28.1367 21.2098 27.854 21.5853 27.5072H21.5809ZM17.0527 16.2178L17.3178 16.9467C17.4547 17.3222 17.5629 17.7132 17.7352 18.071C17.8129 18.2481 17.9546 18.3893 18.132 18.4663C18.3094 18.5433 18.5093 18.5504 18.6917 18.4862C18.8704 18.416 19.0179 18.2839 19.1075 18.1141C19.1971 17.9442 19.2228 17.7479 19.1798 17.5607C19.1691 17.5012 19.1528 17.4428 19.1312 17.3862C18.8883 16.6661 18.6607 15.9416 18.3935 15.2304C18.2755 14.9326 18.1148 14.6535 17.9164 14.4021C17.5917 13.9802 17.0682 13.8874 16.7059 14.2541C16.0764 14.8947 15.4977 15.5794 14.9389 16.2862C14.8346 16.4009 14.7789 16.5515 14.7834 16.7064C14.788 16.8613 14.8524 17.0084 14.9631 17.1168C15.1608 17.3024 15.417 17.4133 15.6876 17.4304C15.8864 17.4304 16.1162 17.2404 16.284 17.0836C16.5425 16.8406 16.7634 16.5469 17.0527 16.2178Z" fill="white"/>
<path d="M1.64844 21.0313L3.46411 20.3687C3.55467 20.616 3.64303 20.8347 3.71592 21.0556C6.11915 28.3316 8.52164 35.6075 10.9234 42.8835C11.0397 43.2663 11.1753 43.6431 11.3298 44.0122C11.586 44.5865 11.9682 44.7367 12.5933 44.624C14.9303 44.1999 17.1082 43.2546 19.3546 42.5433C22.3343 41.6001 25.2898 40.5907 28.2562 39.6122C28.4639 39.5437 28.6759 39.4885 28.941 39.4112C29.1265 40.0053 29.3055 40.5708 29.5087 41.2224L10.6694 47.5972C10.517 47.2018 10.3557 46.8241 10.2276 46.4375C7.69037 38.9127 5.15536 31.3864 2.62255 23.8586C2.30889 22.9309 1.98418 22.0076 1.64844 21.0313Z" fill="#979FBB"/>
<path d="M4.05664 17.062L5.51448 16.4546C5.60283 16.6755 5.69118 16.861 5.75744 17.0598C7.52453 22.3272 9.2953 27.596 11.0697 32.8663C11.834 35.1415 12.5983 37.4166 13.3625 39.6917C13.4264 39.9023 13.5099 40.1064 13.6121 40.3013C13.6994 40.4737 13.8479 40.6071 14.0286 40.6754C14.2093 40.7436 14.409 40.7418 14.5884 40.6702C17.2501 39.7403 19.9073 38.7993 22.5712 37.8782C25.3131 36.9299 28.058 35.9919 30.8058 35.0641C30.9914 35.0001 31.1813 34.9559 31.4375 34.8852L31.8793 36.681C31.7203 36.7495 31.5811 36.8246 31.4375 36.8732C25.3706 38.8833 19.3014 40.8911 13.23 42.8967C12.6954 43.0712 12.6712 43.058 12.479 42.4748C10.0419 35.112 7.60625 27.7425 5.17209 20.3665C4.80322 19.2863 4.43877 18.2084 4.05664 17.062Z" fill="#CBCFDD"/>
<path d="M38.754 3.3999L40.859 4.65012C37.6695 10.4108 34.5064 16.1185 31.319 21.8792L29.2383 20.7416L38.754 3.3999Z" fill="white"/>
<path d="M42.1642 5.41016L43.8452 6.40193C40.6843 12.1096 37.5389 17.7952 34.3603 23.5382L32.7324 22.6547C35.8778 16.8962 39.0055 11.1819 42.1642 5.41016Z" fill="#CBCFDD"/>
<path d="M27.8201 19.964L26.4219 19.1909C29.638 13.4104 32.8408 7.65189 36.0834 1.82715C36.5406 2.10105 36.9669 2.35065 37.3932 2.60688L27.8201 19.964Z" fill="#CBCFDD"/>
<path d="M26.1832 20.8809L32.8915 24.5542C31.818 25.0711 30.8549 25.546 29.8786 25.9944C29.8033 26.0111 29.7253 26.0125 29.6494 25.9985C29.5735 25.9844 29.5012 25.9552 29.4369 25.9126C28.5121 25.356 27.5917 24.7883 26.6758 24.2096C26.5764 24.1503 26.5042 24.0543 26.4748 23.9423C26.329 22.955 26.2009 21.9544 26.0684 20.9758L26.1832 20.8809Z" fill="white"/>
<path d="M17.086 23.9599C17.0943 24.2568 17.0427 24.5523 16.9342 24.8288C16.8257 25.1053 16.6625 25.3571 16.4544 25.5691C16.2463 25.7811 15.9977 25.9489 15.7232 26.0625C15.4488 26.1762 15.1543 26.2334 14.8573 26.2306C14.2279 26.2082 13.6318 25.9424 13.1946 25.4891C12.7574 25.0359 12.5133 24.4306 12.5137 23.8008C12.5137 22.5661 13.4701 21.5147 14.6298 21.561C16.0545 21.6273 17.0374 22.396 17.086 23.9599ZM14.844 24.5916C15.0149 24.5917 15.1792 24.5259 15.3027 24.4078C15.4262 24.2896 15.4993 24.1284 15.5067 23.9576C15.5067 23.5777 15.1201 23.1315 14.7777 23.1337C14.6069 23.143 14.4453 23.2143 14.3232 23.3343C14.2012 23.4543 14.1272 23.6147 14.1151 23.7854C14.1176 23.9855 14.193 24.1778 14.3272 24.3262C14.4614 24.4747 14.6452 24.569 14.844 24.5916Z" fill="#3558A2"/>
<path d="M17.6509 21.9214C17.6662 21.3286 17.9118 20.765 18.3355 20.3501C18.7592 19.9353 19.3278 19.7016 19.9208 19.6988C20.5138 19.6959 21.0847 19.924 21.5124 20.3348C21.9401 20.7455 22.1911 21.3066 22.2122 21.8993C22.2032 22.505 21.9597 23.0837 21.533 23.5137C21.1063 23.9438 20.5295 24.1916 19.9238 24.2053C19.623 24.2101 19.3244 24.1543 19.0458 24.041C18.7671 23.9278 18.5141 23.7596 18.3019 23.5464C18.0898 23.3332 17.9228 23.0794 17.8109 22.8002C17.699 22.521 17.6446 22.2221 17.6509 21.9214ZM20.582 21.8882C20.5825 21.8027 20.5654 21.718 20.5318 21.6393C20.4982 21.5607 20.4488 21.4898 20.3867 21.431C20.3246 21.3722 20.251 21.3267 20.1707 21.2975C20.0903 21.2682 20.0048 21.2558 19.9194 21.2609C19.7373 21.265 19.5642 21.3405 19.4373 21.471C19.3105 21.6016 19.2401 21.7769 19.2413 21.9589C19.2423 22.0436 19.2605 22.1272 19.2948 22.2047C19.329 22.2822 19.3786 22.3519 19.4405 22.4097C19.5024 22.4675 19.5754 22.5121 19.655 22.541C19.7347 22.5698 19.8194 22.5822 19.9039 22.5774C19.9949 22.5802 20.0854 22.5642 20.1699 22.5305C20.2545 22.4968 20.3311 22.446 20.3952 22.3814C20.4592 22.3167 20.5092 22.2396 20.5421 22.1547C20.5751 22.0699 20.5901 21.9792 20.5864 21.8882H20.582Z" fill="#3558A2"/>
<path d="M22.0265 12.7632C23.6279 12.8007 24.4562 13.9162 24.496 15.2305C24.5055 15.5171 24.457 15.8027 24.3534 16.0702C24.2499 16.3376 24.0933 16.5814 23.8932 16.7869C23.6931 16.9923 23.4536 17.1552 23.189 17.2658C22.9244 17.3764 22.6402 17.4325 22.3534 17.4305C21.1451 17.4305 20.0606 16.2841 20.0341 14.972C20.001 13.7748 20.9066 12.7786 22.0265 12.7632ZM22.8747 15.2239C22.8879 14.7821 22.5301 14.3403 22.1568 14.3403C21.8542 14.3403 21.651 14.5877 21.6488 14.9566C21.6404 15.157 21.7059 15.3535 21.833 15.5087C21.9601 15.6639 22.1398 15.7669 22.3379 15.7982C22.6626 15.8136 22.8636 15.5994 22.8747 15.2217V15.2239Z" fill="#3558A2"/>
<path d="M16.5038 29.7206L15.5076 30.6638C15.3872 30.7968 15.2564 30.9202 15.1167 31.0327C14.9755 31.148 14.7976 31.2085 14.6154 31.2033C14.4332 31.198 14.2591 31.1272 14.1249 31.004C14.0497 30.9437 13.9875 30.8689 13.942 30.784C13.8965 30.699 13.8686 30.6057 13.8602 30.5098C13.8517 30.4138 13.8628 30.3171 13.8927 30.2255C13.9226 30.1339 13.9708 30.0493 14.0343 29.9769C14.7257 29.1751 15.4369 28.3865 16.2034 27.6576C16.6584 27.2158 17.3078 27.4212 17.5839 28.0154C17.7938 28.4881 17.9418 28.9873 18.1074 29.4777C18.3018 30.0461 18.4903 30.6145 18.6729 31.1829C18.7343 31.3514 18.7765 31.5262 18.7988 31.7042C18.8303 31.884 18.794 32.0692 18.6969 32.2238C18.5998 32.3785 18.4488 32.4916 18.2731 32.5413C18.0987 32.5929 17.9116 32.5808 17.7453 32.5072C17.579 32.4335 17.4443 32.3032 17.3653 32.1393C17.2543 31.9052 17.1612 31.663 17.087 31.4148C16.8926 30.856 16.7026 30.2971 16.5038 29.7206Z" fill="#3558A2"/>
<path d="M12.4684 18.4003C12.1415 18.8421 11.883 19.1933 11.6136 19.5379C11.4978 19.7014 11.362 19.8498 11.2093 19.9796C11.0744 20.087 10.9071 20.1455 10.7346 20.1455C10.5621 20.1455 10.3948 20.0869 10.2599 19.9795C10.125 19.872 10.0306 19.722 9.99197 19.5539C9.95339 19.3858 9.97297 19.2096 10.0475 19.0541C10.0949 18.944 10.1557 18.8401 10.2286 18.7449C10.7786 18.0049 11.3198 17.2605 11.8875 16.536C12.4905 15.7607 13.2923 15.8734 13.628 16.7834C13.9638 17.6935 14.2222 18.5682 14.5116 19.465C14.5505 19.6201 14.5661 19.7801 14.5579 19.9399C14.5634 20.092 14.5172 20.2416 14.427 20.3643C14.3368 20.4869 14.2078 20.5756 14.061 20.6158C13.9118 20.6829 13.7432 20.6925 13.5874 20.6427C13.4317 20.593 13.2998 20.4874 13.2172 20.3463C13.0561 20.05 12.9209 19.7403 12.813 19.4208C12.6937 19.1182 12.6053 18.8111 12.4684 18.4003Z" fill="#3558A2"/>
<path d="M21.5846 27.5074C21.2091 27.8542 20.922 28.137 20.6216 28.391C20.1798 28.751 19.738 28.7599 19.4376 28.4418C19.1372 28.1237 19.1527 27.6488 19.5348 27.2601C20.0693 26.7189 20.6171 26.1866 21.1892 25.6852C21.7613 25.1837 22.4107 25.2876 22.6802 26.0165C23.0756 27.0811 23.376 28.1812 23.714 29.2679C23.7375 29.3445 23.7501 29.4241 23.7515 29.5042C23.7705 29.6854 23.7252 29.8675 23.6234 30.0185C23.5216 30.1696 23.3699 30.28 23.1949 30.3304C23.0191 30.378 22.8319 30.3593 22.6689 30.2778C22.506 30.1963 22.3787 30.0578 22.3113 29.8886C22.1059 29.3474 21.9645 28.7842 21.7967 28.2275C21.7326 28.0133 21.673 27.8123 21.5846 27.5074Z" fill="#3558A2"/>
<path d="M17.0521 16.2181C16.7539 16.5538 16.533 16.841 16.2723 17.084C16.1045 17.2408 15.8748 17.433 15.676 17.4307C15.4053 17.4136 15.1491 17.3027 14.9515 17.1171C14.8407 17.0087 14.7763 16.8616 14.7717 16.7067C14.7672 16.5518 14.8229 16.4012 14.9272 16.2866C15.497 15.5908 16.0758 14.895 16.6942 14.2544C17.0565 13.8878 17.5778 13.9805 17.9047 14.4024C18.1031 14.6539 18.2638 14.9329 18.3818 15.2307C18.6491 15.942 18.8766 16.6665 19.1196 17.3866C19.1411 17.4431 19.1574 17.5015 19.1681 17.5611C19.2111 17.7482 19.1854 17.9446 19.0959 18.1144C19.0063 18.2843 18.8587 18.4163 18.68 18.4866C18.4976 18.5508 18.2977 18.5437 18.1203 18.4666C17.9429 18.3896 17.8012 18.2484 17.7236 18.0713C17.5513 17.7135 17.443 17.3225 17.3061 16.947L17.0521 16.2181Z" fill="#3558A2"/>
<path d="M14.843 24.5916C14.6429 24.5706 14.4576 24.4768 14.322 24.3283C14.1864 24.1797 14.1101 23.9865 14.1074 23.7854C14.1195 23.6147 14.1936 23.4543 14.3156 23.3343C14.4376 23.2144 14.5992 23.143 14.7701 23.1338C15.1125 23.1338 15.5078 23.5756 15.499 23.9577C15.4916 24.1273 15.4195 24.2876 15.2974 24.4055C15.1754 24.5235 15.0127 24.5901 14.843 24.5916Z" fill="white"/>
<path d="M20.587 21.888C20.5906 21.9772 20.5761 22.0662 20.5444 22.1497C20.5127 22.2332 20.4645 22.3094 20.4026 22.3738C20.3407 22.4381 20.2664 22.4893 20.1843 22.5243C20.1021 22.5592 20.0137 22.5772 19.9244 22.5771C19.8398 22.5819 19.7552 22.5695 19.6755 22.5407C19.5959 22.5118 19.5229 22.4672 19.461 22.4094C19.399 22.3516 19.3495 22.2819 19.3152 22.2044C19.281 22.1269 19.2628 22.0433 19.2617 21.9586C19.2605 21.7766 19.331 21.6013 19.4578 21.4707C19.5847 21.3402 19.7578 21.2647 19.9398 21.2606C20.024 21.2577 20.1078 21.2717 20.1864 21.3019C20.2649 21.3321 20.3366 21.3779 20.397 21.4365C20.4574 21.4951 20.5054 21.5653 20.5381 21.6428C20.5707 21.7204 20.5874 21.8038 20.587 21.888Z" fill="white"/>
<path d="M22.8751 15.2217C22.8751 15.5972 22.6542 15.8115 22.3383 15.7938C22.1402 15.7625 21.9605 15.6595 21.8334 15.5043C21.7063 15.3491 21.6407 15.1526 21.6492 14.9522C21.6492 14.5833 21.8546 14.3381 22.1572 14.3359C22.5305 14.3381 22.8883 14.7799 22.8751 15.2217Z" fill="white"/>
</svg>
