<svg width="134" height="124" viewBox="0 0 134 124" fill="none" xmlns="http://www.w3.org/2000/svg">
<path d="M109.961 63.8898C110.442 64.1239 110.86 64.3122 111.274 64.5209C114.043 65.9255 115.555 68.1595 115.56 71.2689C115.56 73.8134 115.463 76.3579 115.31 78.9025C115.003 83.966 117.24 88.0322 120.387 91.6963C122.476 94.1288 122.583 95.4214 120.147 97.5028C115.999 101.065 111.514 104.002 105.941 104.958C100.365 105.927 94.6239 104.89 89.7436 102.032C87.5114 100.78 85.2076 99.9965 82.7149 100.811C81.5606 101.226 80.5136 101.891 79.65 102.76C78.7994 103.677 78.0589 104.69 77.4433 105.778C76.1816 107.752 74.2559 108.831 72.1871 109.701C71.5192 109.979 70.795 110.095 70.0733 110.041C69.3517 109.987 68.6531 109.765 68.0342 109.391C67.3376 109.023 66.7005 108.553 66.1443 107.996C63.5391 105.233 60.2393 104.215 56.5666 103.864C49.9627 103.172 43.5563 101.211 37.7024 98.0881C36.2405 97.2827 34.8704 96.3221 33.616 95.223C32.155 94.0169 31.9967 93.0194 32.6914 91.2841C33.4934 89.2484 34.3464 87.2739 35.0871 85.2383C35.148 85.0058 35.1548 84.7626 35.107 84.5271C35.0592 84.2916 34.9581 84.0701 34.8113 83.8795C32.482 81.503 32.4616 81.5182 29.5755 83.0907C21.7772 87.3553 13.9737 91.6182 6.16511 95.8794C4.30577 96.8972 3.47317 96.6021 2.5435 94.6988C1.93393 93.4537 1.33457 92.2035 0.74544 90.9482C-0.521365 88.2968 -0.276177 87.5843 2.27787 86.2103C10.4508 81.8286 18.5727 77.4266 26.7456 73.0908C27.7672 72.5412 28.0431 71.9814 27.9 70.8465C26.8784 63.0603 29.4325 56.5973 35.3783 51.4574C35.7726 51.1952 36.0631 50.8046 36.2001 50.3524C36.3371 49.9003 36.312 49.4148 36.1292 48.979C35.1433 45.5032 33.4065 42.6839 30.0301 40.9689C28.0696 39.9219 26.1775 38.7525 24.3652 37.4676C21.656 35.7138 19.6427 33.0766 18.6697 30.0071C18.4777 29.4066 18.4436 28.767 18.5706 28.1495C18.6976 27.5321 18.9815 26.9574 19.3951 26.4804C22.1688 22.796 26.2144 21.7985 30.3928 22.0886C33.6977 22.3227 36.9515 23.5135 40.1901 24.4143C43.1119 25.2234 43.3213 25.2285 44.9099 22.6891C45.6659 21.4779 46.2891 20.1446 47.1218 19.0148C48.6082 16.9792 50.1866 16.6179 52.4392 17.7629C53.4608 18.2718 54.4825 18.9029 55.4735 19.4525C57.4094 20.5008 59.2177 20.3431 60.888 18.9436C61.5666 18.383 62.183 17.7518 62.7269 17.0607C64.9715 14.2164 67.8386 11.9206 71.1093 10.3482C74.7749 8.41795 77.8466 5.53362 79.9974 2.00224C80.8811 0.618022 82.4186 0.475527 83.619 1.77323C85.9534 4.31774 88.3695 6.83172 90.4741 9.56961C93.7138 13.8853 98.1916 17.1202 103.316 18.8469C106.891 20.0784 110.217 21.9767 113.706 23.4626C117.95 25.2692 122.226 27.025 126.542 28.6687C128.953 29.5898 129.541 30.4651 128.698 32.9537C126.774 38.6262 124.823 44.292 122.844 49.951C121.991 52.3937 120.101 54.0222 117.986 55.2843C114.566 57.361 111.789 60.3392 109.961 63.8898V63.8898ZM38.5147 86.592C37.8608 88.2612 37.3245 89.8846 36.594 91.4164C36.1241 92.4036 36.4101 92.8973 37.2223 93.452C42.7697 97.1364 48.9709 98.943 55.4684 100.068C58.2369 100.551 61.0872 100.918 63.677 101.9C65.5926 102.627 67.1965 104.225 68.8617 105.533C69.8067 106.276 70.6956 106.663 71.7121 105.834C72.8262 104.967 73.8824 104.028 74.874 103.024C75.5804 102.169 76.2337 101.272 76.8303 100.337C78.2861 98.3629 80.2732 97.3604 82.6842 96.9736C85.6405 96.4955 88.6705 97.0992 91.2147 98.6733C97.4313 102.337 103.903 102.633 110.38 99.6911C113.103 98.4596 115.488 96.4291 118.15 94.6581C112.337 88.6683 110.804 81.7625 111.933 74.0679C112.028 72.9642 111.985 71.8531 111.805 70.76C111.616 69.0552 110.544 68.0374 108.96 67.5336C108.388 67.3504 107.78 67.2995 107.198 67.1519C105.298 66.643 104.644 65.2232 105.666 63.5896C108.46 59.096 111.407 54.75 116.234 52.063C117.152 51.5647 117.954 50.8787 118.587 50.0498C119.22 49.221 119.67 48.2681 119.907 47.2538C120.688 44.2768 121.761 41.3658 122.767 38.4498C123.488 36.3633 124.3 34.3175 125.107 32.1903C123.064 31.4321 121.02 30.8061 119.074 29.9461C113.838 27.6102 108.659 25.1573 103.438 22.7858C100.956 21.6611 98.361 20.7502 95.9602 19.4983C91.7868 17.3049 89.0234 13.595 86.1679 9.99709C84.9573 8.47038 83.5475 7.09635 82.393 5.83427C79.7828 8.17522 77.6783 10.7554 74.9762 12.3177C70.7467 14.7655 66.9258 17.4983 63.8047 21.2693C62.2212 23.1777 59.9532 23.8596 57.4247 23.7731C55.31 23.7018 53.655 22.623 51.9284 21.6459C50.2836 20.7146 50.3194 20.7553 49.308 22.3838C48.2966 24.0123 47.2137 25.6407 46.0592 27.1878C45.5852 27.8589 44.9032 28.3563 44.1178 28.6036C43.3325 28.8509 42.4873 28.8345 41.7123 28.5568C39.3285 27.8782 36.9447 27.1556 34.5609 26.3888C31.31 25.3377 27.7874 25.4913 24.6411 26.8214C22.3578 27.7374 21.7907 29.1318 23.2619 31.03C24.3581 32.4471 25.6377 33.7133 27.0674 34.7959C28.7931 36.0428 30.6059 37.1652 32.4922 38.1547C34.879 39.4067 36.8093 41.3761 38.0089 43.7831C38.7291 45.264 39.337 46.8009 40.0011 48.3174C52.2196 43.2284 62.6605 49.1368 67.2016 55.951C69.7615 59.7864 71.0219 64.3373 70.7986 68.9378C70.5752 73.5383 68.8798 77.9469 65.9604 81.5182C60.6224 88.0576 50.11 92.4291 38.5147 86.592V86.592ZM49.2416 85.6251C59.1309 85.6556 67.1608 77.8185 67.1812 68.1188C67.2098 63.3765 65.3518 58.8159 62.0137 55.4349C58.6756 52.054 54.1293 50.1279 49.3693 50.0782C47.0019 50.0308 44.6486 50.4533 42.4467 51.3211C40.2448 52.189 38.2383 53.4848 36.5442 55.1331C34.8501 56.7813 33.5022 58.7491 32.5792 60.9216C31.6562 63.0941 31.1764 65.4279 31.168 67.787C31.1595 70.1461 31.6225 72.4832 32.5299 74.6623C33.4372 76.8413 34.7709 78.8186 36.4531 80.4789C38.1354 82.1392 40.1325 83.4493 42.3281 84.3328C44.5237 85.2164 46.8739 85.6556 49.2416 85.6251V85.6251ZM5.46531 92.0779L30.4081 78.3885L29.1566 75.844L4.12699 89.3248L5.46531 92.0779Z" fill="#3558A2"/>
<path d="M134 111.467C133.515 114.22 133.249 117.065 132.468 119.808C131.502 123.172 128.381 124.103 125.531 122.012C120.98 118.678 119.049 114.068 119.912 108.572C120.173 106.948 121.557 105.437 122.64 104.037C124.244 101.961 125.986 99.966 127.748 98.0576C128.399 97.3592 129.216 96.8344 130.123 96.5309C130.348 96.4513 130.588 96.4252 130.825 96.4545C131.062 96.4838 131.288 96.5678 131.487 96.6997C131.685 96.8317 131.85 97.0079 131.968 97.2145C132.086 97.4211 132.154 97.6523 132.166 97.8896C132.841 102.373 133.397 106.851 134 111.467ZM128.381 119.396C130.598 117.472 130.215 105.564 129.28 103.259C128.391 103.961 127.365 104.821 126.292 105.62C123.702 107.538 122.767 110.027 123.626 113.141C123.942 114.456 124.529 115.69 125.35 116.767C126.17 117.843 127.206 118.739 128.391 119.396H128.381Z" fill="#3558A2"/>
<path d="M38.5148 86.592C50.1102 92.4291 60.6226 88.0424 65.9606 81.5335C68.88 77.9621 70.5754 73.5536 70.7988 68.9531C71.0221 64.3526 69.7616 59.8016 67.2018 55.9662C62.6607 49.147 52.2198 43.2437 40.0012 48.3327C39.3372 46.806 38.7293 45.2793 38.0091 43.7984C36.808 41.3762 34.8678 39.3951 32.4668 38.1394C30.5806 37.15 28.7677 36.0275 27.042 34.7806C25.6123 33.6981 24.3328 32.4318 23.2365 31.0148C21.7654 29.1166 22.3324 27.7222 24.6157 26.8061C27.762 25.476 31.2847 25.3224 34.5356 26.3736C36.9194 27.1267 39.3032 27.8494 41.6869 28.5415C42.462 28.8192 43.3071 28.8357 44.0925 28.5884C44.8778 28.341 45.5599 27.8436 46.0339 27.1725C47.1884 25.6458 48.261 24.0072 49.2827 22.3685C50.3043 20.7298 50.2583 20.6993 51.9031 21.6306C53.6296 22.6077 55.2847 23.6662 57.3994 23.7578C59.9279 23.8443 62.1959 23.1624 63.7794 21.254C66.9004 17.483 70.7213 14.7502 74.9508 12.3024C77.653 10.7401 79.7575 8.15995 82.3677 5.819C83.5222 7.08108 84.9218 8.45511 86.1426 9.98182C88.998 13.5798 91.7615 17.2897 95.9348 19.483C98.3356 20.7451 100.93 21.6459 103.413 22.7705C108.633 25.142 113.813 27.5949 119.049 29.9308C120.985 30.7908 123.023 31.4168 125.082 32.1751C124.285 34.3023 123.462 36.3481 122.742 38.4346C121.72 41.3506 120.663 44.2615 119.881 47.2386C119.644 48.2529 119.195 49.2057 118.562 50.0346C117.929 50.8634 117.127 51.5495 116.209 52.0477C111.382 54.7347 108.434 59.0807 105.64 63.5743C104.619 65.2283 105.288 66.6634 107.173 67.1367C107.755 67.2842 108.363 67.3351 108.935 67.5183C110.518 68.0272 111.591 69.045 111.78 70.7448C111.96 71.8379 112.003 72.949 111.908 74.0526C110.779 81.7472 112.311 88.6531 118.124 94.6428C115.437 96.4138 113.078 98.4443 110.355 99.6759C103.878 102.602 97.406 102.307 91.1894 98.6581C88.6452 97.0839 85.6151 96.4802 82.6589 96.9583C80.2479 97.3451 78.2608 98.3476 76.805 100.322C76.2084 101.257 75.555 102.154 74.8487 103.009C73.8571 104.013 72.8008 104.951 71.6867 105.818C70.6651 106.648 69.7814 106.261 68.8364 105.518C67.1712 104.21 65.5672 102.612 63.6517 101.885C61.0619 100.902 58.2116 100.536 55.443 100.052C48.9608 98.9227 42.7443 97.1161 37.1969 93.4367C36.3847 92.9024 36.0987 92.4189 36.5686 91.4011C37.3246 89.8846 37.861 88.2612 38.5148 86.592ZM72.5909 50.8467C74.2203 50.6177 74.7618 49.8289 74.721 48.6737C74.5881 45.0452 76.1716 42.2819 78.9402 40.0732C79.7626 39.4167 80.4726 38.6585 80.2172 37.4931C79.9618 36.3277 78.9709 35.9104 77.9492 35.7425C75.4309 35.3252 74.0415 33.6458 72.9535 31.5593C72.6777 31.0504 72.4427 30.3277 71.983 30.0936C71.2167 29.7018 70.1747 29.2794 69.4647 29.5135C68.8875 29.7069 68.2847 30.8519 68.2898 31.5491C68.2898 34.5058 67.4061 36.8417 64.7142 38.4142C64.4376 38.6314 64.2162 38.9104 64.068 39.2287C63.9198 39.547 63.849 39.8956 63.8612 40.2463C63.9429 40.806 64.6631 41.3455 65.2096 41.773C65.6144 41.9999 66.0684 42.1257 66.5327 42.1394C68.1979 42.3684 69.148 43.3302 69.6435 44.8925C70.1177 46.4795 70.6752 48.0406 71.3138 49.5693C71.5897 50.1444 72.269 50.5363 72.5909 50.8467ZM78.4805 83.2434C80.585 82.6836 81.3461 82.0424 81.1724 80.933C80.9119 79.2943 79.594 79.4063 78.1842 79.4063C78.1842 78.5513 78.2302 77.7727 78.1842 77.0094C78.0871 75.5946 77.3976 74.8109 76.3453 74.816C75.293 74.8211 74.5932 75.6455 74.5115 77.0195C74.4604 77.8389 74.5115 78.6633 74.5115 79.4775C72.6777 79.7218 71.983 80.1391 71.9575 81.1417C71.8808 82.9839 73.3928 83.1264 74.6954 83.4673C74.726 83.8795 74.7516 84.246 74.772 84.6073C74.7925 84.9686 74.772 85.447 74.8435 85.8541C75.0683 87.162 75.8651 87.9253 76.9633 87.7727C78.2608 87.5894 78.4958 86.6276 78.4958 85.5284C78.4804 84.7701 78.4805 83.9864 78.4805 83.2434ZM47.7247 35.7883C47.6583 35.5236 47.6072 35.3506 47.5766 35.1725C47.3876 34.1547 46.9278 33.3761 45.8245 33.3303C44.8029 33.2845 44.2921 33.9104 43.9754 34.857C43.8681 35.2132 43.3982 35.4931 43.0406 35.7323C41.9832 36.4549 41.692 37.9002 42.7494 38.5058C43.9447 39.1877 44.0162 40.1852 44.3891 41.2386C44.5387 41.567 44.7669 41.8538 45.0537 42.0739C45.3404 42.2939 45.677 42.4405 46.0339 42.5007C46.6009 42.5007 47.2752 41.7679 47.6787 41.1979C47.9546 40.806 47.8421 40.1445 47.9086 39.5898C49.0374 39.2386 50.2941 38.9689 50.1715 37.4269C50.0438 36.0529 48.9506 35.8799 47.7247 35.7883Z" fill="white"/>
<path opacity="0.5" d="M49.2264 85.6251C46.8586 85.6556 44.5084 85.2163 42.3128 84.3328C40.1172 83.4493 38.1201 82.1392 36.4379 80.4789C34.7556 78.8186 33.422 76.8413 32.5146 74.6623C31.6072 72.4833 31.1442 70.1461 31.1527 67.787C31.1612 65.4279 31.6409 63.0941 32.5639 60.9216C33.4869 58.7491 34.8348 56.7813 36.5289 55.1331C38.223 53.4848 40.2295 52.189 42.4314 51.3212C44.6333 50.4533 46.9866 50.0308 49.3541 50.0783C54.114 50.128 58.6604 52.054 61.9985 55.435C65.3366 58.8159 67.1946 63.3765 67.1659 68.1188C67.1455 77.8185 59.1156 85.6556 49.2264 85.6251Z" fill="#3558A2"/>
<path opacity="0.5" d="M5.45007 92.078L4.11176 89.3655L29.1414 75.8847L30.3929 78.4292L5.45007 92.078Z" fill="#3558A2"/>
<path d="M128.391 119.396C127.208 118.738 126.174 117.842 125.355 116.765C124.537 115.689 123.951 114.455 123.636 113.141C122.778 110.027 123.712 107.544 126.302 105.62C127.375 104.821 128.402 103.961 129.29 103.259C130.241 105.564 130.608 117.472 128.391 119.396Z" fill="white"/>
<path d="M72.5907 50.8467C72.2689 50.5363 71.5691 50.1444 71.3341 49.5693C70.6955 48.0406 70.1379 46.4795 69.6638 44.8925C69.153 43.3302 68.2181 42.348 66.5529 42.1394C66.0886 42.1257 65.6347 41.9999 65.2299 41.773C64.6834 41.3658 63.9631 40.8264 63.8814 40.2463C63.8692 39.8956 63.9401 39.547 64.0883 39.2287C64.2365 38.9104 64.4579 38.6314 64.7345 38.4142C67.406 36.8417 68.3101 34.5058 68.3101 31.5491C68.3101 30.8316 68.9078 29.6865 69.485 29.5135C70.195 29.2794 71.237 29.7018 72.0032 30.0936C72.463 30.3277 72.698 31.0351 72.9738 31.5593C74.0618 33.6458 75.4512 35.3252 77.9695 35.7425C78.9911 35.9104 79.9821 36.3023 80.2375 37.4931C80.4929 38.6839 79.7829 39.4167 78.9605 40.0732C76.1919 42.2819 74.6084 45.0452 74.7412 48.6737C74.7616 49.8289 74.2202 50.6177 72.5907 50.8467ZM69.6382 39.1419L70.1746 38.6687L72.7286 41.6203L74.7719 38.7959L71.329 36.0224C70.7773 37.0809 70.2103 38.1139 69.6382 39.147V39.1419Z" fill="#3558A2"/>
<path d="M78.4803 83.2434C78.4803 83.9966 78.4803 84.7702 78.4803 85.5437C78.4803 86.6429 78.23 87.6047 76.9478 87.788C75.8751 87.9406 75.0527 87.1773 74.828 85.8694C74.7616 85.4623 74.782 85.0399 74.7564 84.6226C74.7309 84.2053 74.7105 83.8948 74.6798 83.4826C73.3772 83.1417 71.8653 82.9992 71.9419 81.1569C71.9827 80.1391 72.6774 79.7371 74.4959 79.4928C74.4959 78.6786 74.4551 77.8542 74.4959 77.0348C74.5777 75.6608 75.2877 74.8415 76.3297 74.8313C77.3718 74.8211 78.0716 75.6099 78.1687 77.0247C78.2249 77.788 78.1687 78.5514 78.1687 79.4216C79.5785 79.4216 80.8964 79.2944 81.1569 80.9483C81.3459 82.0424 80.5848 82.6836 78.4803 83.2434Z" fill="#3558A2"/>
<path d="M47.7247 35.7883C48.9506 35.8799 50.0642 36.0529 50.1714 37.4422C50.294 38.9689 49.0374 39.2539 47.9085 39.605C47.8421 40.1597 47.9545 40.8213 47.6787 41.2132C47.2752 41.7831 46.6009 42.5109 46.0339 42.516C45.677 42.4557 45.3404 42.3092 45.0536 42.0891C44.7669 41.8691 44.5387 41.5823 44.3891 41.2539C44.0162 40.2005 43.9447 39.2183 42.7494 38.5211C41.692 37.9155 41.9832 36.4855 43.0406 35.7476C43.3981 35.5084 43.8681 35.2387 43.9753 34.8723C44.2665 33.9104 44.8131 33.2845 45.8245 33.3455C46.9278 33.3913 47.3876 34.1954 47.5766 35.1878C47.6072 35.3506 47.6582 35.5236 47.7247 35.7883Z" fill="#3558A2"/>
<path d="M48.6849 80.933C46.8955 80.9599 45.1185 80.6332 43.4566 79.9717C41.7947 79.3103 40.2808 78.3272 39.0026 77.0793C37.7244 75.8314 36.7072 74.3435 36.0097 72.7015C35.3122 71.0596 34.9483 69.2962 34.9391 67.5132C34.8982 59.9917 41.3344 53.7067 49.068 53.7067C56.8017 53.7067 62.7219 59.5591 62.7373 67.1265C62.7299 68.9538 62.36 70.7617 61.6489 72.4461C60.9377 74.1305 59.8993 75.6583 58.5933 76.9414C57.2873 78.2245 55.7396 79.2377 54.0391 79.9228C52.3387 80.6078 50.519 80.9511 48.6849 80.933V80.933ZM51.1828 76.6837C50.7282 76.4903 50.2735 76.3071 49.8291 76.1035C47.8676 75.2028 47.1831 73.3656 48.2967 71.5234C48.6645 70.9978 48.8673 70.3751 48.8791 69.7345C48.891 69.0938 48.7113 68.4642 48.3631 67.9255C47.6175 66.6666 47.2344 65.2274 47.2561 63.7658C47.2777 62.3043 47.7031 60.8769 48.4857 59.6405C48.8994 58.9382 49.2775 58.2105 49.7474 57.3505C47.3361 57.2151 44.95 57.8986 42.9792 59.2894C42.6284 59.4695 42.3511 59.7653 42.1947 60.1263C42.0382 60.4872 42.0122 60.8911 42.121 61.269C42.2926 62.2158 42.5369 63.1482 42.8515 64.0578C44.2511 67.3758 43.8731 70.6735 42.6982 73.9C42.3356 74.8872 42.6012 75.3961 43.4747 75.8745C45.901 77.1976 48.4091 77.6709 51.1828 76.6735V76.6837ZM55.4174 74.7091C60.5255 70.5361 60.2139 62.7499 54.8453 59.1672C54.4877 58.9281 53.8236 58.694 53.5376 58.8619C51.6425 59.9917 50.4983 63.8084 51.5301 65.8949C52.6744 68.2104 53.1953 70.4751 51.8111 72.872L55.4174 74.7091ZM39.2656 65.2385L38.668 65.2843L39.0664 71.0857L39.6232 71.0501C39.9861 70.1109 40.142 69.1049 40.0803 68.1004C40.0186 67.0959 39.7408 66.1164 39.2656 65.2283V65.2385Z" fill="#3558A2"/>
<path d="M69.6381 39.147C70.2102 38.1292 70.7772 37.0809 71.3544 36.0275L74.7973 38.801L72.754 41.6254L69.6381 39.147Z" fill="white"/>
<path d="M51.1827 76.6735C48.409 77.6913 45.901 77.1824 43.4848 75.8898C42.6114 75.4114 42.3457 74.9025 42.7084 73.9153C43.9037 70.6685 44.2408 67.3911 42.8616 64.0731C42.547 63.1634 42.3028 62.2311 42.1312 61.2843C42.0223 60.9064 42.0484 60.5025 42.2048 60.1415C42.3613 59.7806 42.6385 59.4848 42.9893 59.3047C44.9601 57.9139 47.3462 57.2304 49.7575 57.3657C49.2876 58.2258 48.9096 58.9535 48.4958 59.6558C47.7133 60.8922 47.2878 62.3196 47.2662 63.7811C47.2446 65.2426 47.6276 66.6819 48.3733 67.9407C48.7215 68.4794 48.9011 69.1091 48.8892 69.7498C48.8774 70.3904 48.6747 71.0131 48.3068 71.5387C47.1831 73.3555 47.8676 75.1926 49.8393 76.1188C50.2735 76.2969 50.7281 76.4801 51.1827 76.6735Z" fill="#F2F7FF"/>
<path d="M55.4174 74.699L51.8111 72.8618C53.1954 70.4598 52.6744 68.2003 51.5302 65.8848C50.5085 63.7983 51.6425 59.9815 53.5376 58.8517C53.8186 58.6838 54.4877 58.9179 54.8453 59.1571C60.2139 62.7397 60.5408 70.526 55.4174 74.699Z" fill="#F2F7FF"/>
<path d="M39.2655 65.2283C39.7391 66.115 40.0161 67.0928 40.0777 68.0954C40.1394 69.098 39.9844 70.1021 39.623 71.0399L39.0662 71.0755L38.6678 65.2741L39.2655 65.2283Z" fill="#F2F7FF"/>
</svg>
