<svg width="84" height="105" viewBox="0 0 84 105" fill="none" xmlns="http://www.w3.org/2000/svg">
<path d="M23.8994 68.1744C22.7606 66.7576 21.6267 65.4978 20.663 64.1212C16.8395 58.7539 15.0651 52.1945 15.6612 45.6315C16.3778 36.6724 20.3852 29.4151 27.5035 23.9596C33.7394 19.1899 40.8497 17.2173 48.6641 18.1586C56.1878 19.046 62.2896 22.573 67.0628 28.4809C71.3244 33.7537 73.1871 39.807 73.1479 46.5041C73.0575 58.5751 65.2848 69.6775 53.9173 73.9983C48.2562 76.2068 42.0365 76.5434 36.1701 74.9588C35.4381 74.7669 35.0921 74.9489 34.7074 75.5252C32.0396 79.5467 29.3249 83.5352 26.6682 87.5619C24.9786 90.1192 23.3982 92.744 21.6979 95.2922C20.2681 97.4695 18.7478 99.5853 17.1708 101.651C16.5132 102.522 15.709 103.271 14.7944 103.866C14.0903 104.346 13.2698 104.627 12.4193 104.68C11.5688 104.733 10.7196 104.556 9.96128 104.168C8.58816 103.514 7.39394 102.537 6.48089 101.321C5.19744 99.6058 4.94664 97.7542 5.90201 95.8532C6.9207 93.8464 7.93896 91.8434 9.15974 89.9464C11.7222 85.9007 14.344 81.8934 17.0252 77.9243C19.0376 74.9516 21.1955 72.0704 23.2839 69.1496C23.4806 68.8405 23.684 68.5087 23.8994 68.1744ZM70.3939 48.8028C70.4279 48.2829 70.4532 47.9691 70.4726 47.6391C70.8624 41.218 69.2206 35.2807 65.2318 30.3138C58.7307 22.2158 50.0923 19.1442 39.9103 21.1377C26.9755 23.6628 17.5305 35.651 18.2288 49.1562C18.9902 64.049 31.8471 74.9142 46.627 73.0876C54.7791 72.0942 61.1555 67.9901 65.8261 61.2763C68.3781 57.5712 69.9496 53.2798 70.3939 48.8028V48.8028ZM25.9298 70.0208C24.471 71.9797 22.9667 73.8941 21.5823 75.8852C17.618 81.5836 13.6465 87.2772 10.1467 93.2807C9.40611 94.554 8.8082 95.9106 8.17784 97.2438C7.98974 97.6477 7.92435 98.098 7.98983 98.5388C8.05531 98.9795 8.24876 99.3913 8.54617 99.7231C8.87057 100.141 9.23667 100.525 9.63879 100.869C11.5005 102.488 12.9785 102.389 14.6674 100.566C14.8318 100.387 14.9847 100.197 15.1254 99.9987C17.009 97.2884 18.9621 94.5863 20.7979 91.8508C22.2647 89.6583 23.5722 87.3571 25.0138 85.146C26.9257 82.1966 28.9264 79.289 30.89 76.3652C31.4354 75.5537 32.0025 74.7565 32.5585 73.9541L25.9298 70.0208Z" fill="#3558A2"/>
<path d="M78.0142 3.45478C77.3452 5.81177 78.0127 7.67734 79.7027 9.2608C80.6078 10.1065 81.4572 10.9613 82.7081 11.3278C82.9881 11.3872 83.2394 11.5406 83.4202 11.7625C83.601 11.9844 83.7004 12.2614 83.7021 12.5477C83.7234 13.1953 83.3508 13.5697 82.7954 13.8366C80.6933 14.8516 79.031 16.415 77.5031 18.1311C76.6036 19.1276 76.2318 20.3897 75.8581 21.6359C75.5629 22.6137 75.3019 23.5995 75.0299 24.5801C74.7578 25.5607 74.1461 26.0399 73.4132 25.9221C72.6803 25.8044 72.3012 25.1067 72.3133 24.1424C72.3307 22.0722 72.3408 19.9972 72.2639 17.9315C72.1808 15.7517 70.7651 14.6268 68.8777 13.9545C68.4383 13.8349 68.0136 13.6668 67.6114 13.4532C67.3779 13.3236 67.1862 13.1299 67.0591 12.8951C66.9319 12.6602 66.8745 12.3938 66.8936 12.1274C66.9127 11.861 67.0075 11.6056 67.1669 11.3913C67.3262 11.1769 67.5435 11.0126 67.7931 10.9176C68.2439 10.7197 68.719 10.5824 69.2058 10.5094C72.2623 9.95502 74.0423 8.12397 74.7818 5.16925C75.026 4.18147 75.2804 3.1962 75.5449 2.21341C75.6164 1.94151 75.7169 1.67809 75.8448 1.42769C75.9548 1.14531 76.1648 0.913233 76.4348 0.775649C76.7048 0.638064 77.016 0.60458 77.3091 0.681569C77.5983 0.771054 77.8454 0.962113 78.0047 1.21949C78.1641 1.47686 78.225 1.78318 78.1762 2.08194C78.1411 2.57827 78.0602 3.06529 78.0142 3.45478ZM75.9843 9.02944C75.535 9.85485 74.9265 10.583 74.194 11.1717C73.4614 11.7605 72.6194 12.1982 71.7167 12.4595C73.57 13.6204 74.5863 15.0814 74.8096 17.0001C76.3819 15.5043 77.8897 14.0908 79.3533 12.6877L75.9843 9.02944Z" fill="#3558A2"/>
<path d="M70.394 48.8029C69.9404 53.2828 68.358 57.5745 65.7948 61.2766C61.1234 67.9981 54.7441 72.094 46.5959 73.0879C31.8159 74.9144 18.959 64.0493 18.1976 49.1565C17.5109 35.6526 26.9559 23.6644 39.8791 21.138C50.0607 19.1484 58.6995 22.2161 65.2006 30.3141C69.1894 35.281 70.8312 41.2183 70.4414 47.6394C70.4533 47.9692 70.428 48.283 70.394 48.8029ZM41.3851 68.669C44.5436 69.0814 47.7534 68.8342 50.8115 67.9431C63.6711 64.2323 70.5206 50.5812 66.3223 38.407C63.3672 29.8476 55.0525 23.7331 45.9801 23.6444C37.9815 23.569 31.5389 26.7425 26.7689 33.1396C23.0548 38.109 21.6911 43.7701 22.5599 49.9291C23.1779 54.3029 25.0456 58.0929 27.879 61.4847C29.0069 62.8355 30.4069 63.9332 31.9877 64.7063C33.3724 65.3975 34.7115 66.1771 36.0514 66.949C36.8054 67.3859 37.4678 67.9684 38.3906 68.1007C39.3939 68.2464 40.3881 68.4693 41.3851 68.669Z" fill="#EAECF1"/>
<path d="M25.9296 70.0209L32.5815 73.9569C32.0254 74.7593 31.4583 75.5565 30.913 76.3681C28.9494 79.2918 26.9641 82.2012 25.0368 85.1488C23.6029 87.3608 22.2876 89.6611 20.8209 91.8536C18.9833 94.6046 17.0535 97.2742 15.1483 100.002C15.0076 100.2 14.8547 100.39 14.6904 100.569C13.013 102.393 11.5234 102.491 9.66173 100.871C9.2596 100.528 8.89355 100.144 8.56915 99.726C8.27174 99.3942 8.0783 98.9823 8.01282 98.5416C7.94734 98.1009 8.01268 97.6506 8.20078 97.2466C8.83114 95.9134 9.42904 94.5568 10.1696 93.2835C13.6656 87.2796 17.6371 81.586 21.6053 75.888C22.9665 73.8942 24.4709 71.9798 25.9296 70.0209Z" fill="#8DA3D0"/>
<path d="M75.9845 9.02938L79.3535 12.6876C77.8758 14.0773 76.3821 15.5042 74.8098 17C74.5864 15.0813 73.5701 13.6203 71.7169 12.4594C72.6196 12.1981 73.4616 11.7604 74.1941 11.1717C74.9266 10.5829 75.5352 9.85478 75.9845 9.02938V9.02938Z" fill="white"/>
<path d="M41.3851 68.6689C40.3882 68.4692 39.3958 68.2309 38.3921 68.0891C37.4693 67.9568 36.8068 67.3742 36.0529 66.9373C34.7129 66.1654 33.3738 65.3858 31.9891 64.6946C30.4083 63.9216 29.0083 62.8238 27.8805 61.4731C25.047 58.0813 23.1793 54.2912 22.5613 49.9174C21.6925 43.7584 23.0755 38.0996 26.7703 33.128C31.5249 26.7291 37.9829 23.5574 45.9815 23.6328C55.0539 23.7214 63.369 29.832 66.3237 38.3953C70.522 50.5695 63.6687 64.2202 50.813 67.9315C47.7552 68.8267 44.5449 69.0778 41.3851 68.6689V68.6689ZM42.2365 44.8756L41.9636 45.1015C42.1337 45.4288 42.3206 45.7471 42.5236 46.0551C42.8578 46.5363 43.2776 46.9886 43.6354 47.4687C44.1245 48.1285 44.1854 48.7065 43.8504 49.2261C43.4748 49.7814 42.8762 49.9388 42.0547 49.6986L40.9424 49.3836C41.7129 51.9339 43.344 53.354 45.485 54.1969C47.3995 54.9303 49.4369 55.2901 51.4869 55.2567C51.8939 55.2261 52.2995 55.332 52.6397 55.5576C52.9798 55.7833 53.2351 56.1158 53.3652 56.5027C53.4598 56.7289 53.5457 56.9619 53.6239 57.1939C54.2528 59.055 54.8813 60.9199 55.5688 62.9481C59.8637 60.0491 62.7371 56.2396 64.1646 51.3641C65.3596 47.3566 65.2317 43.0707 63.7998 39.1416C63.596 39.2779 63.5187 39.3039 63.481 39.3582C61.5458 42.207 58.8303 43.4507 55.4253 43.2133C54.8938 43.178 54.6851 43.4232 54.4504 43.8217C53.2527 45.8543 51.1911 46.4596 49.121 45.281C48.1713 44.6882 47.2735 44.016 46.4373 43.2714C45.889 42.8158 45.447 42.2202 44.649 42.0908C44.624 42.3029 44.5516 42.4195 44.6008 42.4996C44.861 43.0777 45.1424 43.6426 45.4074 44.2135C45.7819 45.0162 45.6674 45.7221 45.1028 46.1325C44.5383 46.543 43.8719 46.4252 43.2153 45.7926C42.8883 45.4491 42.5549 45.1595 42.2288 44.8747L42.2365 44.8756ZM44.1378 34.7229C43.8178 35.1817 43.6612 35.4486 43.4558 35.6981C42.7267 36.7664 41.7407 37.6343 40.5885 38.2219C39.4363 38.8095 38.1548 39.0981 36.8619 39.061C35.5142 39.0506 35.5169 39.0275 34.9476 40.2741C34.8741 40.4335 34.8189 40.603 34.7381 40.7577C34.5591 41.0787 34.4653 41.4403 34.4657 41.808C34.4662 42.1756 34.5608 42.537 34.7407 42.8576C35.7853 45.0726 35.7738 47.3586 34.9492 49.6425C34.8009 50.0707 34.6304 50.4885 34.4431 50.9826C36.9791 52.4547 38.1913 54.8732 39.3385 57.3467C40.3065 59.4158 41.2977 61.4877 42.2426 63.5541C42.6028 64.3786 42.8677 65.2153 43.2211 66.1641C46.3041 66.3767 49.3937 65.8597 52.2395 64.6551C53.0084 64.3352 53.1116 64.1558 52.8691 63.3608C52.3801 61.7392 51.8291 60.1454 51.3271 58.5339C51.2795 58.3307 51.1634 58.1501 50.9983 58.0224C50.8332 57.8947 50.6292 57.8277 50.4206 57.8327C49.0978 57.6767 47.7659 57.5 46.4598 57.2365C44.719 56.9084 43.087 56.1529 41.7104 55.0381C39.9951 53.6354 38.7394 51.9507 38.3957 49.6932C38.3008 49.2245 38.328 48.7392 38.4748 48.284C38.6216 47.8289 38.8831 47.4191 39.234 47.0942C39.388 46.9593 39.498 46.7813 39.55 46.5832C39.6019 46.3852 39.5933 46.1761 39.5254 45.983C39.3961 45.293 39.3569 44.5892 39.4087 43.8891C39.5036 42.786 40.1011 42.1957 41.2014 41.9501L41.8377 41.8257C41.9184 41.5733 41.9885 41.343 42.0625 41.1133C42.6615 39.3502 43.9002 38.7925 45.627 39.5005C46.6919 39.969 47.6529 40.6445 48.4541 41.4879C49.051 42.0811 49.7264 42.5896 50.4615 42.9993C51.2322 43.4264 51.7726 43.1539 52.0571 42.3664C51.991 42.2872 51.9153 42.2165 51.8317 42.156C49.6895 41.0221 48.0527 39.1233 47.2471 36.8373C47.1978 36.6294 47.0827 36.443 46.9187 36.306C46.0174 35.793 45.1027 35.2941 44.1301 34.722L44.1378 34.7229ZM55.1333 40.5514C58.4216 40.9822 61.0701 39.2458 61.8742 36.4395C61.9717 36.1601 61.9982 35.8609 61.9515 35.5688C61.9047 35.2767 61.7861 35.0007 61.6063 34.7657C60.1542 32.82 58.4372 31.087 56.5051 29.6168C54.9581 28.3786 53.6471 28.6541 52.1857 29.5413C49.9363 30.9104 48.9565 33.3167 49.7218 35.8116C50.5771 38.6377 52.6342 40.0924 55.1256 40.5505L55.1333 40.5514ZM27.4596 56.0903C29.4201 60.685 35.8059 65.2856 40.1436 65.5704C40.1468 65.4672 40.1339 65.3641 40.1053 65.2648C38.6798 62.2346 37.3033 59.1867 35.7995 56.1903C35.3247 55.1586 34.5848 54.2713 33.6552 53.6188C33.1079 53.2532 32.7082 53.1943 32.1872 53.6998C31.2258 54.59 30.079 55.256 28.8293 55.6497C28.4066 55.8188 27.9649 55.9505 27.452 56.0894L27.4596 56.0903ZM25.4041 50.9096C25.577 51.5986 25.6803 52.1151 25.8335 52.6063C26.088 53.4652 26.2645 53.5603 27.1241 53.3997C28.7254 53.0787 30.1688 52.2198 31.2149 50.9657C32.261 49.7116 32.847 48.1375 32.8756 46.5046C32.8961 43.0154 30.2965 40.4254 26.8897 40.5357C26.348 40.554 25.7425 40.549 25.679 41.2531C25.595 42.1973 24.6953 43.1625 25.5831 44.0883C26.471 45.0141 26.4387 45.8509 25.4862 46.5675C24.6712 47.179 24.6905 47.6779 25.6198 48.0534C26.0462 48.1856 26.4932 48.2383 26.9387 48.2089C27.2122 48.2099 27.4834 48.0659 27.7636 48.0443C28.0444 47.9968 28.333 48.0489 28.5795 48.1914C28.8261 48.334 29.0152 48.5582 29.1142 48.8252C29.2244 49.0889 29.2338 49.3839 29.1407 49.6541C29.0475 49.9243 28.8583 50.1508 28.609 50.2905C27.9798 50.5819 27.3178 50.7966 26.6373 50.9299C26.2241 50.9679 25.808 50.9608 25.3964 50.9087L25.4041 50.9096ZM42.2939 31.2953C42.3309 30.6274 42.2348 29.9587 42.0111 29.3282C41.7875 28.6977 41.4407 28.118 40.991 27.6227C40.8074 27.3658 40.5422 27.1787 40.2387 27.0918C39.9351 27.0049 39.6111 27.0233 39.3193 27.144C37.0781 27.8851 34.9693 28.9787 33.0723 30.3836C32.8598 30.5347 32.6888 30.7369 32.575 30.9716C32.4612 31.2062 32.4084 31.4657 32.4213 31.7261C32.4405 32.7165 32.7629 33.6772 33.3452 34.4786C33.9274 35.28 34.7415 35.8835 35.6775 36.2078C38.6657 37.1937 41.8786 34.949 42.2862 31.2944L42.2939 31.2953ZM46.9109 32.9581C47.1131 31.7811 47.5672 30.6616 48.2422 29.6763C48.9172 28.691 49.7971 27.8632 50.8217 27.2495C49.0963 26.264 44.7935 25.8816 43.5543 26.5761C44.319 27.7592 44.7811 29.1121 44.8999 30.5157C44.9285 31.1017 44.7448 31.8307 45.0453 32.2337C45.3457 32.6367 46.0796 32.7467 46.6273 32.9755C46.7196 32.9775 46.8119 32.9714 46.9032 32.9572L46.9109 32.9581ZM33.1512 38.0681C32.4669 37.4231 31.826 36.7336 31.2325 36.0041C30.7332 35.2186 30.2849 34.4017 29.8905 33.5585C28.7353 34.6344 27.4688 36.6198 27.1901 37.8225C29.0253 37.9254 30.7949 38.5405 32.2983 39.598L33.1512 38.0681Z" fill="#3558A2"/>
<path d="M42.2283 44.8747C42.5536 45.1672 42.8878 45.4491 43.204 45.7522C43.8605 46.3849 44.4952 46.5067 45.0915 46.0921C45.6878 45.6776 45.7678 44.9989 45.396 44.1731C45.131 43.6023 44.8497 43.0373 44.5894 42.4592C44.5557 42.381 44.6126 42.2626 44.6377 42.0505C45.4357 42.1798 45.8771 42.7792 46.426 43.2311C47.2582 43.9815 48.1527 44.6599 49.0997 45.259C51.1698 46.4376 53.2314 45.8323 54.4291 43.7997C54.6637 43.4012 54.8725 43.156 55.404 43.1913C58.809 43.4287 61.5245 42.185 63.4597 39.3361C63.4973 39.2819 63.5747 39.2559 63.7784 39.1196C65.2103 43.0487 65.3382 47.3346 64.1432 51.3421C62.7158 56.2176 59.8423 60.0271 55.5474 62.9261C54.8609 60.8901 54.2315 59.033 53.6025 57.1719C53.5244 56.9399 53.4384 56.7069 53.3439 56.4807C53.2138 56.0938 52.9585 55.7613 52.6183 55.5356C52.2782 55.31 51.8725 55.2041 51.4655 55.2347C49.4155 55.268 47.3782 54.9083 45.4637 54.1749C43.3227 53.332 41.6916 51.9119 40.921 49.3616L42.0334 49.6766C42.8577 49.9146 43.4563 49.7571 43.8291 49.2041C44.1618 48.7038 44.1032 48.1065 43.6141 47.4467C43.2563 46.9666 42.8558 46.5166 42.5023 46.0331C42.2993 45.7251 42.1124 45.4068 41.9423 45.0795L42.2283 44.8747Z" fill="white"/>
<path d="M44.1297 34.722C45.1046 35.2749 46.0188 35.7776 46.9088 36.3205C47.0727 36.4576 47.1879 36.644 47.2372 36.8519C48.0428 39.1379 49.6796 41.0367 51.8218 42.1706C51.9054 42.2311 51.9811 42.3017 52.0472 42.381C51.7632 43.1646 51.2205 43.4564 50.4516 43.0139C49.7165 42.6042 49.0411 42.0957 48.4442 41.5024C47.6429 40.6591 46.6819 39.9835 45.6171 39.5151C43.8788 38.8057 42.64 39.3634 42.0526 41.1278C41.9786 41.3576 41.9084 41.5878 41.8278 41.8403L41.1915 41.9647C40.1048 42.2275 39.5091 42.8024 39.3988 43.9037C39.347 44.6037 39.3862 45.3076 39.5155 45.9975C39.5834 46.1907 39.592 46.3997 39.5401 46.5978C39.4881 46.7959 39.3781 46.9738 39.2241 47.1088C38.8732 47.4337 38.6117 47.8434 38.4649 48.2986C38.3181 48.7538 38.2909 49.239 38.3858 49.7078C38.7295 51.9652 39.9852 53.65 41.7005 55.0526C43.0771 56.1675 44.7091 56.9229 46.4498 57.2511C47.756 57.5146 49.0875 57.6951 50.4107 57.8473C50.6193 57.8423 50.8233 57.9092 50.9884 58.0369C51.1535 58.1646 51.2696 58.3453 51.3172 58.5485C51.8178 60.1715 52.3697 61.7576 52.8592 63.3754C53.0999 64.1858 52.9984 64.3498 52.2296 64.6696C49.3838 65.8743 46.2941 66.3913 43.2112 66.1787C42.8578 65.2299 42.5947 64.3777 42.2326 63.5687C41.3032 61.5041 40.2966 59.4304 39.3285 57.3612C38.1823 54.8801 36.9696 52.4654 34.4332 50.9971C34.6205 50.5031 34.791 50.0853 34.9393 49.6571C35.7446 47.3709 35.7754 45.0872 34.7308 42.8722C34.5509 42.5515 34.4563 42.1902 34.4559 41.8225C34.4554 41.4549 34.5492 41.0933 34.7282 40.7722C34.809 40.6175 34.8642 40.4481 34.9377 40.2887C35.507 39.0421 35.5043 39.0652 36.852 39.0756C38.1449 39.1127 39.4264 38.8241 40.5786 38.2365C41.7308 37.6489 42.7168 36.781 43.4459 35.7127C43.6338 35.4455 43.8097 35.1808 44.1297 34.722Z" fill="#EAECF1"/>
<path d="M55.1252 40.5505C52.6353 40.0809 50.5768 38.6377 49.7061 35.8098C48.9407 33.3149 49.9205 30.9086 52.1699 29.5395C53.6313 28.6523 54.9424 28.3769 56.4893 29.615C58.4214 31.0852 60.1384 32.8183 61.5905 34.7639C61.7703 34.9989 61.8889 35.2749 61.9357 35.567C61.9824 35.8592 61.9559 36.1584 61.8584 36.4377C61.062 39.245 58.4135 40.9814 55.1252 40.5505ZM55.415 38.8565C56.1251 38.9568 56.8492 38.8625 57.51 38.5838C58.1708 38.3051 58.7437 37.8523 59.1675 37.2738C59.4194 36.9956 59.5511 36.6291 59.5338 36.2542C59.5165 35.8793 59.3516 35.5265 59.0751 35.2727C58.5383 34.8184 57.8153 34.8817 57.2087 35.5491C56.9971 35.8071 56.7153 35.9982 56.3973 36.0995C56.0794 36.2008 55.739 36.2078 55.4172 36.1198C55.2089 36.0802 54.9966 36.0657 54.7849 36.0765C54.5354 36.0683 54.2898 36.1405 54.0844 36.2824C53.879 36.4243 53.7247 36.6284 53.6441 36.8647C53.5378 37.1123 53.5238 37.3899 53.6047 37.6469C53.6855 37.904 53.856 38.1235 54.0849 38.2656C54.5091 38.5032 54.9543 38.701 55.415 38.8565V38.8565ZM57.2889 31.9849C57.1243 31.9591 56.9562 31.967 56.7947 32.0082C56.6332 32.0493 56.4818 32.1228 56.3496 32.2242C56.2173 32.3256 56.107 32.4527 56.0254 32.598C55.9438 32.7433 55.8925 32.9036 55.8747 33.0693C55.8251 33.4186 55.9152 33.7734 56.1255 34.0566C56.3359 34.3398 56.6495 34.5286 56.9983 34.582C57.3319 34.6165 57.666 34.5212 57.9312 34.3159C58.1964 34.1105 58.3724 33.8109 58.4225 33.4793C58.4521 33.306 58.4457 33.1284 58.4039 32.9577C58.3621 32.7869 58.2858 32.6265 58.1795 32.4865C58.0733 32.3464 57.9394 32.2296 57.7863 32.1434C57.6331 32.0571 57.4638 32.0032 57.2889 31.9849V31.9849ZM53.7576 33.3161C53.5927 33.2909 53.4244 33.299 53.2626 33.3399C53.1008 33.3808 52.9488 33.4536 52.8156 33.5541C52.6824 33.6547 52.5707 33.7808 52.487 33.9252C52.4033 34.0696 52.3494 34.2293 52.3284 34.3948C52.2957 34.5626 52.2974 34.7353 52.3335 34.9023C52.3695 35.0694 52.4391 35.2274 52.538 35.3668C52.637 35.5062 52.7632 35.624 52.9091 35.7131C53.0549 35.8022 53.2173 35.8608 53.3865 35.8853C53.5557 35.9097 53.728 35.8996 53.8931 35.8554C54.0583 35.8112 54.2127 35.734 54.347 35.6284C54.4814 35.5227 54.5929 35.3909 54.6748 35.2409C54.7567 35.0908 54.8073 34.9257 54.8234 34.7556C54.8486 34.591 54.8409 34.4231 54.8008 34.2615C54.7608 34.0999 54.6892 33.9478 54.5902 33.814C54.4911 33.6802 54.3665 33.5673 54.2236 33.4819C54.0808 33.3964 53.9224 33.3401 53.7576 33.3161V33.3161Z" fill="white"/>
<path d="M27.4516 56.0895C27.9663 55.9352 28.4071 55.8112 28.8304 55.6695C30.0802 55.2758 31.227 54.6099 32.1884 53.7196C32.7094 53.2141 33.1091 53.273 33.6563 53.6386C34.5859 54.2911 35.3258 55.1785 35.8007 56.2101C37.2929 59.2052 38.681 62.2545 40.1065 65.2847C40.1351 65.3839 40.148 65.487 40.1448 65.5903C35.7996 65.2694 29.412 60.6842 27.4516 56.0895Z" fill="white"/>
<path d="M25.3962 50.9087C25.8064 50.9549 26.2205 50.9566 26.6311 50.9136C27.3116 50.7803 27.9736 50.5656 28.6029 50.2742C28.8521 50.1345 29.0414 49.908 29.1345 49.6378C29.2276 49.3676 29.2182 49.0726 29.108 48.8089C29.009 48.5419 28.8199 48.3177 28.5734 48.1751C28.3268 48.0326 28.0382 47.9805 27.7574 48.028C27.4772 48.0496 27.2061 48.1936 26.9325 48.1926C26.4871 48.222 26.04 48.1693 25.6137 48.0371C24.6844 47.6616 24.665 47.1627 25.48 46.5512C26.4326 45.8346 26.4226 44.9576 25.577 44.072C24.7313 43.1863 25.5889 42.181 25.6728 41.2368C25.7556 40.535 26.3423 40.5338 26.8835 40.5194C30.2904 40.4091 32.8938 42.9996 32.8694 46.4883C32.8408 48.1212 32.2549 49.6952 31.2087 50.9494C30.1626 52.2035 28.7192 53.0624 27.1179 53.3834C26.2583 53.544 26.0818 53.4489 25.8273 52.59C25.6732 52.1065 25.569 51.5977 25.3962 50.9087ZM30.1052 45.9902C30.153 45.6773 30.0771 45.358 29.8938 45.1C29.7104 44.8419 29.4339 44.6653 29.1227 44.6075C28.7955 44.5523 28.4597 44.6253 28.1851 44.8114C27.9104 44.9975 27.7181 45.2823 27.6481 45.6065C27.5987 45.9325 27.6809 46.2648 27.8766 46.5302C28.0722 46.7956 28.3653 46.9725 28.6913 47.0218C29.0173 47.0712 29.3495 46.989 29.6149 46.7933C29.8804 46.5977 30.0572 46.3046 30.1066 45.9786L30.1052 45.9902Z" fill="white"/>
<path d="M42.2861 31.2944C41.8785 34.949 38.6657 37.1937 35.677 36.2117C34.741 35.8874 33.9269 35.2839 33.3447 34.4825C32.7624 33.6811 32.44 32.7204 32.4208 31.73C32.4079 31.4695 32.4607 31.21 32.5745 30.9754C32.6883 30.7408 32.8593 30.5386 33.0718 30.3875C34.9688 28.9825 37.0776 27.889 39.3188 27.1479C39.6106 27.0271 39.9346 27.0087 40.2382 27.0956C40.5417 27.1826 40.8069 27.3697 40.9905 27.6266C41.4383 28.1219 41.7834 28.7011 42.0058 29.3307C42.2282 29.9603 42.3235 30.6277 42.2861 31.2944V31.2944ZM36.7753 35.6843C37.6944 35.766 38.6127 35.5197 39.3675 34.9891C40.048 34.4907 40.2626 33.7653 39.9111 33.1647C39.5597 32.5642 38.9456 32.4331 38.1457 32.718C37.6888 32.8856 37.2208 33.0211 36.745 33.1237C35.9124 33.2874 35.4727 33.7008 35.4761 34.4011C35.4795 35.1014 36.0059 35.5779 36.7753 35.6843ZM35.115 32.8219C35.2796 32.8432 35.4468 32.8304 35.6063 32.7846C35.7658 32.7387 35.9142 32.6607 36.0424 32.5553C36.1706 32.4499 36.2758 32.3194 36.3516 32.1717C36.4274 32.0241 36.4722 31.8625 36.4832 31.6969C36.5219 31.3637 36.4306 31.0283 36.2285 30.7606C36.0263 30.4928 35.7288 30.3132 35.3977 30.2591C35.0648 30.229 34.7335 30.3306 34.4746 30.542C34.2158 30.7534 34.0501 31.0578 34.0131 31.3899C33.9841 31.7239 34.0816 32.0566 34.2865 32.3219C34.4913 32.5873 34.7884 32.7659 35.1188 32.8224L35.115 32.8219ZM40.0946 30.383C40.1158 30.2359 40.1066 30.086 40.0674 29.9427C40.0283 29.7993 39.9601 29.6656 39.867 29.5497C39.774 29.4338 39.658 29.3384 39.5265 29.2692C39.395 29.2 39.2507 29.1587 39.1025 29.1477C38.9487 29.1262 38.7921 29.1361 38.6422 29.177C38.4924 29.2178 38.3525 29.2887 38.2309 29.3854C38.1093 29.482 38.0086 29.6023 37.935 29.7391C37.8614 29.8758 37.8164 30.0261 37.8026 30.1808C37.7889 30.3355 37.8067 30.4914 37.8551 30.639C37.9035 30.7865 37.9814 30.9227 38.0841 31.0393C38.1867 31.1558 38.312 31.2503 38.4523 31.3169C38.5926 31.3835 38.7449 31.4209 38.9001 31.4268C39.0456 31.439 39.192 31.4219 39.3308 31.3767C39.4696 31.3315 39.5979 31.259 39.7083 31.1635C39.8186 31.0679 39.9088 30.9513 39.9734 30.8204C40.038 30.6895 40.0758 30.547 40.0846 30.4013L40.0946 30.383Z" fill="white"/>
<path d="M55.4151 38.8564C54.9544 38.706 54.5086 38.5134 54.0833 38.281C53.8543 38.1388 53.6839 37.9193 53.603 37.6623C53.5221 37.4052 53.5361 37.1277 53.6424 36.8801C53.723 36.6438 53.8774 36.4396 54.0828 36.2977C54.2882 36.1558 54.5338 36.0837 54.7833 36.0919C54.995 36.081 55.2073 36.0955 55.4155 36.1352C55.7374 36.2232 56.0778 36.2161 56.3957 36.1148C56.7136 36.0136 56.9954 35.8224 57.2071 35.5645C57.8136 34.897 58.5357 34.8415 59.0735 35.2881C59.35 35.5418 59.5149 35.8946 59.5322 36.2695C59.5495 36.6444 59.4178 37.0109 59.1659 37.2891C58.7404 37.8646 58.167 38.3141 57.5067 38.5901C56.8463 38.866 56.1236 38.9581 55.4151 38.8564V38.8564Z" fill="#3558A2"/>
<path d="M57.2888 31.985C57.4637 32.0032 57.6329 32.0572 57.7861 32.1434C57.9393 32.2297 58.0731 32.3465 58.1794 32.4865C58.2856 32.6266 58.362 32.787 58.4038 32.9577C58.4456 33.1285 58.4519 33.306 58.4224 33.4793C58.3722 33.811 58.1963 34.1106 57.9311 34.3159C57.6659 34.5213 57.3318 34.6166 56.9981 34.5821C56.6494 34.5287 56.3358 34.3399 56.1254 34.0567C55.915 33.7734 55.8249 33.4186 55.8746 33.0694C55.8924 32.9037 55.9436 32.7433 56.0253 32.5981C56.1069 32.4528 56.2172 32.3256 56.3494 32.2242C56.4817 32.1229 56.6331 32.0494 56.7945 32.0082C56.956 31.9671 57.1242 31.9592 57.2888 31.985V31.985Z" fill="#3558A2"/>
<path d="M53.7577 33.3161C53.9224 33.3401 54.0808 33.3964 54.2237 33.4819C54.3666 33.5673 54.4912 33.6802 54.5902 33.814C54.6893 33.9478 54.7609 34.0999 54.8009 34.2615C54.8409 34.4231 54.8486 34.591 54.8235 34.7556C54.8073 34.9257 54.7568 35.0908 54.6749 35.2409C54.593 35.3909 54.4815 35.5227 54.3471 35.6284C54.2127 35.734 54.0583 35.8112 53.8932 35.8554C53.7281 35.8996 53.5557 35.9097 53.3866 35.8853C53.2174 35.8608 53.055 35.8022 52.9091 35.7131C52.7633 35.624 52.637 35.5062 52.5381 35.3668C52.4392 35.2274 52.3696 35.0694 52.3335 34.9023C52.2975 34.7353 52.2958 34.5626 52.3285 34.3948C52.3495 34.2293 52.4034 34.0696 52.4871 33.9252C52.5707 33.7808 52.6825 33.6547 52.8157 33.5541C52.9489 33.4536 53.1008 33.3808 53.2626 33.3399C53.4244 33.299 53.5927 33.2909 53.7577 33.3161V33.3161Z" fill="#3558A2"/>
<path d="M30.107 45.9748C30.0577 46.3008 29.8808 46.5939 29.6154 46.7895C29.35 46.9852 29.0177 47.0673 28.6917 47.018C28.3657 46.9687 28.0726 46.7918 27.877 46.5264C27.6814 46.261 27.5992 45.9287 27.6485 45.6027C27.7185 45.2785 27.9109 44.9937 28.1855 44.8076C28.4601 44.6215 28.796 44.5485 29.1231 44.6037C29.4323 44.6612 29.7072 44.836 29.8906 45.0915C30.0739 45.347 30.1515 45.6635 30.107 45.9748V45.9748Z" fill="#3558A2"/>
<path d="M36.775 35.6843C36.0038 35.5934 35.4756 35.0658 35.4758 34.4011C35.476 33.7365 35.9131 33.2797 36.7447 33.1237C37.2205 33.0211 37.6885 32.8856 38.1454 32.718C38.9622 32.4234 39.5696 32.5771 39.9109 33.1648C40.2521 33.7524 40.0477 34.4907 39.3672 34.9891C38.6124 35.5197 37.6941 35.766 36.775 35.6843V35.6843Z" fill="#3558A2"/>
<path d="M35.1184 32.8223C34.7887 32.765 34.4926 32.5861 34.2886 32.3209C34.0846 32.0557 33.9875 31.7237 34.0165 31.3904C34.0535 31.0582 34.2192 30.7538 34.478 30.5424C34.7369 30.331 35.0682 30.2294 35.4011 30.2595C35.7322 30.3136 36.0297 30.4932 36.2319 30.761C36.434 31.0287 36.5253 31.3641 36.4866 31.6973C36.4756 31.8629 36.4308 32.0245 36.355 32.1722C36.2792 32.3198 36.174 32.4503 36.0458 32.5557C35.9176 32.6611 35.7691 32.7392 35.6096 32.785C35.4501 32.8309 35.283 32.8436 35.1184 32.8223V32.8223Z" fill="#3558A2"/>
<path d="M40.0844 30.4014C40.0766 30.5485 40.0391 30.6925 39.9744 30.8248C39.9096 30.9571 39.8188 31.0749 39.7074 31.1713C39.596 31.2677 39.4663 31.3406 39.3261 31.3857C39.1859 31.4308 39.038 31.4471 38.8913 31.4337C38.7361 31.4278 38.5837 31.3904 38.4435 31.3238C38.3032 31.2572 38.1779 31.1627 38.0752 31.0462C37.9726 30.9297 37.8947 30.7934 37.8463 30.6459C37.7979 30.4983 37.7801 30.3424 37.7938 30.1877C37.8075 30.033 37.8525 29.8827 37.9262 29.746C37.9998 29.6092 38.1005 29.4889 38.2221 29.3923C38.3436 29.2956 38.4836 29.2247 38.6334 29.1839C38.7833 29.143 38.9398 29.1331 39.0936 29.1546C39.2428 29.1656 39.3882 29.2074 39.5204 29.2774C39.6527 29.3473 39.769 29.4439 39.8621 29.561C39.9551 29.6782 40.023 29.8133 40.0612 29.958C40.0995 30.1026 40.1074 30.2536 40.0844 30.4014Z" fill="#3558A2"/>
</svg>
