<svg width="92" height="82" viewBox="0 0 92 82" fill="none" xmlns="http://www.w3.org/2000/svg">
<path d="M80.9258 31.9893C81.8838 31.8867 82.8076 31.784 83.7313 31.6814C84.5867 31.5787 85.4421 31.4419 86.3316 31.4077C87.4949 31.3392 88.0081 31.8182 88.1108 32.9473C88.3161 35.445 88.4871 37.9768 88.6924 40.4745C88.8977 43.0748 89.1372 45.675 89.3767 48.2753C89.582 50.8414 89.7873 53.4075 89.9926 55.9736C90.1979 58.6423 90.4374 61.2768 90.6768 63.9455C90.8137 65.7246 90.9848 67.538 91.1216 69.3172C91.1559 69.8988 91.2243 70.4804 91.2927 71.0621C91.4296 72.1569 91.0874 72.6702 89.9926 72.807C88.4529 73.0123 86.9133 73.1492 85.3736 73.3202C82.0891 73.6624 78.7703 74.0387 75.4515 74.3809C72.817 74.6546 70.2167 74.9283 67.5822 75.202C64.3318 75.5442 61.1157 75.9205 57.8653 76.2627C55.2992 76.5364 52.7332 76.8101 50.1671 77.0838C46.8825 77.4259 43.6321 77.7681 40.3476 78.1444C37.7815 78.4182 35.2154 78.6919 32.6493 78.9656C29.3305 79.3077 26.046 79.6841 22.7272 80.0262C20.1611 80.3 17.595 80.5737 15.0289 80.8474C12.9077 81.0869 10.7864 81.2922 8.63086 81.5317C8.2545 81.5659 7.87815 81.6001 7.50179 81.6001C6.54379 81.6001 5.79107 80.9842 5.62 80.0262C5.48314 79.034 5.3805 78.0418 5.24364 77.0838C4.86729 73.6966 4.52514 70.3094 4.14878 66.9221C3.87507 64.2876 3.63557 61.6874 3.32764 59.0528C2.9855 55.8709 2.60914 52.689 2.267 49.5413C1.99328 46.941 1.71957 44.3407 1.44585 41.7746C1.17214 39.1401 0.864207 36.5398 0.590492 33.9053C0.487849 32.9131 0.385206 31.9209 0.316778 30.9287C0.282563 30.0049 0.453635 29.6285 1.30899 29.389C2.47228 29.0811 3.66978 28.8758 4.86729 28.7047C6.95436 28.3968 9.04144 28.1573 11.1285 27.8836C11.3338 27.8494 11.5391 27.7809 11.847 27.7125C11.5733 26.7203 11.3338 25.7281 11.0601 24.7701C10.9574 24.4279 10.8548 24.12 10.8206 23.7779C10.7179 23.0594 11.1285 22.4435 11.7786 22.3067C12.4287 22.1356 13.0787 22.5119 13.284 23.2304C13.5235 24.0516 13.6946 24.9069 13.9341 25.7623C14.0709 26.3097 14.2762 26.8229 14.4815 27.4388C15.6448 27.3019 16.7739 27.1651 18.0056 26.994C17.9372 26.0018 17.8687 25.0096 17.8003 24.0516C17.6292 21.9987 17.4582 19.9801 17.2871 17.9272C17.0476 15.1901 16.8423 12.4871 16.6028 9.74999C16.5002 8.68934 16.3975 7.66291 16.3633 6.60227C16.2949 5.43898 16.637 4.99419 17.7661 4.82312C19.3057 4.61784 20.8454 4.44676 22.385 4.27569C24.78 3.93355 26.9697 3.69405 29.1595 3.48876C31.2123 3.28348 33.231 3.07819 35.2838 2.8729C37.9526 2.59919 40.6555 2.32548 43.3242 2.01755C45.3771 1.81226 47.4641 1.60697 49.517 1.36747C51.6725 1.12797 53.828 0.922687 55.9835 0.683187C56.1546 0.648973 56.3599 0.648973 56.5309 0.614758C58.3101 0.512115 58.8917 0.922687 59.1997 2.66762C59.5076 4.34412 59.6787 6.05484 59.9182 7.73134C60.0892 8.86041 60.2261 9.98949 60.3972 11.1528C60.6025 11.2212 60.7735 11.3238 60.9446 11.3581C65.3582 12.3161 68.5744 14.9506 71.0378 18.6115C72.7143 21.1434 73.7408 23.9832 74.254 26.9598C74.5277 28.431 74.5619 29.9364 74.6988 31.4077C74.733 31.8182 74.8014 32.1946 74.8356 32.6736C75.9989 32.5367 77.0938 32.3999 78.2228 32.263C78.2228 32.0235 78.257 31.8524 78.2228 31.6814C77.8465 29.8338 77.4359 27.9862 77.0595 26.1387C76.9911 25.8307 76.9569 25.5228 76.9911 25.2149C77.0595 24.7359 77.5043 24.3253 77.9833 24.2569C78.565 24.1542 79.1124 24.4279 79.3177 25.0438C79.5572 25.7965 79.7283 26.5834 79.8993 27.3704C80.1731 28.6705 80.4126 29.9707 80.6863 31.2708C80.7547 31.5103 80.8573 31.7156 80.9258 31.9893ZM35.1128 76.1258C33.5389 59.9766 31.9993 43.9301 30.4254 27.8152C21.256 29.0127 12.1892 30.2102 3.05393 31.4077C4.76464 47.3173 6.44114 63.1244 8.15186 78.9998C17.1502 78.0076 26.046 77.0838 35.1128 76.1258ZM47.2931 74.8257C47.1562 72.6359 47.0194 70.5831 46.8825 68.5302C46.643 65.2799 46.4377 62.0295 46.1982 58.7791C46.0614 56.5894 45.9245 54.3655 45.7534 52.1758C45.5139 48.8912 45.3086 45.6066 45.0691 42.322C44.8981 39.9955 44.6928 37.6689 44.5901 35.3423C44.4875 32.4341 43.9743 29.5601 44.2822 26.6177C44.6244 23.2304 45.5481 20.0485 47.4984 17.2087C49.6196 14.0952 52.4594 12.0423 56.1888 11.2896C56.702 11.187 57.2152 11.1186 57.7969 11.0501C57.4205 8.38141 57.0784 5.81534 56.702 3.11241C44.1454 4.41255 31.6229 5.71269 19.0662 7.01284C19.6479 13.6162 20.1611 20.0143 20.6743 26.4808C20.8454 26.515 20.9822 26.5492 21.0849 26.515C24.0957 26.1044 27.1066 25.6939 30.1175 25.3175C30.4938 25.2833 30.9386 25.2833 31.315 25.3859C32.444 25.6597 32.8546 26.4808 32.923 27.6099C33.0257 29.2522 33.1968 30.8944 33.3678 32.5367C33.5731 34.8291 33.8126 37.1215 34.0521 39.3796C34.2574 41.5693 34.4627 43.759 34.668 45.9488C34.9417 48.8228 35.2496 51.6968 35.5233 54.5708C35.7971 57.4106 36.0708 60.2504 36.3103 63.0901C36.6182 66.1352 36.8919 69.2145 37.1998 72.2596C37.3025 73.4229 37.4393 74.5862 37.5762 75.8521C40.8608 75.5099 44.0427 75.1678 47.2931 74.8257ZM55.0255 74.0045C54.9571 73.286 54.9229 72.7044 54.8887 72.1227C54.6834 69.3514 54.4439 66.5458 54.2386 63.7744C54.1359 62.5085 54.5807 61.9953 55.8467 61.8242C58.5154 61.4478 61.1841 61.0373 63.8528 60.6951C65.8715 60.4214 66.282 60.832 66.4873 62.8849C66.7268 65.3483 67.0347 67.8117 67.3085 70.2752C67.3769 71.0279 67.5137 71.7806 67.6164 72.6702C70.4562 72.3622 73.2275 72.0885 76.1015 71.7806C75.5199 65.9641 75.0067 60.2503 74.425 54.4681C65.7688 55.4946 57.2494 56.521 48.6616 57.5816C49.038 63.2612 49.4486 68.8724 49.8249 74.5862C51.5699 74.3467 53.2464 74.1756 55.0255 74.0045ZM48.4564 55.0498C57.0784 54.0233 65.5977 52.9969 74.1513 51.9363C73.775 48.1727 73.4328 44.546 73.0565 40.8166C64.5371 41.8088 56.1204 42.7668 47.6694 43.7248C47.9431 47.5568 48.1826 51.252 48.4564 55.0498ZM71.7905 27.4046C63.3738 28.0889 55.0939 28.7732 46.7114 29.4574C46.9851 33.4605 47.2589 37.3267 47.5326 41.2614C56.0519 40.2692 64.4345 39.3112 72.8512 38.3532C72.4748 34.6238 72.1327 31.0655 71.7905 27.4046ZM76.9911 54.9471C77.5043 54.9129 77.9149 54.9129 78.3597 54.8445C80.0704 54.6392 81.8153 54.4339 83.5261 54.2286C84.5867 54.126 85.2026 54.5708 85.3394 55.6314C85.4763 56.6921 85.6131 57.7185 85.6816 58.7791C85.7842 59.874 85.3394 60.4214 84.2788 60.6267C83.2866 60.832 82.2601 61.0031 81.2679 61.1741C80.1046 61.3794 78.9071 61.6189 77.6412 61.8584C77.9491 65.1088 78.257 68.2565 78.5992 71.5069C79.2493 71.4042 79.7625 71.3358 80.3099 71.2674C80.3099 70.891 80.3099 70.5831 80.3099 70.2752C80.3099 68.5644 80.2757 66.8537 80.2757 65.143C80.2757 64.2534 80.6521 63.5691 81.5074 63.3639C82.5338 63.1244 83.5945 62.9533 84.6209 62.9191C85.6816 62.8849 86.2974 63.5007 86.4343 64.5614C86.6053 65.8615 86.708 67.1616 86.8448 68.4618C86.9133 69.1461 86.9817 69.7962 87.0501 70.5831C87.6318 70.5146 88.145 70.4804 88.6924 70.412C87.7002 58.2317 86.6738 46.1198 85.6816 33.9737C82.1233 34.3843 78.6676 34.7949 75.0751 35.2055C75.2804 37.3267 75.4857 39.448 75.691 41.6377C76.0673 41.6035 76.341 41.6035 76.649 41.5693C78.2913 41.364 79.8993 41.1245 81.5416 40.9193C82.9102 40.7482 83.4234 41.1245 83.6971 42.4589C83.9366 43.4853 84.1077 44.5118 84.313 45.5724C84.5525 46.8725 84.1077 47.4884 82.7733 47.7279C81.8496 47.899 80.9258 48.0016 80.002 48.1385C78.8045 48.3438 77.5728 48.549 76.341 48.7201C76.5805 50.8756 76.7858 52.8601 76.9911 54.9471ZM71.1747 24.9412C71.0036 24.3937 70.901 23.9832 70.7299 23.6068C70.2509 22.5804 69.8403 21.5539 69.2587 20.5959C67.8217 18.1667 65.9399 16.1823 63.408 14.8821C59.9866 13.1372 56.5309 13.0688 53.2122 15.1559C48.9696 17.8588 47.2931 22.0329 46.7456 26.9598C54.9571 26.2755 63.0317 25.6254 71.1747 24.9412ZM61.7315 63.5691C61.971 66.8195 62.2105 70.0014 62.4158 73.2518C63.3738 73.1492 64.195 73.0465 65.0503 72.9439C64.674 69.6593 64.3318 66.5116 63.9555 63.2612C63.1343 63.3296 62.45 63.4323 61.7315 63.5691ZM59.1997 63.9113C58.3101 64.0481 57.5574 64.1508 56.7704 64.2534C57.0099 67.4696 57.2494 70.5489 57.4889 73.765C58.3101 73.6624 59.0286 73.5597 59.8497 73.4571C59.6444 70.2751 59.4392 67.1616 59.1997 63.9113ZM76.1358 46.2225C78.0518 45.9145 79.8309 45.6408 81.6785 45.3671C81.5416 44.6828 81.439 44.1354 81.3363 43.5195C79.523 43.759 77.7781 43.9985 75.9647 44.238C76.0331 44.8881 76.0673 45.504 76.1358 46.2225ZM77.4017 59.3608C79.3519 58.9844 81.1995 58.6765 83.1155 58.3001C83.0471 57.7869 82.9786 57.3421 82.876 56.8289C80.96 57.0684 79.1466 57.2737 77.2648 57.479C77.299 58.1633 77.3675 58.7107 77.4017 59.3608ZM82.876 65.6904C82.876 67.5038 82.876 69.2487 82.876 71.0279C83.4918 70.9594 83.9708 70.9252 84.5525 70.8568C84.3814 69.0092 84.2446 67.2643 84.0735 65.4509C83.5603 65.5536 83.1839 65.622 82.876 65.6904Z" fill="#3558A2"/>
<path d="M35.1114 76.1266C26.0446 77.0846 17.1488 78.0426 8.11625 79.0006C6.40553 63.1251 4.72903 47.3181 3.01831 31.4084C12.1535 30.2109 21.2203 29.0134 30.3898 27.8159C31.9636 43.9309 33.5375 59.9774 35.1114 76.1266ZM28.4396 56.4875C28.4396 56.4191 28.4396 56.2822 28.4396 56.1796C28.2001 53.8188 27.9606 51.4238 27.6868 49.063C27.5842 48.105 27.0026 47.5576 26.2841 47.6602C25.5313 47.7287 25.0866 48.4472 25.1892 49.4394C25.4287 51.6633 25.634 53.8872 25.8735 56.1112C25.9077 56.5217 25.9761 56.9323 26.0788 57.3087C26.2498 57.8903 26.7973 58.2667 27.3105 58.2325C27.8921 58.1982 28.3711 57.7192 28.4396 57.0692C28.4738 56.8297 28.4396 56.6928 28.4396 56.4875ZM15.1986 72.6025C14.9933 70.3443 14.7538 68.1546 14.5485 65.9649C14.5143 65.5201 14.4801 65.1095 14.3775 64.6648C14.2064 63.9805 13.6248 63.5699 13.0089 63.6383C12.4273 63.7068 12.0167 64.22 11.9825 64.87C11.9825 65.0411 11.9825 65.2464 12.0167 65.4175C12.1535 67.094 12.2904 68.7363 12.4615 70.4128C12.5641 71.3366 12.6325 72.2603 12.8378 73.1841C12.9405 73.8 13.4879 74.1421 14.0695 74.1079C14.6512 74.0737 15.096 73.6631 15.1986 73.0473C15.2328 72.9104 15.1986 72.7051 15.1986 72.6025ZM14.1038 58.0272C13.9669 56.4533 13.83 54.7426 13.6932 53.0661C13.6248 52.3134 13.5563 51.5265 13.3853 50.7737C13.2484 50.1921 12.7694 49.8842 12.222 49.8842C11.6745 49.8842 11.1955 50.2947 11.0587 50.9106C10.9903 51.1501 10.9903 51.3896 11.0245 51.6633C11.1955 53.682 11.3666 55.6664 11.5719 57.685C11.6061 58.164 11.6745 58.6773 11.7772 59.1563C11.914 59.8405 12.4957 60.2511 13.1458 60.1485C13.7274 60.08 14.1722 59.601 14.2064 58.9167C14.1722 58.6772 14.138 58.4035 14.1038 58.0272ZM26.6262 64.0147C26.7631 66.1018 26.8657 68.223 27.0026 70.3101C27.0026 70.5154 27.0368 70.7549 27.1052 70.9602C27.2763 71.5076 27.7895 71.8498 28.3027 71.8498C28.8844 71.8156 29.2949 71.4734 29.4318 70.8233C29.5002 70.5496 29.5344 70.2759 29.5002 70.0022C29.3976 67.8125 29.2949 65.6228 29.1581 63.3988C29.1581 63.1593 29.1238 62.8856 29.0554 62.6803C28.8501 61.9618 28.3369 61.5513 27.7211 61.6197C27.1052 61.6881 26.6604 62.1671 26.592 62.9198C26.592 63.262 26.6262 63.6383 26.6262 64.0147ZM22.4521 71.1313C22.2468 68.3599 22.0757 65.9649 21.9046 63.5357C21.8704 63.262 21.802 62.9883 21.6651 62.7488C21.4256 62.3382 21.0835 62.1329 20.6045 62.1329C20.1255 62.1671 19.7491 62.3724 19.5781 62.8172C19.4412 63.1251 19.407 63.4673 19.407 63.8094C19.5096 65.4175 19.6465 67.0256 19.7491 68.6336C19.8176 69.3863 19.8518 70.1048 19.9202 70.8576C19.9886 71.6787 20.3992 72.1919 21.0151 72.2946C21.8362 72.4656 22.4521 71.7813 22.4521 71.1313ZM18.5858 51.0475C18.62 51.5949 18.6885 52.1423 18.7227 52.724C18.7569 53.3056 18.7911 53.8872 18.8595 54.4689C18.9622 55.4953 19.0306 56.5217 19.1675 57.514C19.2701 58.164 19.8518 58.5746 20.4334 58.5404C21.0493 58.5062 21.5283 57.993 21.5967 57.3087C21.5967 57.1718 21.5967 57.0007 21.5967 56.8297C21.4256 54.6057 21.2546 52.3818 21.0835 50.1579C21.0835 49.9868 21.0493 49.7815 21.0151 49.6105C20.8098 48.8919 20.2966 48.4814 19.6807 48.5498C19.0648 48.6182 18.62 49.0972 18.5858 49.8157C18.5174 50.2263 18.5516 50.6369 18.5858 51.0475ZM20.2281 43.3492C19.9886 41.5017 19.7833 39.6199 19.5438 37.7381C19.4754 37.2249 19.4412 36.6774 19.3043 36.1984C19.099 35.5484 18.5516 35.2062 17.97 35.3089C17.3883 35.4115 16.9435 35.8905 16.9435 36.5406C16.9435 36.8485 16.9435 37.1564 16.9778 37.4644C17.1488 39.0382 17.3541 40.6121 17.5252 42.1517C17.6278 42.836 17.6963 43.5203 17.8673 44.1704C18.0384 44.8204 18.62 45.1284 19.2359 45.0257C19.7833 44.9231 20.1597 44.4783 20.2281 43.8624C20.2623 43.6914 20.2281 43.5203 20.2281 43.3492ZM9.99804 37.8749C10.1349 39.2093 10.306 40.5094 10.4428 41.8438C10.5455 42.836 10.6481 43.8282 10.785 44.7862C10.9218 45.6416 11.5377 46.1548 12.222 46.0522C12.9063 45.9495 13.351 45.2652 13.2826 44.4441C13.2826 44.3414 13.2484 44.273 13.2484 44.1704C13.0773 42.8018 12.9405 41.399 12.7694 40.0304C12.6668 39.1066 12.5641 38.1829 12.393 37.2591C12.2562 36.5748 11.6745 36.1642 11.0245 36.2669C10.4428 36.3353 10.0322 36.8485 9.99804 37.4986C9.99804 37.6354 9.99804 37.7381 9.99804 37.8749ZM27.0026 42.4597C26.7973 40.4752 26.6262 38.4908 26.4209 36.5064C26.3867 36.1642 26.2841 35.8221 26.1472 35.5484C25.9419 35.1378 25.5313 34.9325 25.0523 35.0009C24.6076 35.0351 24.197 35.2746 24.0601 35.7194C23.9575 35.9931 23.9233 36.3353 23.9575 36.6432C24.1286 38.6277 24.2996 40.5779 24.4707 42.5623C24.5049 42.9387 24.5391 43.315 24.676 43.6572C24.8813 44.2388 25.4287 44.5125 26.0103 44.4441C26.5578 44.3757 26.9341 43.9651 27.0026 43.3834C27.0368 43.0755 27.0026 42.7676 27.0026 42.4597Z" fill="white"/>
<path d="M47.2922 74.8265C44.0418 75.1686 40.8941 75.5108 37.6437 75.8529C37.5069 74.587 37.37 73.4237 37.2674 72.2604C36.9594 69.2154 36.6515 66.1361 36.3778 63.091C36.1041 60.2512 35.8646 57.4114 35.5909 54.5716C35.3171 51.6976 35.0092 48.8236 34.7355 45.9496C34.5302 43.7599 34.3249 41.5702 34.1196 39.3804C33.9144 37.0881 33.6748 34.7957 33.4353 32.5376C33.2643 30.8953 33.0932 29.253 32.9906 27.6107C32.9221 26.5159 32.5116 25.6947 31.3825 25.3868C31.0061 25.2841 30.5956 25.2841 30.185 25.3184C27.1741 25.6947 24.1633 26.1053 21.1524 26.5159C21.0498 26.5159 20.9129 26.4816 20.7418 26.4816C20.2286 20.0493 19.7154 13.617 19.168 7.0479C31.7246 5.74775 44.2471 4.44761 56.8037 3.14746C57.1801 5.85039 57.5222 8.41647 57.8986 11.0852C57.2827 11.1878 56.7695 11.222 56.2905 11.3247C52.5612 12.0774 49.7214 14.1303 47.6001 17.2438C45.6841 20.0836 44.7261 23.2313 44.3839 26.6527C44.076 29.5951 44.5892 32.4692 44.6919 35.3774C44.7945 37.7039 44.9998 40.0305 45.1709 42.3571C45.4104 45.6417 45.6499 48.9263 45.8552 52.2108C45.992 54.4005 46.1289 56.6245 46.2999 58.8142C46.5394 62.0646 46.7447 65.3149 46.9842 68.5653C47.0184 70.5839 47.1211 72.6368 47.2922 74.8265ZM32.9906 12.0432C32.8879 11.2905 32.8879 10.7088 32.7168 10.1956C32.4431 9.27183 31.4851 8.99811 30.6982 9.54554C30.4587 9.71661 30.2534 9.99033 30.0481 10.1956C29.4323 10.8799 28.8506 11.5984 28.2006 12.2827C27.9268 12.5564 27.5847 12.7275 27.2426 13.0012C26.7978 12.0774 27.0715 11.3247 27.2426 10.5378C27.4136 9.71661 27.0715 9.10076 26.4214 8.89547C25.8056 8.7244 25.1213 9.03233 24.8818 9.75083C24.3685 11.1878 24.3001 12.659 24.9502 14.0961C25.4292 15.1225 26.3188 15.6015 27.4478 15.4988C28.3374 15.3962 29.0217 14.9514 29.6718 14.404C29.9455 14.1645 30.185 13.925 30.4587 13.6855C31.4167 15.0198 32.1694 15.362 33.3669 14.8488C33.8459 14.6435 34.2565 14.2671 34.6329 13.9592C34.9066 13.7197 35.1461 13.4118 35.3856 13.138C36.7541 14.6093 37.9516 14.8488 39.5255 14.0276C39.9703 13.7881 40.3809 13.5144 40.7572 13.2065C41.6468 12.488 42.5021 11.7353 43.3575 10.9483C44.1787 10.1956 44.3155 9.4429 43.7339 8.86126C43.1864 8.31383 42.5021 8.38226 41.681 9.10076C40.8256 9.85347 39.9703 10.6062 39.0807 11.3589C38.7044 11.6668 38.328 11.9748 37.6437 11.9748C37.5411 11.4958 37.4384 11.0168 37.4042 10.5378C37.3016 9.6824 36.9594 9.13497 36.3094 8.9639C35.5566 8.79283 35.0434 9.16919 34.6329 9.71661C34.3934 10.0245 34.1881 10.3667 33.9486 10.7088C33.6748 11.0852 33.4011 11.4958 32.9906 12.0432ZM27.0031 18.6808V18.6466C27.6531 18.6466 28.3032 18.6808 28.9533 18.6466C31.9983 18.4413 35.0092 18.2018 38.0201 17.9281C38.6017 17.8938 39.1834 17.7228 39.7308 17.5175C40.2782 17.278 40.5177 16.6621 40.3809 16.1147C40.244 15.5673 39.6966 15.1909 39.1149 15.2251C37.5069 15.362 35.8988 15.4988 34.2907 15.6357C32.4431 15.8068 30.5956 15.9778 28.748 16.1147C27.5505 16.1831 26.3188 16.1831 25.1213 16.2173C24.1975 16.2516 23.65 16.799 23.7527 17.5859C23.8553 18.2018 24.3001 18.6466 25.0528 18.6808C25.7029 18.715 26.353 18.6808 27.0031 18.6808Z" fill="#EAECF1"/>
<path d="M55.0275 74.0052C53.2483 74.1762 51.5718 74.3473 49.7927 74.5526C49.4163 68.8388 49.0058 63.2277 48.6294 57.5481C57.2172 56.5216 65.7366 55.4952 74.3928 54.4346C75.0086 60.2168 75.5219 65.9306 76.0693 71.747C73.1953 72.055 70.4239 72.3287 67.5841 72.6366C67.4815 71.7812 67.3789 71.0285 67.2762 70.2416C67.0025 67.7782 66.7288 65.3147 66.4551 62.8513C66.2498 60.7984 65.8392 60.3879 63.8206 60.6616C61.1518 61.0037 58.4831 61.4143 55.8144 61.7907C54.5827 61.9617 54.1379 62.4749 54.2063 63.7409C54.4116 66.5122 54.6511 69.3178 54.8564 72.0892C54.9248 72.705 54.959 73.2867 55.0275 74.0052Z" fill="white"/>
<path d="M48.4573 55.0505C48.1836 51.2527 47.9441 47.5576 47.6704 43.7598C56.1556 42.8018 64.5381 41.8096 73.0575 40.8516C73.4338 44.5467 73.776 48.1734 74.1523 51.9712C65.5987 52.9977 57.0794 54.0241 48.4573 55.0505ZM69.2939 48.3103C69.157 47.5234 69.0202 46.6338 68.7807 45.7784C68.6096 45.1284 68.0279 44.7862 67.4463 44.8546C66.8647 44.9573 66.3514 45.4705 66.4199 46.1206C66.5225 47.0444 66.6594 47.9681 66.8647 48.8577C67.0357 49.5762 67.6516 49.9184 68.2674 49.7815C68.9175 49.6446 69.2939 49.0972 69.2939 48.3103ZM61.6299 49.1314C61.4588 48.4129 61.3562 47.5918 61.0824 46.8049C60.8772 46.189 60.3297 45.9153 59.7823 46.0179C59.1664 46.1206 58.7216 46.5654 58.7901 47.2839C58.8585 48.2076 59.0296 49.1314 59.2349 50.021C59.3717 50.6026 59.8849 50.8764 60.4324 50.8079C60.9798 50.7395 61.3561 50.4658 61.493 49.9184C61.5272 49.6789 61.5614 49.4736 61.6299 49.1314ZM52.392 47.0101C51.7419 47.0101 51.2287 47.4891 51.2287 48.2076C51.2629 49.063 51.3313 49.9526 51.5024 50.7737C51.6393 51.5264 52.2893 51.937 52.9052 51.8002C53.5553 51.6633 53.9659 51.0817 53.8974 50.3289C53.829 49.5762 53.7263 48.7893 53.5895 48.0366C53.4868 47.3865 53.0078 47.0101 52.392 47.0101Z" fill="white"/>
<path d="M71.7905 27.4043C72.1327 31.0652 72.509 34.6577 72.8512 38.3529C64.4345 39.3109 56.0519 40.2689 47.5326 41.2611C47.2589 37.3607 46.9851 33.4602 46.7114 29.4572C55.0597 28.7729 63.3738 28.0886 71.7905 27.4043ZM51.6041 34.3156C51.7409 35.2052 51.8436 36.0263 51.9804 36.8475C52.1515 37.6686 52.7674 38.1134 53.4174 38.0107C54.1701 37.9081 54.5465 37.2922 54.4439 36.4027C54.3412 35.65 54.2728 34.863 54.1701 34.1103C54.1359 33.8708 54.0675 33.6313 53.9649 33.3918C53.7596 32.9812 53.4174 32.7075 52.9384 32.7417C52.4252 32.7417 52.0489 32.9812 51.8436 33.4602C51.7067 33.7339 51.6725 34.0761 51.6041 34.3156ZM61.492 35.3762H61.5262C61.3894 34.6235 61.2867 33.8366 61.1157 33.0839C60.9104 32.2969 60.3629 31.9206 59.7129 32.0232C59.097 32.1259 58.618 32.7417 58.6864 33.4944C58.7549 34.3156 58.9259 35.1367 59.097 35.9579C59.2339 36.608 59.8155 36.9843 60.3972 36.9501C60.9788 36.8817 61.4236 36.4027 61.492 35.7526C61.5262 35.6157 61.492 35.4789 61.492 35.3762ZM68.3691 34.6577C68.2665 34.0761 68.1638 33.2207 67.9585 32.3654C67.8217 31.8522 67.4111 31.5442 66.8637 31.5442C66.3847 31.5442 66.0083 31.7153 65.803 32.1601C65.7004 32.4338 65.5977 32.7759 65.632 33.0497C65.7004 33.8024 65.803 34.5209 65.9399 35.2394C66.111 36.0263 66.6926 36.4369 67.3085 36.3342C67.9585 36.2658 68.3691 35.6842 68.3691 34.6577Z" fill="white"/>
<path d="M76.9892 54.9475C76.7839 52.8604 76.5786 50.876 76.3734 48.7547C77.6051 48.5494 78.8368 48.3441 80.0343 48.173C80.9581 48.0362 81.8819 47.8993 82.8056 47.7625C84.1058 47.523 84.5848 46.8729 84.3453 45.607C84.14 44.5805 83.9689 43.5199 83.7294 42.4935C83.4215 41.1249 82.9425 40.7827 81.5739 40.9538C79.9316 41.1591 78.3236 41.3986 76.6813 41.6039C76.3733 41.6381 76.0654 41.6381 75.7233 41.6723C75.518 39.4826 75.3127 37.3613 75.1074 35.24C78.6657 34.8294 82.1556 34.4189 85.7139 34.0083C86.7061 46.1544 87.7325 58.2663 88.7247 70.4466C88.1773 70.515 87.6641 70.5492 87.0824 70.6176C87.014 69.8649 86.9456 69.1806 86.8772 68.4964C86.7403 67.1962 86.6377 65.8961 86.4666 64.5959C86.3297 63.5353 85.7139 62.9194 84.6532 62.9536C83.5926 62.9878 82.5661 63.1589 81.5397 63.3984C80.6844 63.6037 80.308 64.288 80.308 65.1776C80.3422 66.8883 80.3422 68.599 80.3422 70.3097C80.3422 70.6176 80.3422 70.9256 80.3422 71.3019C79.7948 71.3704 79.2816 71.473 78.6315 71.5414C78.3236 68.2911 78.0156 65.1434 77.6735 61.893C78.9394 61.6535 80.1027 61.4482 81.3002 61.2087C82.2924 61.0376 83.3189 60.8666 84.3111 60.6613C85.3717 60.456 85.7823 59.8743 85.7139 58.8137C85.6112 57.7531 85.5086 56.7266 85.3717 55.666C85.2349 54.6053 84.619 54.1263 83.5584 54.2632C81.8476 54.4685 80.1027 54.6738 78.392 54.879C77.913 54.9133 77.5024 54.9133 76.9892 54.9475Z" fill="#979FBB"/>
<path d="M71.1727 24.9408C62.9955 25.6251 54.9209 26.2752 46.7437 26.9594C47.2911 22.0326 48.9676 17.8584 53.2102 15.1555C56.4947 13.0684 59.9504 13.1711 63.406 14.8818C65.9379 16.1477 67.8197 18.1664 69.2567 20.5956C69.8383 21.5536 70.2489 22.58 70.7279 23.6064C70.899 23.9828 71.0016 24.3934 71.1727 24.9408ZM63.7824 21.0746C62.8928 21.1772 62.1401 21.2114 61.3532 21.3141C60.053 21.4852 58.7871 21.6562 57.487 21.8615C56.8369 21.9642 56.4605 22.4089 56.3921 22.9564C56.3237 23.4696 56.5974 23.9828 57.0764 24.1539C57.3501 24.2565 57.6922 24.2907 58.0002 24.2565C59.0608 24.1539 60.0872 23.9828 61.1479 23.8802C62.2428 23.7433 63.3718 23.6407 64.4667 23.5038C65.2194 23.4012 65.6642 22.8537 65.5958 22.1694C65.5273 21.5194 65.0825 21.1088 64.3298 21.0746C64.0903 21.0746 63.885 21.0746 63.7824 21.0746ZM61.5585 20.8009C62.3454 20.7667 63.0981 20.664 63.714 20.1166C64.193 19.706 64.2956 19.1244 64.0219 18.6111C63.7482 18.0979 63.2008 17.8584 62.6191 17.9953C62.5165 18.0295 62.3796 18.0637 62.277 18.1321C61.798 18.3716 61.4558 18.3374 61.1137 17.8584C60.6689 17.2426 60.0188 17.1741 59.5056 17.4821C58.9924 17.8242 58.8213 18.4743 59.0608 19.1244C59.403 20.185 60.361 20.8009 61.5585 20.8009Z" fill="white"/>
<path d="M61.731 63.5697C62.4837 63.467 63.168 63.3644 63.9549 63.2275C64.3312 66.4779 64.6734 69.6256 65.0497 72.9102C64.1944 73.0128 63.3732 73.1155 62.4152 73.2181C62.1757 69.9678 61.9705 66.82 61.731 63.5697Z" fill="#979FBB"/>
<path d="M59.1992 63.9121C59.4387 67.1625 59.644 70.276 59.8835 73.4579C59.0623 73.5606 58.3438 73.6632 57.5227 73.7658C57.2832 70.5839 57.0437 67.4704 56.8042 64.2543C57.5569 64.1516 58.3096 64.0148 59.1992 63.9121Z" fill="#979FBB"/>
<path d="M76.1371 46.2215C76.0687 45.503 76.0345 44.8872 75.9661 44.2029C77.7794 43.9634 79.5244 43.7239 81.3377 43.4844C81.4404 44.1002 81.5772 44.6477 81.6799 45.3319C79.8323 45.6399 78.0531 45.9136 76.1371 46.2215Z" fill="white"/>
<path d="M77.401 59.3605C77.3326 58.7104 77.2984 58.163 77.2642 57.4787C79.1459 57.2734 80.9935 57.0339 82.8753 56.8286C82.9437 57.3418 83.0122 57.7866 83.1148 58.2998C81.1988 58.6762 79.3512 59.0183 77.401 59.3605Z" fill="white"/>
<path d="M82.8741 65.6902C83.182 65.6218 83.5583 65.5533 84.0373 65.4507C84.2084 67.264 84.3453 69.009 84.5163 70.8566C83.9347 70.925 83.4557 70.9592 82.8398 71.0276C82.8741 69.2485 82.8741 67.5035 82.8741 65.6902Z" fill="white"/>
<path d="M28.4392 56.4864C28.4392 56.6917 28.4392 56.8628 28.4392 56.9996C28.3708 57.6497 27.8918 58.1287 27.3102 58.1629C26.7627 58.1971 26.2153 57.8208 26.0785 57.2391C25.9758 56.8628 25.9074 56.4522 25.8732 56.0416C25.6337 53.8177 25.4284 51.5938 25.1889 49.3698C25.0862 48.3776 25.4968 47.6933 26.2837 47.5907C27.0022 47.5223 27.5839 48.0697 27.6865 48.9935C27.9602 51.3543 28.1997 53.7493 28.4392 56.1101C28.4392 56.2811 28.4392 56.418 28.4392 56.4864Z" fill="#3558A2"/>
<path d="M15.2023 72.6009C15.2023 72.7036 15.2023 72.9089 15.1681 73.0799C15.0654 73.6958 14.6206 74.1064 14.039 74.1406C13.4573 74.1748 12.9441 73.8326 12.8073 73.2168C12.6362 72.293 12.5335 71.3692 12.4309 70.4454C12.2598 68.7689 12.123 67.1266 11.9861 65.4501C11.9861 65.2791 11.9519 65.0738 11.9519 64.9027C11.9861 64.2184 12.3967 63.7394 12.9783 63.671C13.5942 63.6026 14.1758 64.0131 14.3469 64.6974C14.4496 65.108 14.4496 65.5528 14.518 65.9976C14.7917 68.1531 14.997 70.3428 15.2023 72.6009Z" fill="#3558A2"/>
<path d="M14.1065 58.0268C14.1407 58.4032 14.1407 58.6427 14.1407 58.9164C14.1065 59.6007 13.6617 60.0797 13.08 60.1481C12.43 60.2165 11.8825 59.8402 11.7115 59.1559C11.6088 58.6769 11.5746 58.1637 11.5062 57.6847C11.3351 55.666 11.1298 53.6816 10.9588 51.6629C10.9245 51.4234 10.9588 51.1497 10.993 50.9102C11.1298 50.2944 11.6088 49.918 12.1563 49.8838C12.6695 49.8838 13.1827 50.1917 13.3195 50.7734C13.4906 51.5261 13.559 52.313 13.6275 53.0657C13.8328 54.7764 13.9696 56.4529 14.1065 58.0268Z" fill="#3558A2"/>
<path d="M26.6285 64.0143C26.6285 63.6379 26.5943 63.2615 26.6285 62.8852C26.6627 62.1667 27.1075 61.6535 27.7576 61.585C28.3734 61.5166 28.8866 61.9272 29.0919 62.6457C29.1603 62.8852 29.1603 63.1247 29.1946 63.3642C29.2972 65.5539 29.4341 67.7436 29.5367 69.9675C29.5367 70.2413 29.5025 70.515 29.4683 70.7887C29.3314 71.4388 28.9208 71.7809 28.3392 71.8151C27.826 71.8151 27.347 71.473 27.1417 70.9255C27.0733 70.7203 27.0391 70.515 27.0391 70.2755C26.868 68.2226 26.7653 66.1013 26.6285 64.0143Z" fill="#3558A2"/>
<path d="M22.4542 71.13C22.4542 71.7801 21.8383 72.4644 21.0172 72.2933C20.4013 72.1907 19.9908 71.6775 19.9223 70.8563C19.8539 70.1036 19.7855 69.3851 19.7513 68.6324C19.6486 67.0243 19.5118 65.4162 19.4091 63.8082C19.3749 63.466 19.4433 63.1239 19.5802 62.8159C19.7513 62.3712 20.1276 62.1659 20.6066 62.1317C21.0856 62.0974 21.462 62.3369 21.6673 62.7475C21.8041 62.987 21.8725 63.2607 21.9068 63.5344C22.0778 65.9637 22.2489 68.3587 22.4542 71.13Z" fill="#3558A2"/>
<path d="M18.5867 51.047C18.5525 50.6364 18.5183 50.2259 18.5525 49.8495C18.5867 49.131 19.0315 48.6178 19.6474 48.5836C20.2632 48.5151 20.7764 48.9257 20.9817 49.6442C21.0159 49.8153 21.0501 50.0206 21.0501 50.1916C21.2212 52.4156 21.3923 54.6395 21.5634 56.8634C21.5634 57.0345 21.5976 57.1714 21.5634 57.3424C21.4949 58.0609 21.0159 58.5399 20.4001 58.5742C19.8184 58.6084 19.271 58.1978 19.1341 57.5477C18.9631 56.5555 18.8946 55.5291 18.8262 54.5026C18.7578 53.921 18.7578 53.3394 18.6894 52.7577C18.6551 52.1419 18.6209 51.5944 18.5867 51.047Z" fill="#3558A2"/>
<path d="M20.2292 43.3481C20.2292 43.5192 20.2292 43.6902 20.2292 43.8271C20.1607 44.4772 19.7844 44.922 19.237 44.9904C18.6211 45.093 18.0395 44.7851 17.8684 44.135C17.6973 43.485 17.6289 42.8007 17.5262 42.1164C17.3209 40.5425 17.1499 38.9687 16.9788 37.429C16.9446 37.1211 16.9104 36.8132 16.9446 36.5052C16.9788 35.8209 17.3894 35.3419 17.971 35.2735C18.5527 35.2051 19.1343 35.513 19.3054 36.1631C19.4422 36.6763 19.5107 37.1895 19.5449 37.7027C19.7844 39.6187 20.0239 41.5005 20.2292 43.3481Z" fill="#3558A2"/>
<path d="M10.002 37.8742C10.002 37.7374 10.002 37.6347 10.002 37.4979C10.0362 36.8136 10.481 36.3346 11.0284 36.2661C11.6442 36.1635 12.2601 36.5741 12.397 37.2583C12.568 38.1821 12.6707 39.1059 12.7733 40.0297C12.9444 41.3983 13.0812 42.8011 13.2523 44.1696C13.2523 44.2723 13.2865 44.3407 13.2865 44.4434C13.355 45.2645 12.9102 45.9488 12.2259 46.0514C11.5416 46.1541 10.9257 45.6409 10.7889 44.7855C10.652 43.7933 10.5494 42.8353 10.4467 41.8431C10.3099 40.5087 10.173 39.2086 10.002 37.8742Z" fill="#3558A2"/>
<path d="M27.0036 42.4596C27.0036 42.7333 27.0379 43.0412 27.0036 43.3492C26.9352 43.9308 26.5246 44.3414 26.0114 44.4098C25.4298 44.5125 24.8824 44.2045 24.6771 43.6229C24.5402 43.2807 24.506 42.9044 24.4718 42.528C24.3007 40.5436 24.0954 38.5934 23.9586 36.6089C23.9243 36.301 23.9928 35.9931 24.0612 35.6852C24.1981 35.2404 24.6086 35.0009 25.0534 34.9667C25.5324 34.9324 25.943 35.1035 26.1483 35.5141C26.3194 35.7878 26.3878 36.1642 26.422 36.4721C26.6273 38.4907 26.7984 40.4752 27.0036 42.4596Z" fill="#3558A2"/>
<path d="M32.99 12.043C33.3664 11.4955 33.6743 11.085 33.948 10.7086C34.1875 10.3665 34.3928 10.0243 34.6323 9.71639C35.0429 9.16896 35.5561 8.7926 36.3088 8.96367C36.9247 9.10053 37.301 9.68217 37.4037 10.5375C37.4721 11.0165 37.5747 11.4955 37.6432 11.9745C38.3275 11.9745 38.7038 11.6666 39.0802 11.3587C39.9698 10.606 40.8251 9.85324 41.6805 9.10053C42.5016 8.38203 43.1859 8.3136 43.7333 8.86103C44.2808 9.44267 44.1781 10.1954 43.357 10.9481C42.5016 11.735 41.6463 12.4877 40.7567 13.2062C40.3803 13.5142 39.9698 13.8221 39.525 14.0274C37.9169 14.8828 36.7536 14.609 35.385 13.1378C35.1455 13.4115 34.906 13.7195 34.6323 13.959C34.2217 14.3011 33.8112 14.6432 33.3664 14.8485C32.1689 15.3618 31.382 15.0538 30.4582 13.6852C30.1844 13.9247 29.945 14.1642 29.6712 14.4037C29.0212 14.9512 28.3369 15.4302 27.4473 15.4986C26.3182 15.6013 25.4287 15.1565 24.9497 14.0958C24.2996 12.6588 24.4022 11.1876 24.8812 9.7506C25.1207 8.99788 25.805 8.68996 26.4209 8.89524C27.1052 9.10053 27.4131 9.71639 27.242 10.5375C27.0709 11.3245 26.7972 12.0772 27.242 13.001C27.5842 12.7615 27.9263 12.5562 28.2 12.2825C28.8501 11.5982 29.4317 10.8797 30.0476 10.1954C30.2529 9.95589 30.4582 9.71639 30.6977 9.54531C31.4846 8.99788 32.4426 9.2716 32.7163 10.1954C32.9216 10.7428 32.9216 11.2902 32.99 12.043Z" fill="#3558A2"/>
<path d="M27.0024 18.6805C26.3523 18.6805 25.7023 18.7147 25.0522 18.6805C24.2995 18.6462 23.8547 18.2015 23.752 17.5856C23.6494 16.7987 24.1968 16.217 25.1206 16.217C26.3181 16.1828 27.5498 16.1828 28.7473 16.1144C30.5949 15.9775 32.4425 15.8065 34.2901 15.6354C35.8981 15.4985 37.5062 15.3617 39.1143 15.2248C39.6959 15.1906 40.2434 15.567 40.3802 16.1144C40.5171 16.6618 40.3118 17.2777 39.7301 17.5172C39.1827 17.7225 38.6011 17.8935 38.0194 17.9277C35.0086 18.2015 31.9635 18.4067 28.9526 18.6462C28.3025 18.6805 27.6525 18.6462 27.0024 18.6462C27.0024 18.6805 27.0024 18.6805 27.0024 18.6805Z" fill="#3558A2"/>
<path d="M69.2939 48.3102C69.2939 49.0971 68.9176 49.6446 68.3017 49.7814C67.6859 49.9183 67.07 49.5761 66.8989 48.8576C66.6936 47.9681 66.5226 47.0443 66.4541 46.1205C66.3857 45.4704 66.8989 44.9572 67.4806 44.8545C68.0622 44.7861 68.6439 45.094 68.8149 45.7783C69.0202 46.5995 69.1571 47.5233 69.2939 48.3102Z" fill="#3558A2"/>
<path d="M61.6302 49.1297C61.5618 49.4377 61.5276 49.6772 61.4592 49.8825C61.3223 50.4299 60.9802 50.7378 60.3985 50.772C59.8511 50.8405 59.3379 50.5325 59.201 49.9851C58.9957 49.0955 58.8247 48.1717 58.7562 47.2479C58.722 46.5637 59.1668 46.0847 59.7485 45.982C60.2959 45.8794 60.8433 46.1531 61.0486 46.7689C61.3565 47.5901 61.4934 48.4112 61.6302 49.1297Z" fill="#3558A2"/>
<path d="M52.3922 47.0103C53.0081 47.0103 53.4871 47.3866 53.6239 48.0709C53.7608 48.8236 53.8634 49.6105 53.9318 50.3633C54.0003 51.116 53.5555 51.6976 52.9396 51.8345C52.3238 51.9713 51.6737 51.5608 51.5368 50.808C51.3658 49.9527 51.2973 49.0973 51.2631 48.242C51.1947 47.4893 51.7421 47.0103 52.3922 47.0103Z" fill="#3558A2"/>
<path d="M51.606 34.3151C51.6744 34.0414 51.7086 33.7334 51.8112 33.4597C52.0165 32.9807 52.3929 32.7412 52.9061 32.7412C53.3851 32.7412 53.7272 32.9807 53.9325 33.3913C54.0352 33.5966 54.1036 33.8703 54.1378 34.1098C54.2405 34.8625 54.3431 35.6494 54.4115 36.4021C54.5142 37.2917 54.1378 37.9076 53.3851 38.0102C52.735 38.1129 52.1192 37.6339 51.9481 36.8469C51.8455 36.0258 51.7428 35.2046 51.606 34.3151Z" fill="#3558A2"/>
<path d="M61.4893 35.3764C61.4893 35.5133 61.4893 35.6159 61.4893 35.7528C61.4208 36.4029 60.9761 36.8819 60.3944 36.9503C59.8128 37.0187 59.2311 36.6081 59.0943 35.9581C58.9232 35.1369 58.7863 34.3158 58.6837 33.4946C58.6153 32.7419 59.0601 32.1603 59.7101 32.0234C60.3602 31.9208 60.9076 32.2971 61.1129 33.0841C61.284 33.8368 61.3866 34.5895 61.5235 35.3764C61.5235 35.3764 61.5235 35.3764 61.4893 35.3764Z" fill="#3558A2"/>
<path d="M68.3686 34.6586C68.3686 35.7193 67.958 36.2667 67.308 36.3694C66.6921 36.472 66.1105 36.0272 65.9394 35.2745C65.7683 34.556 65.6657 33.8033 65.6315 33.0848C65.5973 32.7769 65.6999 32.4689 65.8025 32.1952C65.9736 31.7504 66.3842 31.5451 66.8632 31.5793C67.4106 31.5793 67.8554 31.8873 67.958 32.4005C68.1633 33.1874 68.266 34.077 68.3686 34.6586Z" fill="#3558A2"/>
<path d="M63.7821 21.0747C63.8847 21.0747 64.1242 21.0747 64.3295 21.0747C65.0822 21.1089 65.5612 21.5195 65.5954 22.1696C65.6638 22.8539 65.1848 23.4013 64.4663 23.5039C63.3715 23.6408 62.2424 23.7434 61.1475 23.8803C60.0869 24.0171 59.0605 24.154 57.9998 24.2566C57.6919 24.2909 57.384 24.2566 57.076 24.154C56.597 23.9829 56.3233 23.4697 56.3918 22.9565C56.4602 22.3749 56.8365 21.9643 57.4866 21.8616C58.7868 21.6564 60.0527 21.4853 61.3528 21.3142C62.1398 21.2458 62.8925 21.1774 63.7821 21.0747Z" fill="#3558A2"/>
<path d="M61.5605 20.801C60.3288 20.801 59.405 20.1851 59.0287 19.1587C58.7892 18.5086 58.9602 17.8586 59.4734 17.5164C59.9867 17.1743 60.671 17.2769 61.0815 17.8928C61.4237 18.3718 61.8 18.406 62.2448 18.1665C62.3475 18.0981 62.4843 18.0638 62.587 18.0296C63.1686 17.8928 63.7502 18.1323 63.9897 18.6455C64.2635 19.1587 64.1266 19.7403 63.6818 20.1509C63.1002 20.6641 62.3475 20.801 61.5605 20.801Z" fill="#3558A2"/>
</svg>
