<svg width="90" height="77" viewBox="0 0 90 77" fill="none" xmlns="http://www.w3.org/2000/svg">
<path d="M51.7675 16.4417C53.0195 17.1506 53.0778 17.4359 52.3536 19.0837C53.6056 19.5961 54.8575 20.1055 56.1033 20.618C58.7821 21.7257 61.4517 22.8488 64.1336 23.9411C65.8427 24.6377 67.5703 25.2913 69.2917 25.9663L79.1478 29.8296L82.5231 31.1521C82.7041 31.2227 82.8852 31.2932 83.0601 31.3792C83.9315 31.8026 84.134 32.2997 83.7996 33.3C83.4099 34.4477 82.9158 35.5615 82.4678 36.6754C81.5995 38.8509 80.7403 41.0326 79.8596 43.2051C78.6169 46.2736 77.3527 49.3421 76.113 52.4106C74.3977 56.6544 72.7008 60.9042 70.9855 65.1479C69.6446 68.4711 68.2761 71.7851 66.9413 75.1144C66.8156 75.4367 66.6232 75.7287 66.3768 75.9715C66.1304 76.2142 65.8355 76.4021 65.5113 76.5229C65.176 76.6533 64.8068 76.6684 64.4619 76.5658C62.3477 75.8509 60.2458 75.1021 58.15 74.3411C55.9223 73.5341 53.713 72.675 51.4791 71.8864C46.9377 70.2723 42.3841 68.6951 37.8427 67.0872C34.0787 65.7596 30.3178 64.4197 26.5599 63.0675C22.7243 61.6867 18.8886 60.3243 15.0684 58.8851C11.4155 57.5546 7.85529 55.982 4.41148 54.1781C3.47118 53.7008 2.59742 53.1025 1.81247 52.3983C1.11392 51.7574 0.563168 50.9721 0.19844 50.097C0.0779702 49.7028 0.00280589 49.2961 -0.0255729 48.8849C-0.0654633 48.6394 -0.086936 48.394 -0.114552 48.1485C-0.129895 48.0411 -0.185129 47.9184 -0.154444 47.8232C0.0879667 47.0653 0.0849026 46.2552 0.425506 45.5096C1.83394 42.4135 3.20555 39.302 4.59558 36.1967C5.43328 34.328 6.28631 32.4685 7.11787 30.5998C8.1673 28.2493 9.19833 25.8958 10.2478 23.5422C11.0701 21.7011 11.9078 19.86 12.7302 18.0189C13.8041 15.6214 14.873 13.2219 15.9368 10.8203C16.6118 9.30442 17.2879 7.7896 17.965 6.27581C18.0582 6.10588 18.1313 5.92567 18.1829 5.73883C18.2428 5.46555 18.36 5.20806 18.5266 4.9833C18.6931 4.75853 18.9054 4.57157 19.1495 4.43472C20.5918 3.4568 22.2292 2.80352 23.9486 2.51998C25.4863 2.31131 27.0514 2.46257 28.5206 2.96184C29.1222 3.16155 29.7132 3.39199 30.2911 3.65225C30.4641 3.70996 30.6176 3.81451 30.7346 3.95428C30.8516 4.09405 30.9276 4.26356 30.954 4.44392C30.9785 4.6079 31.0303 4.76659 31.1074 4.9134C31.2111 5.12609 31.2623 5.36062 31.2564 5.59719C31.2505 5.83377 31.1878 6.06547 31.0736 6.27275C30.5274 7.50014 29.9863 8.74084 29.4504 9.99483C29.4205 10.0947 29.402 10.1976 29.3952 10.3017C30.6594 10.8786 31.985 11.3204 33.2768 11.8359C34.5686 12.3514 35.8421 12.8424 37.1247 13.3456L41.0616 14.8799C42.2122 13.9593 43.366 13.0388 44.4983 12.1182C46.3394 10.584 48.1989 9.10497 50.1597 7.74562C50.4048 7.57478 50.5929 7.33425 50.6997 7.05521C50.924 6.51989 51.2259 6.0205 51.5957 5.57313C52.3935 4.65258 53.2496 3.76885 54.1027 2.89126C54.5108 2.47702 54.968 2.11187 55.4068 1.72831C55.6056 1.52895 55.868 1.40564 56.1483 1.37984C56.4287 1.35405 56.7092 1.42741 56.941 1.58715C57.3369 1.83263 57.7051 2.12721 58.1163 2.42485C58.6287 2.13948 58.9601 1.6608 59.3437 1.23735C59.6156 0.925609 59.9248 0.648398 60.2642 0.411922C60.4672 0.290631 60.7045 0.239906 60.9393 0.267659C61.1741 0.295412 61.3931 0.400083 61.5622 0.565347C61.7195 0.741075 61.8228 0.958391 61.8598 1.1913C61.8968 1.42421 61.8659 1.66284 61.7709 1.87866C61.684 2.05164 61.5735 2.21171 61.4425 2.35428C60.927 2.94036 60.4053 3.51417 59.8592 4.12173C60.0647 4.40096 60.2918 4.67099 60.4729 4.9717C60.6437 5.21247 60.7355 5.50038 60.7355 5.79559C60.7355 6.09081 60.6437 6.37872 60.4729 6.61949C60.1174 7.07805 59.7287 7.50983 59.3099 7.91132C59.043 8.19055 58.7423 8.44217 58.4722 8.72447C57.8401 9.39034 57.2295 10.0715 56.5943 10.7343C56.2077 11.1332 55.8026 11.5137 55.2104 11.5997C55.0768 11.6343 54.9608 11.7174 54.8851 11.8329C53.8398 13.3651 52.8006 14.9014 51.7675 16.4417ZM64.8117 74.2491C70.3473 60.5677 75.8808 46.8945 81.4123 33.2295C81.1238 33.0883 80.8814 32.9502 80.6267 32.852C79.0925 32.2598 77.5184 31.7167 75.9903 31.0846C70.9242 28.9827 65.7384 27.1784 60.7091 24.9814C58.2052 23.889 55.6615 22.8978 53.13 21.8791C52.5163 21.6336 51.9363 21.2347 51.2152 21.4066C51.1569 21.4066 51.0772 21.3667 50.9912 21.3391C50.7028 21.7778 50.4266 22.189 50.1535 22.6033C49.681 23.3213 49.233 24.0455 48.7298 24.7512C48.6113 24.9422 48.4404 25.0949 48.2374 25.1912C48.0344 25.2876 47.808 25.3234 47.5852 25.2943C47.3653 25.2673 47.159 25.1733 46.9944 25.0251C46.8297 24.8769 46.7146 24.6817 46.6646 24.4658C46.6309 24.3646 46.6155 24.2572 46.5848 24.1222L45.919 24.3431C45.758 24.6492 45.559 24.9337 45.3268 25.19C45.0835 25.4076 44.7771 25.542 44.4523 25.5736C44.1751 25.5473 43.9151 25.4276 43.715 25.2342C43.5148 25.0407 43.3863 24.7849 43.3507 24.5088C43.3207 24.2589 43.37 24.006 43.4917 23.7857C43.6134 23.5655 43.8013 23.389 44.0288 23.2814C44.6425 23.0421 44.8788 22.5081 45.2286 22.054C45.5784 21.5999 45.7963 21.1795 46.0816 20.7407C46.3118 20.3878 46.548 20.038 46.7905 19.679L41.4175 17.5801C41.1107 17.8624 40.8591 18.1202 40.5829 18.3503C40.1042 18.7462 39.604 19.0806 39.2665 19.6637C38.9013 20.2988 37.9747 20.2988 37.4469 19.8877C36.87 19.4335 37.0234 18.0987 37.8212 17.7704C37.9962 17.703 38.1543 17.5983 38.2846 17.4635C38.5117 17.2027 38.6988 16.9112 38.9535 16.5614C35.4401 15.1468 31.9512 13.7998 28.4102 12.4128C28.18 12.9191 27.9714 13.3947 27.7505 13.8642C26.2899 17.0247 24.8272 20.1853 23.3625 23.3458C22.2087 25.8283 21.0857 28.326 19.8736 30.7777C18.1092 34.3495 16.4154 37.9519 14.7584 41.5727C14.1018 43.0026 13.4789 44.451 12.8345 45.8686C12.4141 46.7891 12.0183 47.7496 11.5365 48.6487C10.9535 49.7472 9.96853 49.9313 8.98661 49.201C8.94059 49.1672 8.90375 49.1273 8.85772 49.0936C8.46496 48.7867 8.08753 48.4584 7.67329 48.173C6.75274 47.5593 5.73094 47.4366 4.65083 47.4826C3.99013 47.5335 3.34382 47.7019 2.74223 47.9797C2.61172 48.0268 2.49934 48.1138 2.42111 48.2284C2.34289 48.3429 2.30279 48.4793 2.30649 48.618C2.25126 49.29 2.58879 49.7871 2.99383 50.2565C3.80699 51.2016 4.87791 51.7908 5.96415 52.3554C10.0115 54.4634 14.2491 56.1174 18.545 57.6393C21.6319 58.7348 24.682 59.9162 27.775 61.03C31.0614 62.2206 34.36 63.3805 37.6586 64.5465C41.1107 65.7739 44.5719 66.9584 48.0209 68.1919C51.7031 69.5052 55.3853 70.8584 59.0675 72.1809C60.9485 72.902 62.8694 73.5771 64.8117 74.2491ZM28.8735 5.56392C27.7768 5.0943 26.6087 4.81317 25.4184 4.73236C24.0314 4.65872 22.7549 5.10058 21.5183 5.67439C20.8371 5.98124 20.2909 6.40776 20.1222 7.20864C20.0783 7.34015 20.0208 7.46666 19.9503 7.58606C18.9398 9.83629 17.9313 12.0865 16.9248 14.3367C15.5931 17.3163 14.2736 20.3019 12.9358 23.2783C12.1011 25.1501 11.242 27.0096 10.4104 28.8783C9.13697 31.732 7.87888 34.5949 6.60546 37.4486C5.54683 39.8237 4.4575 42.1895 3.405 44.5614C3.2976 44.8038 3.22396 45.0585 3.09815 45.396C5.59898 44.9143 7.82671 45.3255 9.77827 46.9303C10.1342 46.1816 10.4595 45.5126 10.7663 44.8376C11.9937 42.1189 13.1996 39.391 14.4485 36.6877C15.7557 33.88 17.1181 31.0969 18.456 28.3045C19.1218 26.9084 19.7969 25.5122 20.4474 24.1068C21.7147 21.3759 22.9605 18.6357 24.2247 15.9017C24.7464 14.7725 25.3171 13.6647 25.8234 12.5263C26.8545 10.2219 27.8394 7.93587 28.8735 5.56392ZM48.1866 17.6814C49.8344 15.2266 51.4208 12.8761 53.0134 10.5042L52.4396 9.96108L51.8259 9.3842C48.9139 11.348 46.3025 13.6126 43.5194 15.8618L48.1866 17.6814ZM56.3396 3.99285C54.8054 5.33992 53.4123 6.8619 53.1606 7.52162L55.0017 9.14486L58.1101 5.83395L56.3396 3.99285Z" fill="#2F4077"/>
<path d="M85.4933 27.1786C85.1864 27.0988 84.9011 27.0467 84.6218 26.9393C82.9434 26.3256 81.271 25.6812 79.5956 25.046C77.4876 24.2421 75.3795 23.432 73.2653 22.6372C70.3533 21.5418 67.4352 20.4647 64.5263 19.3632C62.722 18.6819 60.9269 17.9731 59.1287 17.2735C59.0244 17.2336 58.917 17.206 58.8219 17.1569C58.5163 17.0479 58.2641 16.8257 58.1174 16.5363C57.9707 16.2468 57.9406 15.9122 58.0333 15.6012C58.1603 15.0368 58.367 14.4934 58.647 13.9872C59.1625 13.0666 59.632 12.1461 60.123 11.204C60.5607 10.3714 61.0016 9.5409 61.4455 8.71241C61.5319 8.54031 61.6346 8.37693 61.7523 8.22452C61.9186 7.96633 62.1726 7.77693 62.4675 7.69122C62.7624 7.60551 63.0784 7.62927 63.3571 7.75811C64.6275 8.20918 65.8886 8.67866 67.1529 9.15734C69.6782 10.1055 72.2036 11.0629 74.729 12.008L84.5482 15.6902L88.884 17.3011C89.0139 17.349 89.14 17.4064 89.2614 17.473C89.5647 17.6134 89.8007 17.8674 89.9184 18.1803C90.0361 18.4932 90.026 18.8398 89.8904 19.1453C89.6142 19.8664 89.2767 20.5691 88.9699 21.2748C88.2794 22.8398 87.5921 24.4078 86.8864 25.9635C86.742 26.2616 86.5617 26.5409 86.3494 26.795C86.251 26.9264 86.1207 27.0305 85.971 27.0976C85.8212 27.1648 85.6568 27.1926 85.4933 27.1786ZM84.3426 18.0376C84.2198 18.2339 84.1094 18.3874 84.0357 18.5561C83.6951 19.222 83.376 19.8971 83.0201 20.5537C82.8635 20.8459 82.665 21.1137 82.4309 21.3485C82.2699 21.5036 82.0617 21.6006 81.8393 21.6239C81.617 21.6473 81.3932 21.5957 81.2035 21.4773C80.9854 21.3559 80.8161 21.1627 80.7243 20.9306C80.6326 20.6984 80.6241 20.4416 80.7003 20.2039C80.8242 19.8383 80.9729 19.4815 81.1452 19.1361C81.452 18.4917 81.7804 17.8596 82.1148 17.1876L80.8874 16.7856C80.734 17.0925 80.6144 17.3287 80.4824 17.5681C80.261 18.0134 80.0162 18.4466 79.7491 18.8661C79.5919 19.0929 79.3566 19.2537 79.0882 19.3177C78.8197 19.3817 78.5372 19.3443 78.2946 19.2128C78.0735 19.0673 77.9053 18.8543 77.8152 18.6054C77.725 18.3566 77.7178 18.0853 77.7944 17.832C77.8577 17.6783 77.9304 17.5286 78.0123 17.384L78.7088 15.9479L77.3833 15.4447C76.9751 16.3376 76.6008 17.1722 76.2111 17.9946C76.0832 18.2684 75.9312 18.5302 75.7569 18.7771C75.4501 19.222 74.9745 19.1545 74.5295 19.0839C74.1705 19.0225 73.8821 18.55 73.8545 18.1327C73.8313 17.7443 73.9117 17.3567 74.0877 17.0096C74.4589 16.2394 74.8118 15.457 75.1893 14.6407L74.0938 14.2357C74.0017 14.4014 73.9312 14.518 73.8759 14.6407C73.6366 15.1409 73.4372 15.6595 73.161 16.1382C73.0887 16.2895 72.9823 16.4221 72.8503 16.5256C72.7183 16.6291 72.5642 16.7008 72.3999 16.7349C72.2357 16.7691 72.0658 16.7648 71.9035 16.7225C71.7412 16.6802 71.5908 16.601 71.4641 16.491C71.2454 16.3395 71.0907 16.1122 71.0301 15.8531C70.9694 15.594 71.0071 15.3216 71.1358 15.0887C71.3628 14.5579 71.6267 14.0424 71.8876 13.4962C71.5347 13.2323 71.2033 13.0114 70.7553 13.0973L70.341 13.9442C70.0188 14.5855 69.7273 15.2391 69.3714 15.8712C68.9909 16.5616 68.4509 16.7519 67.8648 16.445C67.7268 16.3819 67.6034 16.2911 67.5022 16.1781C67.401 16.0651 67.3243 15.9324 67.2767 15.7884C67.2292 15.6444 67.2119 15.4921 67.226 15.3411C67.24 15.19 67.2852 15.0435 67.3585 14.9108C67.6653 14.1774 68.0335 13.4563 68.3649 12.7291C68.4417 12.5603 68.4938 12.3823 68.5736 12.1645L63.2651 10.1853C62.3261 11.9619 61.424 13.665 60.5035 15.4201L85.0115 24.6256C85.7296 22.8029 86.6286 21.0692 87.3405 19.1944L84.3426 18.0376Z" fill="#2F4077"/>
<path d="M64.8118 74.2491C62.8695 73.5679 60.9486 72.902 59.037 72.2147C55.3548 70.8891 51.6726 69.5359 47.9904 68.2256C44.5414 66.9982 41.0801 65.7984 37.6281 64.5802C34.3294 63.4142 31.0308 62.2543 27.7445 61.0638C24.676 59.9499 21.6075 58.7685 18.5144 57.6731C14.2185 56.1388 9.98093 54.4972 5.93358 52.3891C4.84734 51.8214 3.78566 51.2354 2.9633 50.2903C2.55826 49.8208 2.22073 49.3237 2.27596 48.6517C2.27226 48.513 2.31236 48.3767 2.39058 48.2621C2.46881 48.1475 2.58115 48.0605 2.71167 48.0134C3.31325 47.7356 3.9596 47.5672 4.6203 47.5164C5.70041 47.4703 6.72528 47.5992 7.64276 48.2068C8.057 48.4799 8.43442 48.8205 8.82719 49.1273C8.87322 49.1611 8.91005 49.201 8.95608 49.2347C9.938 49.965 10.923 49.7809 11.506 48.6824C11.9877 47.7833 12.3836 46.8413 12.8039 45.9023C13.4483 44.4693 14.0712 43.021 14.7279 41.6064C16.3849 37.9856 18.0787 34.3832 19.8431 30.8115C21.0705 28.3567 22.1782 25.862 23.332 23.3796C24.8008 20.2211 26.2634 17.0605 27.7199 13.8979C27.9408 13.4285 28.1495 12.9528 28.3796 12.4465C31.9207 13.8396 35.4095 15.1806 38.923 16.5951C38.6683 16.9449 38.4811 17.2365 38.2541 17.4973C38.1238 17.632 37.9656 17.7368 37.7907 17.8041C36.9929 18.1325 36.8395 19.4672 37.4164 19.9214C37.9441 20.3326 38.8708 20.3326 39.236 19.6974C39.5735 19.1144 40.0737 18.7768 40.5524 18.3841C40.8285 18.1539 41.0863 17.8962 41.387 17.6139L46.7599 19.7127C46.5175 20.0717 46.2812 20.4215 46.0511 20.7744C45.7657 21.2132 45.5172 21.695 45.1981 22.0877C44.8789 22.4805 44.5843 23.0697 43.9983 23.3151C43.7708 23.4228 43.5829 23.5992 43.4612 23.8195C43.3395 24.0397 43.2902 24.2927 43.3201 24.5425C43.3558 24.8186 43.4842 25.0744 43.6844 25.2679C43.8846 25.4614 44.1446 25.5811 44.4217 25.6073C44.7466 25.5757 45.0529 25.4414 45.2962 25.2237C45.5285 24.9675 45.7275 24.6829 45.8885 24.3768L46.5543 24.1559C46.585 24.2909 46.6003 24.3983 46.6341 24.4996C46.684 24.7154 46.7992 24.9107 46.9638 25.0589C47.1285 25.2071 47.3348 25.3011 47.5546 25.3281C47.7774 25.3571 48.0039 25.3213 48.2069 25.225C48.4099 25.1287 48.5808 24.9759 48.6992 24.7849C49.1901 24.0792 49.6504 23.355 50.123 22.637C50.3961 22.2228 50.6722 21.8116 50.9607 21.3728C51.0466 21.4004 51.1264 21.4556 51.1847 21.4403C51.9058 21.2685 52.4888 21.6674 53.0994 21.9128C55.6309 22.9316 58.1747 23.9227 60.6786 25.0151C65.7079 27.2121 70.8936 29.0041 75.9597 31.1183C77.494 31.7504 79.0497 32.2936 80.5962 32.8858C80.8509 32.984 81.0933 33.122 81.3817 33.2632C75.8666 46.9139 70.3433 60.5759 64.8118 74.2491ZM57.0179 49.4464C55.1123 54.2824 53.2467 59.0232 51.3596 63.807C51.0159 63.6873 50.7459 63.5922 50.439 63.5001L43.1544 60.76C41.1139 59.9928 39.0703 59.2257 37.0174 58.4617C34.3294 57.4491 31.6506 56.4242 28.9626 55.4147C26.0691 54.3315 23.1693 53.2667 20.2757 52.1743C20.0619 52.0772 19.8566 51.9622 19.662 51.8307C19.6664 51.7274 19.6798 51.6247 19.7019 51.5238C20.4261 49.6152 21.1564 47.7066 21.8775 45.7949C22.08 45.2579 22.35 44.7424 22.3685 44.141C22.3899 43.4813 22.0862 43.245 21.5369 43.0548C21.3078 42.9932 21.0646 43.0113 20.8472 43.1061C20.6298 43.2008 20.451 43.3667 20.3402 43.5764C20.1544 43.9167 19.9924 44.2694 19.8553 44.632C19.3705 45.8921 18.8919 47.1573 18.4193 48.4277C18.0327 49.4618 17.6307 50.4897 17.2778 51.5361C16.925 52.5824 17.3269 53.4355 18.2996 53.8098C21.1636 54.9145 24.0275 56.0069 26.8914 57.087C29.3462 58.0075 31.801 58.9281 34.2558 59.8486C37.0461 60.9001 39.8343 61.9557 42.6205 63.0153C44.4002 63.6863 46.182 64.3552 47.9658 65.0221C48.9743 65.3965 49.9849 65.7647 50.9975 66.1268C51.1715 66.2101 51.3631 66.2501 51.556 66.2434C52.4121 66.0899 53.0902 65.6972 53.44 64.8288C54.2041 62.8742 54.9957 60.9318 55.7629 58.9772C56.9616 55.9087 58.1553 52.8484 59.3438 49.7962C59.8071 48.5965 59.3009 47.8263 58.4724 47.547C58.368 47.5133 58.2729 47.4488 58.1655 47.409C57.2143 47.0407 56.263 46.6664 55.3057 46.3074C54.8446 46.1264 54.3733 45.9727 53.8942 45.8471C53.6507 45.802 53.3991 45.8375 53.1776 45.9482C52.9561 46.059 52.7768 46.2389 52.6668 46.4608C52.5941 46.6855 52.5843 46.9258 52.6384 47.1556C52.6925 47.3855 52.8084 47.5962 52.9736 47.7649C53.1591 47.8849 53.3591 47.9808 53.5689 48.0503C54.7349 48.5075 55.8426 48.9647 57.0179 49.4464ZM71.3048 38.6576C71.3444 38.8216 71.3926 38.9834 71.449 39.1424C71.7374 39.7807 72.1149 39.9771 72.7808 39.8513C73.2472 39.7653 73.5632 39.3388 73.5724 38.7374C73.6063 38.1809 73.5939 37.6226 73.5356 37.0681C73.4545 36.2442 73.2225 35.4423 72.8513 34.7023C72.6782 34.3708 72.3899 34.1139 72.0407 33.98C71.6915 33.8461 71.3054 33.8443 70.955 33.9751C70.3263 34.1908 69.7114 34.4449 69.1139 34.7361C68.6439 34.9744 68.1953 35.2526 67.7729 35.5676C67.5458 35.704 67.3615 35.9014 67.2411 36.1374C67.1206 36.3734 67.0689 36.6385 67.0918 36.9024C67.1224 37.0662 67.1899 37.2208 67.2892 37.3546C67.3885 37.4884 67.5168 37.5979 67.6647 37.6748C67.8125 37.7516 67.9758 37.7939 68.1424 37.7983C68.3089 37.8027 68.4743 37.7692 68.626 37.7002L69.1292 37.5069C69.1691 37.5683 69.1998 37.5959 69.1937 37.6112C65.7938 46.4526 62.3929 55.294 58.9909 64.1353C58.9418 64.2642 58.8743 64.3869 58.813 64.5127C58.8006 64.5379 58.7815 64.5592 58.7577 64.5741C58.7362 64.5741 58.7055 64.5741 58.6411 64.5741C58.4478 64.3987 58.2428 64.2367 58.0274 64.0893C57.9188 64.0131 57.796 63.9594 57.6663 63.9314C57.5366 63.9033 57.4026 63.9016 57.2722 63.9262C57.1418 63.9508 57.0176 64.0012 56.907 64.0746C56.7964 64.1479 56.7016 64.2426 56.6282 64.3532C56.2753 64.795 56.2692 65.1939 56.5914 65.734C56.9596 66.3477 57.3217 66.9614 57.6899 67.5751C57.7991 67.7671 57.9179 67.9535 58.0458 68.1336C58.2358 68.4119 58.5159 68.6163 58.8389 68.7124C59.1619 68.8086 59.5081 68.7905 59.8194 68.6613C60.9884 68.1471 62.0344 67.3897 62.8879 66.4398C63.0723 66.2479 63.1863 65.9992 63.2114 65.7343C63.2365 65.4693 63.1711 65.2037 63.026 64.9806C62.8808 64.7575 62.6644 64.5902 62.412 64.5058C62.1596 64.4214 61.8861 64.4249 61.636 64.5158C61.5237 64.5255 61.4107 64.5255 61.2984 64.5158C64.637 55.9025 67.9448 47.3322 71.3048 38.6576ZM31.1382 23.2875C34.2681 24.3247 44.0566 28.1603 44.5506 28.5316C43.7835 30.3727 43.0624 32.2138 42.2431 34.0334C41.4238 35.853 40.761 37.7616 39.8282 39.5567C39.2943 39.3695 38.834 39.1823 38.3614 39.0504C37.6066 38.8356 36.8579 39.6273 36.9776 40.1949C37.0186 40.442 37.123 40.6742 37.2805 40.8689C37.4381 41.0636 37.6435 41.2141 37.8766 41.3057C40.2363 42.2477 42.5868 43.2082 44.9342 44.1563C45.6 44.4233 46.2659 44.6903 46.9471 44.9112C47.0993 44.9547 47.2592 44.9642 47.4155 44.9388C47.5718 44.9135 47.7205 44.8541 47.8512 44.7647C47.9819 44.6753 48.0912 44.5583 48.1715 44.4218C48.2518 44.2854 48.301 44.1329 48.3156 43.9753C48.3597 43.7117 48.3077 43.441 48.1692 43.2124C48.0307 42.9838 47.8148 42.8125 47.5608 42.7295C46.2597 42.1987 44.9403 41.7016 43.6485 41.1492C43.1237 40.9252 42.5285 40.8424 42.0805 40.3944C42.1077 40.2579 42.1446 40.1236 42.1909 39.9924C42.5837 39.0719 42.9918 38.1728 43.3784 37.2553C44.3767 34.8905 45.3688 32.5227 46.3548 30.1517C46.5881 29.5933 46.8427 29.041 47.0453 28.4671C47.3061 27.7307 47.0882 27.1876 46.4101 26.7764C46.1979 26.6447 45.9752 26.5308 45.7442 26.4358C44.7746 26.0461 43.7988 25.6564 42.823 25.282C40.6342 24.4413 38.4453 23.6036 36.2565 22.7689C34.6056 22.1552 32.964 21.4925 31.3039 20.891C30.279 20.5197 29.8955 20.8297 29.4198 21.5814C28.9442 22.3332 28.5545 23.0635 28.1372 23.8122C27.9547 24.122 27.7938 24.4439 27.6555 24.7757C27.3241 25.6257 27.8825 26.353 28.7877 26.31C29.2725 26.2824 29.5242 25.9786 29.7451 25.6104C30.2054 24.8555 30.6564 24.0945 31.1382 23.2875ZM58.77 41.2137C57.2787 40.6 55.8334 39.9709 54.3759 39.3726C52.9184 38.7742 51.3749 38.3047 49.9634 37.5775C49.9782 37.5061 49.9998 37.4362 50.0279 37.3688C50.3899 36.8042 50.4267 36.3286 50.1168 35.9113C49.9748 35.7169 49.774 35.5734 49.5441 35.5021C49.3142 35.4308 49.0674 35.4355 48.8404 35.5155C47.9543 35.7254 47.1042 36.0656 46.318 36.525C46.1056 36.6441 45.9206 36.8065 45.775 37.0017C45.6295 37.197 45.5266 37.4206 45.473 37.6582C45.4195 37.8957 45.4165 38.1419 45.4643 38.3807C45.5121 38.6195 45.6095 38.8456 45.7504 39.0442C46.1339 39.6211 46.5359 40.1888 46.9778 40.7227C47.2066 41.0023 47.4894 41.233 47.8093 41.4008C48.6716 41.8396 49.451 41.3548 49.4878 40.3974C49.4878 40.2686 49.4878 40.1397 49.5154 39.9801C52.2955 41.0418 55.0019 42.1281 57.693 43.2788C57.544 43.5015 57.4087 43.7331 57.2879 43.9722C57.2232 44.117 57.1945 44.2753 57.2042 44.4335C57.214 44.5918 57.2619 44.7453 57.3439 44.881C57.4259 45.0167 57.5396 45.1305 57.6752 45.2127C57.8108 45.2949 57.9643 45.3431 58.1226 45.3531C58.3978 45.3863 58.6769 45.3613 58.9418 45.2794C59.6107 45.0186 60.2674 44.724 60.9118 44.4049C61.5562 44.0858 61.8323 43.5795 61.6666 42.9044C61.4767 42.1295 61.2421 41.3662 60.964 40.6184C60.7799 40.1151 60.3319 39.9249 59.7366 39.9832C59.5163 40.0094 59.3107 40.107 59.1512 40.261C58.9916 40.415 58.8868 40.6171 58.8529 40.8362C58.816 40.9467 58.8007 41.051 58.77 41.2137ZM26.2071 34.1561C26.2743 33.9826 26.3276 33.8041 26.3667 33.6222C26.3844 33.4439 26.3619 33.2639 26.3009 33.0954C26.2399 32.9269 26.142 32.7742 26.0142 32.6486C25.8865 32.5229 25.7322 32.4274 25.5628 32.3692C25.3933 32.3109 25.213 32.2914 25.035 32.312C24.8568 32.3448 24.69 32.4222 24.5499 32.537C24.4098 32.6519 24.3012 32.8004 24.2341 32.9686C24.0316 33.3614 23.8812 33.7756 23.7125 34.196C23.4056 34.9079 23.0988 35.6137 22.8287 36.344C22.74 36.6054 22.7025 36.8815 22.7183 37.1571C22.7218 37.3946 22.8056 37.6239 22.956 37.8078C23.1065 37.9916 23.3146 38.1192 23.5467 38.1697C23.7775 38.2207 24.0187 38.1946 24.2332 38.0954C24.4476 37.9961 24.6237 37.8293 24.7343 37.6205C24.9552 37.2154 25.127 36.7828 25.348 36.3286C25.7131 36.4759 26.0445 36.6017 26.3728 36.7398C27.5388 37.2369 28.711 37.7248 29.8709 38.2372C30.322 38.4367 30.6656 38.2833 31.0185 38.0255C31.1885 37.9019 31.3162 37.729 31.3843 37.5302C31.4523 37.3314 31.4575 37.1165 31.399 36.9147C31.3463 36.7272 31.2486 36.5554 31.1143 36.4142C30.9801 36.273 30.8134 36.1668 30.6288 36.1046L28.128 35.0092L26.2071 34.1561ZM33.5715 43.5273C33.5837 43.3824 33.5668 43.2365 33.522 43.0982C33.4771 42.9598 33.4052 42.8318 33.3104 42.7216C33.2156 42.6113 33.0997 42.5211 32.9697 42.456C32.8396 42.391 32.6979 42.3525 32.5528 42.3429C32.1618 42.3251 31.7777 42.4506 31.4727 42.6957C29.2787 44.23 27.0755 45.7642 24.8815 47.3261C24.6537 47.487 24.4545 47.6851 24.2924 47.9122C24.2096 48.039 24.1529 48.181 24.1258 48.33C24.0987 48.479 24.1017 48.6319 24.1346 48.7797C24.1674 48.9276 24.2296 49.0673 24.3173 49.1908C24.405 49.3142 24.5165 49.4189 24.6453 49.4986C25.1454 49.8054 25.5842 49.6674 26.023 49.3421C27.2044 48.4707 28.3858 47.5992 29.5856 46.7523C30.6718 45.9882 31.7795 45.2549 32.8873 44.5184C33.2387 44.2944 33.487 43.9402 33.5777 43.5334L33.5715 43.5273ZM51.2491 50.8702C50.7091 50.8242 50.2979 51.1188 49.8806 51.3888C47.9311 52.6551 45.9877 53.9254 44.0504 55.1999C43.8605 55.3111 43.6826 55.4417 43.5196 55.5896C43.3255 55.7506 43.1945 55.9749 43.1496 56.223C43.1047 56.4711 43.1488 56.727 43.2741 56.9458C43.4228 57.1988 43.6617 57.3862 43.9429 57.4705C44.224 57.5547 44.5266 57.5295 44.7899 57.4C44.967 57.3212 45.1382 57.2299 45.3024 57.1269C47.2233 55.8688 49.1411 54.6066 51.0558 53.3404C51.3617 53.1492 51.6502 52.9315 51.918 52.6898C52.086 52.5639 52.2093 52.3876 52.27 52.1867C52.3307 51.9858 52.3257 51.7707 52.2556 51.5729C52.2036 51.3525 52.0722 51.159 51.8866 51.0293C51.7009 50.8997 51.4739 50.843 51.2491 50.8702ZM34.0901 53.6319C34.3502 53.5546 34.602 53.4518 34.8419 53.325C35.428 52.9568 35.9956 52.5579 36.5602 52.159C38.0515 51.1034 39.5428 50.0479 41.0249 48.977C41.2215 48.8244 41.3836 48.632 41.5005 48.4124C41.5714 48.2925 41.6175 48.1597 41.6363 48.0218C41.655 47.8838 41.646 47.7435 41.6097 47.6091C41.5734 47.4747 41.5105 47.3489 41.4248 47.2392C41.3392 47.1295 41.2324 47.038 41.1108 46.9702C40.9266 46.8704 40.7199 46.8194 40.5104 46.8221C40.301 46.8248 40.0957 46.881 39.9141 46.9855C39.596 47.1593 39.2886 47.3519 38.9935 47.5624C37.3161 48.7366 35.6397 49.9139 33.9643 51.0942C33.7069 51.2575 33.4646 51.4434 33.2401 51.6496C33.0643 51.8121 32.9441 52.0258 32.8967 52.2605C32.8494 52.4952 32.8772 52.7388 32.9762 52.9568C33.061 53.1767 33.2163 53.3623 33.4179 53.4845C33.6195 53.6067 33.8559 53.6585 34.0901 53.6319Z" fill="white"/>
<path d="M28.8735 5.56378C27.8394 7.93573 26.8544 10.2218 25.8449 12.4924C25.3386 13.6278 24.7679 14.7355 24.2462 15.8678C22.982 18.6018 21.7362 21.342 20.4689 24.0729C19.8183 25.4783 19.1433 26.8745 18.4774 28.2706C17.1396 31.063 15.7772 33.8461 14.47 36.6538C13.2088 39.3571 12.0152 42.085 10.7878 44.8037C10.4809 45.4788 10.1557 46.1477 9.79975 46.8964C7.84819 45.3039 5.62045 44.8927 3.11963 45.3622C3.24237 45.0246 3.31601 44.7699 3.42648 44.5275C4.49125 42.1556 5.5744 39.7898 6.6269 37.4148C7.90032 34.5611 9.15841 31.6982 10.4318 28.8444C11.2634 26.9757 12.1226 25.1162 12.9572 23.2444C14.2889 20.268 15.6084 17.2824 16.9462 14.3029C17.9486 12.0526 18.9571 9.8024 19.9718 7.55217C20.0422 7.43277 20.0998 7.30625 20.1436 7.17474C20.3063 6.38307 20.8586 5.94734 21.5398 5.64049C22.7672 5.06669 24.0529 4.62482 25.4399 4.69847C26.6248 4.79237 27.7855 5.08489 28.8735 5.56378Z" fill="white"/>
<path d="M56.3397 3.99292L58.1102 5.83402L54.9895 9.13879L53.1484 7.51555C53.4123 6.86196 54.7901 5.33999 56.3397 3.99292Z" fill="#979FBB"/>
<path d="M84.3425 18.0374L87.3527 19.182C86.6408 21.0568 85.7417 22.7905 85.0237 24.6132L60.5156 15.4077C61.4362 13.6525 62.3567 11.9495 63.2773 10.1729L68.5858 12.152C68.506 12.3699 68.4538 12.5479 68.3771 12.7166C68.0457 13.4439 67.6898 14.165 67.3707 14.8983C67.2974 15.0311 67.2522 15.1776 67.2382 15.3286C67.2241 15.4796 67.2414 15.6319 67.2889 15.776C67.3365 15.92 67.4132 16.0527 67.5144 16.1656C67.6156 16.2786 67.739 16.3695 67.8769 16.4326C68.4661 16.7394 69.0031 16.5492 69.3836 15.8588C69.7272 15.2267 70.031 14.5731 70.3532 13.9318L70.7675 13.0849C71.2155 12.9989 71.5469 13.2199 71.8997 13.4838C71.6389 14.0299 71.375 14.5455 71.148 15.0763C71.0192 15.3092 70.9816 15.5816 71.0422 15.8406C71.1029 16.0997 71.2576 16.3271 71.4763 16.4786C71.603 16.5886 71.7534 16.6678 71.9157 16.7101C72.078 16.7524 72.2479 16.7566 72.4121 16.7225C72.5764 16.6883 72.7305 16.6167 72.8625 16.5132C72.9945 16.4097 73.1008 16.2771 73.1732 16.1257C73.4493 15.647 73.6488 15.1285 73.8881 14.6283C73.9434 14.5056 74.0139 14.389 74.106 14.2233L75.2014 14.6283C74.824 15.4445 74.4711 16.227 74.0998 16.9972C73.9239 17.3442 73.8434 17.7318 73.8666 18.1202C73.8943 18.5376 74.1735 19.0101 74.5417 19.0715C74.9775 19.1482 75.4623 19.2157 75.7691 18.7646C75.9434 18.5178 76.0954 18.2559 76.2233 17.9822C76.613 17.1598 76.9873 16.3252 77.3954 15.4323L78.721 15.9355L78.0245 17.3715C77.9426 17.5162 77.8698 17.6658 77.8066 17.8195C77.7299 18.0729 77.7372 18.3442 77.8274 18.593C77.9175 18.8418 78.0856 19.0549 78.3067 19.2004C78.5493 19.3319 78.8319 19.3692 79.1003 19.3052C79.3687 19.2413 79.6041 19.0804 79.7612 18.8536C80.0284 18.4342 80.2732 18.0009 80.4946 17.5556C80.6265 17.3163 80.7462 17.0678 80.8996 16.7732L82.127 17.1752C81.7926 17.8472 81.4642 18.4793 81.1574 19.1236C80.9851 19.4691 80.8364 19.8259 80.7125 20.1915C80.6363 20.4292 80.6448 20.686 80.7365 20.9181C80.8283 21.1503 80.9976 21.3435 81.2157 21.4649C81.4054 21.5832 81.6292 21.6348 81.8515 21.6115C82.0739 21.5881 82.2821 21.4912 82.4431 21.336C82.6771 21.1012 82.8756 20.8335 83.0322 20.5413C83.3882 19.8846 83.7073 19.2096 84.0479 18.5437C84.1093 18.3933 84.2197 18.2399 84.3425 18.0374ZM65.5234 13.8458C65.5373 13.5138 65.4186 13.1899 65.1936 12.9453C64.9686 12.7007 64.6557 12.5556 64.3236 12.5417C63.9916 12.5279 63.6677 12.6465 63.4231 12.8715C63.1785 13.0965 63.0334 13.4095 63.0195 13.7415C63.0144 14.0622 63.1287 14.3733 63.3403 14.6143C63.5518 14.8554 63.8454 15.0091 64.1641 15.0456C64.7624 15.0886 65.505 14.435 65.5234 13.852V13.8458Z" fill="#CBCFDD"/>
<path d="M57.0179 49.4466C55.8427 48.9649 54.7196 48.5076 53.6027 48.0443C53.3929 47.9749 53.1929 47.879 53.0074 47.7589C52.8422 47.5902 52.7263 47.3795 52.6722 47.1497C52.6181 46.9198 52.6279 46.6795 52.7005 46.4548C52.8105 46.233 52.9899 46.053 53.2114 45.9423C53.4329 45.8315 53.6844 45.796 53.9279 45.8411C54.4071 45.9667 54.8784 46.1204 55.3394 46.3014C56.2968 46.6604 57.2481 47.0348 58.1993 47.403C58.3036 47.4429 58.3988 47.5073 58.5061 47.5411C59.3346 47.8203 59.8409 48.5905 59.3776 49.7903C58.1911 52.8588 56.9974 55.9191 55.7966 58.9712C55.0295 60.9259 54.2379 62.8682 53.4738 64.8228C53.1332 65.6912 52.4459 66.084 51.5897 66.2374C51.3969 66.2441 51.2053 66.2041 51.0313 66.1208C50.0085 65.7587 48.9979 65.3905 47.9996 65.0162C46.2179 64.3513 44.4361 63.6824 42.6543 63.0094C39.8661 61.9558 37.0778 60.9003 34.2896 59.8427C31.8348 58.9221 29.38 58.0016 26.9252 57.081C24.0613 55.9948 21.1973 54.9024 18.3334 53.8039C17.3607 53.4295 16.9649 52.5489 17.3116 51.5301C17.6584 50.5114 18.0665 49.4558 18.4531 48.4217C18.9256 47.1555 19.4043 45.8902 19.8891 44.626C20.0262 44.2634 20.1882 43.9107 20.374 43.5704C20.4848 43.3607 20.6636 43.1949 20.881 43.1001C21.0984 43.0053 21.3416 42.9872 21.5707 43.0488C22.1199 43.239 22.4237 43.4753 22.4022 44.135C22.3838 44.7487 22.1138 45.252 21.9113 45.789C21.1902 47.7006 20.4599 49.6092 19.7357 51.5178C19.7136 51.6188 19.7003 51.7215 19.6958 51.8247C19.8904 51.9562 20.0957 52.0712 20.3095 52.1684C23.2031 53.2546 26.1028 54.3163 28.9964 55.4087C31.6844 56.4182 34.3632 57.4431 37.0512 58.4557C39.0887 59.2259 41.1323 59.99 43.1882 60.754L50.4728 63.4942C50.7551 63.5985 51.0374 63.6936 51.3934 63.801C53.2467 59.0234 55.1124 54.2826 57.0179 49.4466Z" fill="#2F4077"/>
<path d="M71.3045 38.6577C67.9537 47.3323 64.6459 55.9026 61.3073 64.5435C61.4196 64.5532 61.5326 64.5532 61.6449 64.5435C61.895 64.4526 62.1685 64.4491 62.4209 64.5335C62.6733 64.6179 62.8897 64.7853 63.0349 65.0083C63.18 65.2314 63.2454 65.497 63.2203 65.762C63.1953 66.0269 63.0812 66.2756 62.8968 66.4675C62.0433 67.4175 60.9973 68.1748 59.8283 68.6891C59.517 68.8182 59.1708 68.8363 58.8478 68.7402C58.5248 68.644 58.2447 68.4396 58.0547 68.1613C57.9268 67.9812 57.808 67.7948 57.6988 67.6028C57.3306 66.9891 56.9685 66.3754 56.6002 65.7617C56.2934 65.2217 56.2934 64.8228 56.6371 64.3809C56.7105 64.2703 56.8053 64.1756 56.9159 64.1023C57.0265 64.0289 57.1507 63.9785 57.2811 63.9539C57.4115 63.9293 57.5455 63.9311 57.6752 63.9591C57.8049 63.9871 57.9277 64.0408 58.0363 64.117C58.2517 64.2644 58.4568 64.4264 58.65 64.6018C58.7145 64.6018 58.7451 64.6018 58.7666 64.6018C58.7904 64.5869 58.8095 64.5657 58.8218 64.5405C58.8832 64.4146 58.9507 64.2919 58.9998 64.163C62.4038 55.3237 65.8047 46.4824 69.2026 37.639C69.2026 37.639 69.178 37.596 69.1381 37.5346L68.6349 37.728C68.4832 37.7969 68.3178 37.8304 68.1513 37.826C67.9848 37.8216 67.8214 37.7794 67.6736 37.7025C67.5258 37.6256 67.3974 37.5162 67.2981 37.3824C67.1988 37.2485 67.1313 37.0939 67.1007 36.9302C67.0778 36.6662 67.1295 36.4011 67.25 36.1651C67.3704 35.9292 67.5547 35.7317 67.7819 35.5954C68.2042 35.2803 68.6528 35.0021 69.1228 34.7638C69.7203 34.4726 70.3352 34.2185 70.9639 34.0028C71.3143 33.8721 71.7004 33.8738 72.0496 34.0077C72.3988 34.1417 72.6871 34.3985 72.8602 34.73C73.2314 35.47 73.4634 36.272 73.5445 37.0959C73.6029 37.6503 73.6152 38.2086 73.5813 38.7651C73.5813 39.3788 73.256 39.7931 72.7896 39.879C72.1238 40.0048 71.7463 39.8084 71.4579 39.1702C71.3974 39.0023 71.3462 38.8312 71.3045 38.6577Z" fill="#2F4077"/>
<path d="M31.1379 23.2876C30.6562 24.0946 30.2174 24.8556 29.751 25.6135C29.53 25.9817 29.2784 26.2855 28.7936 26.3131C27.8731 26.3653 27.33 25.638 27.6614 24.7789C27.7997 24.447 27.9606 24.1251 28.1431 23.8154C28.5604 23.0666 28.9655 22.3057 29.4257 21.5846C29.886 20.8635 30.2849 20.5229 31.3098 20.8942C32.9699 21.5079 34.6115 22.143 36.2624 22.7721C38.4512 23.6108 40.64 24.4485 42.8289 25.2852C43.8047 25.6595 44.7805 26.0492 45.7501 26.4389C45.9811 26.5339 46.2038 26.6479 46.416 26.7795C47.0941 27.1907 47.312 27.7338 47.0511 28.4703C46.8486 29.0441 46.5939 29.5964 46.3607 30.1549C45.3686 32.5237 44.3765 34.8916 43.3843 37.2584C42.9977 38.179 42.5896 39.0811 42.1968 39.9955C42.1505 40.1267 42.1136 40.2611 42.0863 40.3975C42.5343 40.8363 43.1296 40.9284 43.6543 41.1524C44.9462 41.7047 46.2656 42.2018 47.5667 42.7326C47.8207 42.8156 48.0366 42.987 48.1751 43.2155C48.3136 43.4441 48.3656 43.7148 48.3215 43.9784C48.3069 44.1361 48.2576 44.2885 48.1774 44.425C48.0971 44.5614 47.9877 44.6785 47.8571 44.7678C47.7264 44.8572 47.5776 44.9166 47.4214 44.942C47.2651 44.9673 47.1052 44.9579 46.953 44.9143C46.2718 44.6934 45.6059 44.4264 44.94 44.1595C42.5865 43.2113 40.236 42.2509 37.8825 41.3088C37.6494 41.2172 37.444 41.0667 37.2864 40.8721C37.1289 40.6774 37.0245 40.4451 36.9834 40.1981C36.8638 39.6304 37.5971 38.8387 38.3673 39.0535C38.8399 39.1855 39.2879 39.3604 39.834 39.5598C40.7546 37.7525 41.4236 35.85 42.249 34.0365C43.0744 32.223 43.7832 30.3758 44.5565 28.5347C44.0563 28.1634 34.2678 24.3247 31.1379 23.2876Z" fill="#2F4077"/>
<path d="M58.77 41.2138C58.8007 41.0542 58.816 40.9468 58.8437 40.8455C58.8776 40.6264 58.9824 40.4243 59.142 40.2703C59.3015 40.1163 59.5071 40.0187 59.7274 39.9925C60.3411 39.9342 60.7737 40.1244 60.9548 40.6277C61.2329 41.3755 61.4675 42.1388 61.6575 42.9137C61.8201 43.5888 61.5439 44.0951 60.9026 44.4142C60.2613 44.7333 59.6016 45.0279 58.9326 45.2887C58.6678 45.3706 58.3886 45.3957 58.1133 45.3624C57.9551 45.3524 57.8016 45.3042 57.666 45.222C57.5304 45.1398 57.4168 45.026 57.3348 44.8903C57.2527 44.7546 57.2048 44.6011 57.195 44.4428C57.1853 44.2846 57.214 44.1263 57.2787 43.9815C57.3996 43.7424 57.5348 43.5108 57.6838 43.2881C54.9927 42.1251 52.2863 41.0511 49.5062 39.9894C49.5062 40.149 49.4817 40.2779 49.4786 40.4067C49.4418 41.3641 48.6624 41.8489 47.8001 41.4101C47.4802 41.2423 47.1974 41.0116 46.9686 40.732C46.5328 40.1981 46.1309 39.6304 45.7412 39.0535C45.6003 38.8549 45.5029 38.6288 45.4551 38.39C45.4074 38.1512 45.4103 37.905 45.4639 37.6675C45.5174 37.4299 45.6203 37.2063 45.7658 37.011C45.9114 36.8158 46.0964 36.6534 46.3089 36.5343C47.0951 36.0749 47.9451 35.7347 48.8312 35.5248C49.0582 35.4448 49.305 35.4401 49.5349 35.5114C49.7648 35.5827 49.9657 35.7262 50.1077 35.9206C50.4145 36.3379 50.3807 36.8135 50.0187 37.3781C49.9906 37.4455 49.9691 37.5154 49.9542 37.5868C51.3657 38.314 52.8939 38.7835 54.3667 39.3819C55.8396 39.9802 57.2787 40.5909 58.77 41.2138Z" fill="#2F4077"/>
<path d="M26.1977 34.1624L28.1032 34.994L30.604 36.0894C30.7887 36.1516 30.9553 36.2578 31.0895 36.399C31.2237 36.5402 31.3215 36.712 31.3742 36.8995C31.4327 37.1013 31.4276 37.3162 31.3595 37.515C31.2914 37.7138 31.1637 37.8867 30.9937 38.0103C30.6409 38.268 30.2972 38.4215 29.8461 38.222C28.6862 37.7096 27.5141 37.2217 26.348 36.7246C26.0197 36.5865 25.6883 36.4607 25.3232 36.3134C25.1176 36.7676 24.9457 37.2002 24.7095 37.6053C24.5989 37.8141 24.4228 37.9809 24.2083 38.0801C23.9938 38.1794 23.7527 38.2055 23.522 38.1545C23.2899 38.104 23.0817 37.9764 22.9313 37.7926C22.7809 37.6087 22.697 37.3794 22.6935 37.1419C22.6777 36.8663 22.7152 36.5902 22.8039 36.3288C23.077 35.6077 23.39 34.9019 23.6876 34.1808C23.8564 33.7727 23.9945 33.3585 24.2093 32.9534C24.2764 32.7852 24.385 32.6367 24.5251 32.5218C24.6651 32.407 24.832 32.3296 25.0102 32.2968C25.1882 32.2762 25.3685 32.2957 25.538 32.354C25.7074 32.4122 25.8617 32.5077 25.9894 32.6334C26.1172 32.759 26.2151 32.9117 26.2761 33.0802C26.3371 33.2487 26.3596 33.4287 26.3419 33.607C26.3089 33.7957 26.2607 33.9815 26.1977 34.1624Z" fill="#2F4077"/>
<path d="M33.5773 43.5335C33.4897 43.9415 33.2435 44.298 32.893 44.5246C31.7853 45.2611 30.6776 45.9944 29.5914 46.7585C28.3916 47.6054 27.2102 48.4768 26.0288 49.3483C25.59 49.6736 25.1512 49.8147 24.6511 49.5048C24.5223 49.4251 24.4108 49.3204 24.3231 49.197C24.2354 49.0735 24.1733 48.9338 24.1404 48.7859C24.1075 48.6381 24.1045 48.4852 24.1316 48.3362C24.1587 48.1872 24.2154 48.0452 24.2982 47.9184C24.4603 47.6913 24.6595 47.4932 24.8873 47.3323C27.0813 45.7827 29.2845 44.2485 31.4785 42.7019C31.7836 42.4568 32.1676 42.3313 32.5586 42.3491C32.7037 42.3587 32.8454 42.3972 32.9755 42.4622C33.1056 42.5272 33.2214 42.6175 33.3162 42.7278C33.411 42.838 33.483 42.966 33.5278 43.1044C33.5726 43.2427 33.5895 43.3886 33.5773 43.5335Z" fill="#2F4077"/>
<path d="M51.249 50.8703C51.4718 50.8463 51.6958 50.9044 51.8788 51.0338C52.0619 51.1632 52.1914 51.3549 52.2432 51.573C52.3132 51.7708 52.3183 51.9859 52.2576 52.1868C52.1969 52.3877 52.0736 52.564 51.9056 52.6899C51.6378 52.9315 51.3493 53.1492 51.0434 53.3404C49.1286 54.6067 47.2108 55.8689 45.2899 57.1269C45.1258 57.23 44.9546 57.3212 44.7775 57.4C44.5142 57.5296 44.2116 57.5547 43.9304 57.4705C43.6493 57.3863 43.4104 57.1989 43.2617 56.9459C43.1364 56.7271 43.0923 56.4711 43.1372 56.223C43.1821 55.9749 43.3131 55.7506 43.5072 55.5896C43.6702 55.4418 43.8481 55.3112 44.038 55.1999C45.9834 53.9255 47.9268 52.6551 49.8682 51.3889C50.2977 51.1188 50.7089 50.8243 51.249 50.8703Z" fill="#2F4077"/>
<path d="M34.0899 53.6321C33.8587 53.6574 33.6255 53.6064 33.426 53.4867C33.2265 53.367 33.0717 53.1853 32.9853 52.9693C32.8862 52.7513 32.8584 52.5077 32.9058 52.273C32.9532 52.0383 33.0733 51.8246 33.2492 51.6621C33.4736 51.4559 33.716 51.27 33.9733 51.1067C35.6487 49.9284 37.3252 48.7511 39.0026 47.5749C39.2977 47.3644 39.6051 47.1718 39.9232 46.998C40.1047 46.8935 40.31 46.8373 40.5195 46.8346C40.729 46.8319 40.9357 46.8829 41.1199 46.9826C41.2415 47.0505 41.3482 47.1419 41.4339 47.2517C41.5196 47.3614 41.5825 47.4872 41.6188 47.6216C41.6551 47.756 41.6641 47.8963 41.6454 48.0343C41.6266 48.1722 41.5805 48.305 41.5096 48.4248C41.3926 48.6445 41.2305 48.8369 41.034 48.9894C39.5519 50.0603 38.0606 51.1159 36.5693 52.1715C36.0047 52.5704 35.437 52.9693 34.8509 53.3375C34.6077 53.4607 34.3527 53.5593 34.0899 53.6321Z" fill="#2F4077"/>
<path d="M65.5237 13.852C65.5053 14.435 64.7627 15.0794 64.1674 15.0518C63.8472 15.0159 63.5519 14.8616 63.3396 14.6192C63.1272 14.3768 63.0132 14.0638 63.0198 13.7416C63.0421 13.4161 63.1906 13.1122 63.4336 12.8945C63.6766 12.6769 63.995 12.5627 64.321 12.5763C64.647 12.5899 64.9547 12.7302 65.1788 12.9673C65.4029 13.2045 65.5255 13.5197 65.5206 13.8459L65.5237 13.852Z" fill="#2F4077"/>
</svg>
