<svg width="84" height="15" viewBox="0 0 84 15" fill="none" xmlns="http://www.w3.org/2000/svg">
<path d="M6.17341 11.1815H7.98271V1.78397H6.17341V5.14182C5.52041 4.52904 4.77191 4.22264 3.90124 4.22264C2.02424 4.22264 0.5 5.67809 0.5 7.79793C0.5 9.87919 2.10569 11.3607 3.94224 11.3607C4.85392 11.3607 5.53417 11.054 6.17341 10.4664V11.1815ZM4.26916 5.7804C5.41171 5.7804 6.25486 6.58479 6.25486 7.77242C6.25486 9.01098 5.38419 9.80264 4.26916 9.80264C3.13954 9.80264 2.32336 8.94951 2.32336 7.78743C2.32336 6.67634 3.07157 5.78352 4.26888 5.78352L4.26916 5.7804ZM15.1545 11.1815H16.9638V4.40121H15.1545V5.14182C14.5015 4.52904 13.7531 4.22264 12.8824 4.22264C11.0051 4.22264 9.48111 5.67809 9.48111 7.79793C9.48111 9.87919 11.0868 11.3607 12.9234 11.3607C13.8362 11.3607 14.5158 11.054 15.1562 10.4664V11.1815H15.1545ZM13.2503 5.7804C14.3925 5.7804 15.2359 6.58479 15.2359 7.77242C15.2359 9.01098 14.3653 9.80264 13.2503 9.80264C12.1206 9.80264 11.3045 8.94951 11.3045 7.78743C11.3045 6.67634 12.0527 5.78352 13.25 5.78352L13.2503 5.7804ZM18.0817 4.40121V5.85693H19.0068V11.1815H20.8184V5.85693H21.8941V4.40121H20.8212V1.89847H19.0124V4.40121H18.0817ZM28.2272 11.1815H30.0368V4.40121H28.2272V5.14182C27.5745 4.52904 26.8263 4.22264 25.9557 4.22264C24.0781 4.22264 22.5544 5.67809 22.5544 7.79793C22.5544 9.87919 24.1598 11.3607 25.9964 11.3607C26.908 11.3607 27.5883 11.054 28.2275 10.4664L28.2272 11.1815ZM26.323 5.7804C27.4661 5.7804 28.3093 6.58479 28.3093 7.77242C28.3093 9.01098 27.4386 9.80264 26.323 9.80264C25.1939 9.80264 24.3774 8.94951 24.3774 7.78743C24.3774 6.67634 25.1257 5.78352 26.323 5.78352V5.7804ZM32.8553 9.40665C32.2837 9.40665 31.8077 9.82816 31.8077 10.3772C31.8077 10.9134 32.2837 11.3607 32.8553 11.3607C33.4403 11.3607 33.8889 10.9134 33.8889 10.3772C33.8889 9.84091 33.4265 9.40665 32.8553 9.40665ZM42.818 4.40121H41.0084V5.14182C40.3282 4.54179 39.621 4.22264 38.7228 4.22264C36.8859 4.22264 35.3468 5.60156 35.3468 7.69555C35.3468 9.72584 36.8691 11.1819 38.8154 11.1819C39.7535 11.1819 40.4051 10.8879 41.0062 10.3389C41.0062 10.9772 40.9921 11.4369 40.5568 11.8201C40.231 12.1007 39.6861 12.2651 39.0177 12.2651C38.2537 12.2651 37.7116 12.0865 37.3438 11.6784H35.344C35.8327 13.0956 37.0965 13.8241 39.0851 13.8241C40.1861 13.8241 41.0567 13.5802 41.7083 13.0701C42.5369 12.4068 42.8093 11.5253 42.8093 10.2102V4.39979L42.818 4.40121ZM39.1303 5.7804C40.3276 5.7804 41.1031 6.62306 41.1031 7.72106C41.1031 8.87039 40.2732 9.62378 39.1576 9.62378C38.0285 9.62378 37.171 8.83218 37.171 7.70831C37.171 6.66132 37.9333 5.7804 39.1303 5.7804ZM48.044 4.22264C46.0712 4.22264 44.3029 5.74186 44.3029 7.79793C44.3029 9.78989 45.9628 11.3607 48.0575 11.3607C50.2614 11.3607 51.88 9.75136 51.88 7.78517C51.88 5.7804 50.1527 4.22264 48.044 4.22264ZM48.0713 5.83143C49.2548 5.83143 50.0575 6.64857 50.0575 7.79793C50.0575 8.98546 49.1868 9.75136 48.0713 9.75136C46.9011 9.75136 46.1257 8.93418 46.1257 7.78517C46.1257 6.66132 46.9419 5.83143 48.0713 5.83143ZM53.3453 7.50425C53.3453 8.06603 53.318 8.38516 53.4133 8.93418C53.6988 10.5174 54.7738 11.3476 56.5151 11.3476C57.5217 11.3476 58.2699 11.0926 58.8415 10.4917C59.6054 9.70033 59.6868 8.78115 59.6868 7.52977V4.40121H57.8781V8.015C57.8781 9.16407 57.4849 9.78989 56.5187 9.78989C55.5666 9.78989 55.1593 9.15131 55.1593 7.9382V4.40092H53.3506V7.50457L53.3453 7.50425ZM64.998 11.1815L68.0729 4.40121H66.236L64.4132 8.39766L62.5904 4.40121H60.7395L63.8262 11.1815H64.998Z" fill="white"/>
<path d="M69.5898 9.83776C69.819 9.83776 70.0112 9.91282 70.1657 10.0628C70.3253 10.2064 70.4058 10.3841 70.4058 10.5957C70.4058 10.8055 70.326 10.985 70.1657 11.1342C70.0068 11.2797 69.8146 11.3525 69.5898 11.3525C69.367 11.3525 69.1755 11.2797 69.0146 11.1342C68.8607 10.983 68.7841 10.8026 68.7841 10.5928C68.7841 10.3831 68.862 10.2055 69.0171 10.06C69.178 9.90883 69.3702 9.83325 69.593 9.83325L69.5898 9.83776ZM77.1805 4.5673L77.0368 5.06275H75.8691L74.9893 8.34379C74.5998 9.79027 74.2078 10.9089 73.8133 11.6997C73.2533 12.8156 72.6506 13.5864 72.0051 14.0119C71.5148 14.3373 71.0245 14.5 70.5335 14.5C70.2155 14.5 69.9442 14.4099 69.7194 14.2296C69.5547 14.1045 69.4724 13.9418 69.4724 13.7415C69.4724 13.5815 69.5413 13.4414 69.6799 13.3212C69.8127 13.206 69.9787 13.1483 70.1772 13.1483C70.3215 13.1483 70.4441 13.1908 70.545 13.2759C70.6427 13.3609 70.6912 13.4586 70.6912 13.5689C70.6912 13.6785 70.635 13.7806 70.5226 13.875C70.4383 13.9449 70.3962 13.9969 70.3962 14.0309C70.3962 14.0763 70.4147 14.1112 70.4524 14.1358C70.5009 14.1698 70.5756 14.1868 70.6771 14.1868C70.907 14.1868 71.1496 14.1188 71.4043 13.9827C71.6553 13.8467 71.8794 13.6436 72.0754 13.3734C72.2739 13.1069 72.4604 12.7214 72.6347 12.2169C72.7094 12.0072 72.9098 11.3137 73.2355 10.1365L74.6254 5.05764H73.2348L73.3465 4.56163C73.789 4.56163 74.0974 4.53423 74.2736 4.47943C74.4498 4.41897 74.6101 4.30871 74.7537 4.14867C74.9037 3.98314 75.0959 3.67797 75.3296 3.23317C75.6444 2.63229 75.9457 2.16651 76.2343 1.83583C76.6289 1.39046 77.0426 1.05761 77.4742 0.837288C77.9109 0.61243 78.3208 0.5 78.7045 0.5C79.1093 0.5 79.4336 0.597502 79.6794 0.792505C79.9246 0.982785 80.0472 1.19064 80.0472 1.41606C80.0472 1.59104 79.9865 1.73861 79.8646 1.85879C79.7407 1.9784 79.5837 2.03821 79.3928 2.03821C79.2268 2.03821 79.0908 1.99285 78.9835 1.90216C78.8826 1.81146 78.8322 1.70375 78.8322 1.57904C78.8322 1.49968 78.8667 1.40237 78.9363 1.2871C79.0052 1.16617 79.0397 1.08586 79.0397 1.04618C79.0397 0.976266 79.0161 0.92383 78.9676 0.888873C78.8986 0.838233 78.7971 0.812913 78.6643 0.812913C78.3285 0.812913 78.0271 0.91306 77.7602 1.11335C77.4027 1.37884 77.0822 1.79455 76.7993 2.36047C76.6551 2.65524 76.3914 3.3884 76.0077 4.55993H77.1811L77.1805 4.5673Z" fill="white"/>
<path d="M77.7245 4.80766L80.4845 4.38704L79.3328 8.036C80.2655 6.53945 81.1134 5.49338 81.8757 4.89779C82.308 4.55729 82.6598 4.38704 82.9324 4.38704C83.108 4.38704 83.2465 4.43711 83.348 4.53726C83.4496 4.63231 83.5 4.77251 83.5 4.95788C83.5 5.28817 83.4093 5.60345 83.2274 5.9037C83.0997 6.12894 82.9158 6.24156 82.6757 6.24156C82.5532 6.24156 82.4465 6.20405 82.3559 6.12903C82.2703 6.05383 82.2173 5.93857 82.1956 5.78324C82.1854 5.68839 82.1611 5.62603 82.1241 5.59617C82.0813 5.55593 82.0309 5.5358 81.9722 5.5358C81.8815 5.5358 81.7959 5.55583 81.7161 5.59589C81.5776 5.6658 81.3669 5.86043 81.0841 6.17977C80.6416 6.66917 80.1615 7.30503 79.6443 8.08729C79.4196 8.41795 79.2274 8.79024 79.0684 9.20401C78.8437 9.77468 78.7154 10.1176 78.6841 10.2329L78.4281 11.1768H77.2035L78.6841 6.51422C78.8539 5.9738 78.9395 5.58833 78.9395 5.3578C78.9395 5.2671 78.8992 5.19153 78.8188 5.13106C78.7122 5.0498 78.5704 5.00918 78.3942 5.00918C78.2819 5.00918 78.0763 5.03091 77.7768 5.07437L77.7206 4.7966L77.7245 4.80766Z" fill="white"/>
</svg>
