<svg width="20" height="20" viewBox="0 0 20 20" fill="none" xmlns="http://www.w3.org/2000/svg">
<path fill-rule="evenodd" clip-rule="evenodd" d="M10.0001 18.3334C5.39758 18.3334 1.66675 14.6025 1.66675 10C1.66675 5.39752 5.39758 1.66669 10.0001 1.66669C14.6026 1.66669 18.3334 5.39752 18.3334 10C18.3334 14.6025 14.6026 18.3334 10.0001 18.3334ZM10.0001 16.6667C13.682 16.6667 16.6667 13.6819 16.6667 10C16.6667 6.31812 13.682 3.33335 10.0001 3.33335C6.31818 3.33335 3.33341 6.31812 3.33341 10C3.33341 13.6819 6.31818 16.6667 10.0001 16.6667ZM9.16675 12.5H10.8334V14.1667H9.16675V12.5ZM10.8334 11.1292V11.6667H9.16675V10.4167C9.16675 9.95645 9.53984 9.58335 10.0001 9.58335C10.6585 9.58331 11.2041 9.07248 11.2473 8.41544C11.2905 7.7584 10.8167 7.18048 10.1639 7.09415C9.51113 7.00781 8.90331 7.44267 8.77425 8.08835L7.13925 7.76085C7.41965 6.35939 8.67404 5.3674 10.1024 5.41754C11.5308 5.46768 12.7125 6.54519 12.8939 7.96286C13.0754 9.38054 12.2031 10.7209 10.8334 11.1292Z" fill="#161616"/>
</svg>
